# Blender 5.0.1
# www.blender.org
o Curve
v 61.467972 1.000000 19.537483
v 61.467972 1.000000 23.873850
v 61.467972 1.000000 28.210217
v 61.467972 1.000000 32.546585
v 61.467972 1.000000 36.882950
v 61.467972 1.000000 41.219315
v 61.467972 1.000000 45.555679
v 61.467972 1.000000 49.892044
v 61.467972 1.000000 54.228409
v 61.467972 1.000000 58.564774
v 61.467972 1.000000 62.901146
v 61.467972 1.000000 67.237511
v 61.467972 1.000000 71.573875
v 61.467972 1.000000 75.910240
v 61.467972 1.000000 80.246605
v 61.467972 1.000000 84.582977
v 61.467972 1.000000 88.919342
v 61.467972 1.000000 93.255707
v 61.467972 1.000000 97.592072
v 61.467972 1.000000 101.928436
v 61.467972 1.000000 106.264801
v 61.467972 1.000000 110.601166
v 61.467972 1.000000 114.937531
v 61.467972 1.000000 119.273895
v 61.467972 1.000000 123.610260
v 61.467972 1.000000 127.946625
v 61.467972 1.000000 132.282990
v 61.467972 1.000000 136.619354
v 61.467972 1.000000 140.955719
v 61.467972 1.000000 145.292084
v 61.467972 1.000000 149.628448
v 61.467972 1.000000 153.964813
v 61.467972 1.000000 158.301178
v 61.467972 1.000000 162.637543
v 61.467972 1.000000 166.973907
v 61.467972 1.000000 171.310287
v 61.467972 1.000000 175.646652
v 61.467972 1.000000 179.983017
v 61.467972 1.000000 184.319382
v 61.467972 1.000000 188.655746
v 61.467972 1.000000 192.992126
v 65.217972 1.000000 196.742126
v 68.967972 1.000000 200.492126
v 72.717972 1.000000 204.242126
v 76.467972 1.000000 207.992126
v 80.217972 1.000000 211.742126
v 83.967972 1.000000 215.492126
v 87.717972 1.000000 219.242126
v 91.467972 1.000000 222.992126
v 95.217972 1.000000 226.742126
v 98.967972 1.000000 230.492126
v 102.967972 1.000000 234.492126
v 106.967972 1.000000 238.492126
v 110.967972 1.000000 242.492126
v 114.967972 1.000000 246.492126
v 118.967972 1.000000 250.492126
v 122.967972 1.000000 254.492126
v 126.967972 1.000000 258.492126
v 130.967972 1.000000 262.492126
v 134.967972 1.000000 266.492126
v 138.967972 1.000000 270.492126
v 142.717972 1.000000 274.242126
v 146.467972 1.000000 277.992126
v 150.217972 1.000000 281.742126
v 153.967972 1.000000 285.492126
v 157.717972 1.000000 289.242126
v 161.467972 1.000000 292.992126
v 165.217972 1.000000 296.742126
v 168.967972 1.000000 300.492126
v 172.717972 1.000000 304.242126
v 176.467972 1.000000 307.992126
v 180.967972 1.000000 307.992126
v 185.467972 1.000000 307.992126
v 189.967972 1.000000 307.992126
v 194.467972 1.000000 307.992126
v 198.967957 1.000000 307.992126
v 203.467957 1.000000 307.992126
v 207.967957 1.000000 307.992126
v 212.467957 1.000000 307.992126
v 216.967957 1.000000 307.992126
v 221.467957 1.000000 307.992126
v 225.967957 1.000000 307.992126
v 230.467957 1.000000 307.992126
v 234.967957 1.000000 307.992126
v 239.467957 1.000000 307.992126
v 243.967957 1.000000 307.992126
v 248.467957 1.000000 307.992126
v 252.967957 1.000000 307.992126
v 257.467957 1.000000 307.992126
v 261.967957 1.000000 307.992126
v 266.467957 1.000000 307.992126
v 269.467957 1.000000 304.992126
v 272.467957 1.000000 301.992126
v 275.467957 1.000000 298.992126
v 278.467957 1.000000 295.992126
v 281.467957 1.000000 292.992126
v 281.467957 1.000000 288.742126
v 281.467957 1.000000 284.492126
v 281.467957 1.000000 280.242126
v 281.467957 1.000000 275.992126
v 281.467957 1.000000 271.742126
v 281.467957 1.000000 267.492126
v 281.467957 1.000000 263.242126
v 281.467957 1.000000 258.992126
v 281.467957 1.000000 254.742126
v 281.467957 1.000000 250.492126
v 281.467957 1.000000 246.242126
v 281.467957 1.000000 241.992126
v 281.467957 1.000000 237.742126
v 281.467957 1.000000 233.492126
v 281.467957 1.000000 229.242126
v 281.467957 1.000000 224.992126
v 281.467957 1.000000 220.742126
v 281.467957 1.000000 216.492126
v 281.467957 1.000000 212.242126
v 281.467957 1.000000 207.992126
v 281.467957 1.000000 203.742126
v 281.467957 1.000000 199.492126
v 281.467957 1.000000 195.242126
v 281.467957 1.000000 190.992126
v 281.467957 1.000000 186.742126
v 281.467957 1.000000 182.492126
v 281.467957 1.000000 178.242126
v 281.467957 1.000000 173.992126
v 281.467957 1.000000 169.742126
v 281.467957 1.000000 165.492126
v 281.467957 1.000000 161.242126
v 281.467957 1.000000 156.992126
v 281.467957 1.000000 152.742126
v 281.467957 1.000000 148.492126
v 281.467957 1.000000 144.242126
v 281.467957 1.000000 139.992126
v 281.467957 1.000000 135.742126
v 281.467957 1.000000 131.492126
v 281.467957 1.000000 127.242126
v 281.467957 1.000000 122.992134
v 278.217957 1.000000 119.742134
v 274.967957 1.000000 116.492134
v 271.717957 1.000000 113.242134
v 268.467957 1.000000 109.992134
v 265.217957 1.000000 106.742134
v 261.967957 1.000000 103.492134
v 258.717957 1.000000 100.242134
v 255.467957 1.000000 96.992134
v 252.217957 1.000000 93.742134
v 248.967957 1.000000 90.492134
v 245.717957 1.000000 87.242134
v 242.467957 1.000000 83.992134
v 239.217957 1.000000 80.742134
v 235.967957 1.000000 77.492134
v 232.717957 1.000000 74.242134
v 229.467957 1.000000 70.992134
v 226.217957 1.000000 67.742134
v 222.967957 1.000000 64.492134
v 219.717957 1.000000 61.242134
v 216.467972 1.000000 57.992134
v 212.717972 1.000000 57.992134
v 208.967972 1.000000 57.992134
v 205.217972 1.000000 57.992134
v 201.467972 1.000000 57.992134
v 197.717972 1.000000 57.992134
v 193.967972 1.000000 57.992134
v 190.217972 1.000000 57.992134
v 186.467972 1.000000 57.992134
v 182.717972 1.000000 57.992134
v 178.967972 1.000000 57.992134
v 175.217972 1.000000 57.992134
v 171.467972 1.000000 57.992134
v 167.717972 1.000000 57.992134
v 163.967972 1.000000 57.992134
v 160.217972 1.000000 57.992134
v 156.467972 1.000000 57.992134
v 152.717972 1.000000 57.992134
v 148.967972 1.000000 57.992134
v 145.217972 1.000000 57.992134
v 141.467972 1.000000 57.992134
v 139.217972 1.000000 55.742134
v 136.967972 1.000000 53.492134
v 134.717972 1.000000 51.242134
v 132.467972 1.000000 48.992134
v 130.217972 1.000000 46.742134
v 127.967972 1.000000 44.492134
v 125.717972 1.000000 42.242134
v 123.467972 1.000000 39.992134
v 121.217972 1.000000 37.742134
v 118.967972 1.000000 35.492134
v 116.717972 1.000000 33.242134
v 114.467972 1.000000 30.992134
v 112.217972 1.000000 28.742134
v 109.967972 1.000000 26.492134
v 107.717972 1.000000 24.242134
v 105.467972 1.000000 21.992134
v 103.217972 1.000000 19.742134
v 100.967972 1.000000 17.492134
v 98.717972 1.000000 15.242134
v 96.467972 1.000000 12.992134
v 96.467972 1.000000 8.992134
v 96.467972 1.000000 4.992134
v 96.467972 1.000000 0.992134
v 96.467972 1.000000 -3.007865
v 96.467972 1.000000 -7.007866
v 96.467972 1.000000 -11.007866
v 96.467972 1.000000 -15.007866
v 96.467972 1.000000 -19.007866
v 96.467972 1.000000 -23.007866
v 96.467972 1.000000 -27.007866
v 96.467972 1.000000 -31.007866
v 96.467972 1.000000 -35.007866
v 96.467972 1.000000 -39.007866
v 96.467972 1.000000 -43.007866
v 96.467972 1.000000 -47.007866
v 96.467972 1.000000 -51.007866
v 96.467972 1.000000 -55.007866
v 96.467972 1.000000 -59.007866
v 96.467972 1.000000 -63.007866
v 96.467972 1.000000 -67.007866
v 93.793312 1.000000 -69.682526
v 91.194000 1.000000 -72.281837
v 88.557014 1.000000 -74.918823
v 85.769341 1.000000 -77.706497
v 82.717972 1.000000 -80.757874
v 79.666603 1.000000 -83.809242
v 76.878929 1.000000 -86.596916
v 74.241943 1.000000 -89.233902
v 71.642632 1.000000 -91.833214
v 68.967972 1.000000 -94.507874
v 66.217972 1.000000 -97.257874
v 63.467972 1.000000 -100.007874
v 60.717972 1.000000 -102.757874
v 57.967972 1.000000 -105.507874
v 55.217972 1.000000 -108.257874
v 52.467972 1.000000 -111.007874
v 49.717972 1.000000 -113.757874
v 46.967972 1.000000 -116.507874
v 44.217972 1.000000 -119.257874
v 41.467972 1.000000 -122.007874
v 38.717972 1.000000 -124.757874
v 35.967972 1.000000 -127.507874
v 33.217972 1.000000 -130.257874
v 30.467972 1.000000 -133.007874
v 27.717972 1.000000 -135.757874
v 24.967972 1.000000 -138.507874
v 22.217972 1.000000 -141.257874
v 19.467972 1.000000 -144.007874
v 16.717972 1.000000 -146.757874
v 13.967972 1.000000 -149.507874
v 11.217972 1.000000 -152.257874
v 8.467972 1.000000 -155.007874
v 5.717972 1.000000 -157.757874
v 2.967972 1.000000 -160.507874
v 0.217972 1.000000 -163.257874
v -2.532028 1.000000 -166.007874
v -5.282028 1.000000 -168.757874
v -8.032028 1.000000 -171.507874
v -10.782028 1.000000 -174.257874
v -13.532028 1.000000 -177.007874
v -13.532028 1.000000 -182.325272
v -13.532028 1.000000 -187.642670
v -13.532028 1.000000 -192.960068
v -13.532028 1.000000 -198.277466
v -13.532028 1.000000 -203.594879
v -13.532028 1.000000 -208.912277
v -13.532028 1.000000 -214.229675
v -13.532028 1.000000 -219.547073
v -13.532028 1.000000 -224.864471
v -13.532028 1.000000 -230.181870
v -13.532028 1.000000 -234.814468
v -13.532028 1.000000 -239.447067
v -13.532028 1.000000 -244.079666
v -13.532028 1.000000 -248.712265
v -13.532028 1.000000 -253.344864
v -13.532028 1.000000 -257.977448
v -13.532028 1.000000 -262.610046
v -13.532028 1.000000 -267.242645
v -13.532028 1.000000 -271.875244
v -13.532028 1.000000 -276.507874
v -16.567019 1.000000 -279.546082
v -19.602009 1.000000 -282.584290
v -22.636999 1.000000 -285.622498
v -25.671989 1.000000 -288.660706
v -28.706978 1.000000 -291.698914
v -31.741966 1.000000 -294.737122
v -34.776955 1.000000 -297.775330
v -37.811943 1.000000 -300.813538
v -40.846931 1.000000 -303.851746
v -43.881927 1.000000 -306.889954
v -46.883152 1.000000 -309.894318
v -49.804558 1.000000 -312.818695
v -52.627728 1.000000 -315.644623
v -55.334244 1.000000 -318.353638
v -57.905685 1.000000 -320.927307
v -60.323635 1.000000 -323.347137
v -62.569672 1.000000 -325.594696
v -64.625381 1.000000 -327.651489
v -66.472336 1.000000 -329.499084
v -68.092125 1.000000 -331.119019
v -70.445465 1.004648 -333.434540
v -72.816238 1.018438 -335.689362
v -75.204681 1.041133 -337.879456
v -77.611023 1.072500 -340.000763
v -80.035492 1.112305 -342.049225
v -82.478333 1.160313 -344.020844
v -84.939774 1.216289 -345.911530
v -87.420044 1.280000 -347.717255
v -89.919380 1.351211 -349.433990
v -92.438004 1.429688 -351.057678
v -94.976158 1.515195 -352.584259
v -97.534073 1.607500 -354.009735
v -100.111977 1.706367 -355.330017
v -102.710106 1.811563 -356.541077
v -105.328705 1.922852 -357.638885
v -107.967987 2.040000 -358.619385
v -110.628189 2.162773 -359.478516
v -113.309547 2.290937 -360.212250
v -116.012299 2.424258 -360.816528
v -118.736664 2.562500 -361.287292
v -121.482887 2.705430 -361.620544
v -124.251198 2.852813 -361.812225
v -127.041824 3.004414 -361.858276
v -129.854996 3.160000 -361.754669
v -132.690964 3.319336 -361.497314
v -135.549942 3.482188 -361.082245
v -138.432159 3.648320 -360.505371
v -141.337860 3.817500 -359.762665
v -144.267288 3.989492 -358.850067
v -147.220657 4.164062 -357.763489
v -150.198212 4.340977 -356.498962
v -153.200165 4.520000 -355.052429
v -156.226761 4.700899 -353.419830
v -159.278244 4.883438 -351.597107
v -162.354828 5.067383 -349.580200
v -165.456757 5.252500 -347.365112
v -168.584259 5.438555 -344.947784
v -171.737564 5.625313 -342.324158
v -174.916916 5.812540 -339.490204
v -178.122543 6.000000 -336.441895
v -179.715332 6.092513 -334.778992
v -181.272461 6.182657 -332.951691
v -182.790344 6.270594 -330.966766
v -184.265366 6.356483 -328.831024
v -185.693924 6.440486 -326.551270
v -187.072433 6.522762 -324.134277
v -188.397278 6.603472 -321.586823
v -189.664871 6.682775 -318.915710
v -190.871597 6.760833 -316.127747
v -192.013855 6.837806 -313.229675
v -193.088058 6.913853 -310.228363
v -194.090607 6.989136 -307.130554
v -195.017883 7.063814 -303.943054
v -195.866302 7.138049 -300.672668
v -196.632248 7.211999 -297.326172
v -197.312134 7.285826 -293.910339
v -197.902359 7.359690 -290.431976
v -198.399323 7.433751 -286.897888
v -198.799423 7.508170 -283.314850
v -199.099060 7.583107 -279.689697
v -199.294632 7.658722 -276.029175
v -199.382538 7.735176 -272.340088
v -199.359177 7.812628 -268.629211
v -199.220947 7.891239 -264.903381
v -198.964233 7.971170 -261.169342
v -198.585464 8.052582 -257.433929
v -198.081024 8.135633 -253.703903
v -197.447311 8.220484 -249.986069
v -196.680725 8.307296 -246.287216
v -195.777679 8.396230 -242.614105
v -194.734558 8.487445 -238.973587
v -193.547775 8.581101 -235.372421
v -192.213715 8.677361 -231.817398
v -190.728790 8.776382 -228.315323
v -189.089386 8.878326 -224.872986
v -187.291901 8.983354 -221.497162
v -185.332748 9.091624 -218.194656
v -183.208313 9.203299 -214.972260
v -180.915009 9.318537 -211.836777
v -178.449234 9.437500 -208.794998
v -177.005875 9.507221 -207.027985
v -175.644501 9.575742 -205.208908
v -174.362762 9.643032 -203.338425
v -173.158295 9.709063 -201.417191
v -172.028748 9.773804 -199.445831
v -170.971756 9.837227 -197.425018
v -169.984955 9.899302 -195.355377
v -169.065979 9.960001 -193.237564
v -168.212463 10.019293 -191.072220
v -167.422043 10.077148 -188.860016
v -166.692383 10.133540 -186.601562
v -166.021103 10.188437 -184.297516
v -165.405838 10.241812 -181.948532
v -164.844223 10.293633 -179.555252
v -164.333908 10.343872 -177.118332
v -163.872528 10.392500 -174.638397
v -163.457733 10.439487 -172.116104
v -163.087143 10.484805 -169.552094
v -162.758408 10.528423 -166.947021
v -162.469177 10.570312 -164.301544
v -162.217072 10.610444 -161.616287
v -161.999725 10.648788 -158.891907
v -161.814789 10.685317 -156.129044
v -161.659897 10.719999 -153.328339
v -161.532669 10.752808 -150.490448
v -161.430786 10.783710 -147.616028
v -161.351852 10.812680 -144.705719
v -161.293518 10.839687 -141.760162
v -161.253418 10.864702 -138.779999
v -161.229202 10.887695 -135.765869
v -161.218491 10.908638 -132.718445
v -161.218933 10.927501 -129.638351
v -161.228165 10.944254 -126.526253
v -161.243835 10.958868 -123.382782
v -161.263580 10.971313 -120.208588
v -161.285019 10.981563 -117.004311
v -161.305817 10.989585 -113.770607
v -161.323593 10.995352 -110.508118
v -161.335999 10.998834 -107.217491
v -161.340652 11.000000 -103.899376
v -161.340652 11.000000 -100.646248
v -161.340652 11.000000 -96.999374
v -161.340652 11.000000 -93.127502
v -161.340652 11.000000 -89.199379
v -161.340652 11.000000 -85.383751
v -161.340652 11.000000 -81.211876
v -161.340652 11.000000 -77.040001
v -161.340652 11.000000 -72.868126
v -161.340652 11.000000 -68.696251
v -161.340652 11.000000 -64.524376
v -161.340652 11.000000 -59.961876
v -161.340652 11.000000 -55.399376
v -161.340652 11.000000 -50.836876
v -161.340652 11.000000 -46.274376
v -161.340652 11.000000 -41.711876
v -161.340652 11.000000 -37.149376
v -161.340652 11.000000 -32.586876
v -161.340652 11.000000 -28.024376
v -161.340652 11.000000 -23.461876
v -161.340652 11.000000 -18.899374
v -157.840652 11.000000 -15.399374
v -154.340652 11.000000 -11.899374
v -150.840652 11.000000 -8.399374
v -147.340652 11.000000 -4.899374
v -143.840652 11.000000 -1.399375
v -140.340652 11.000000 2.100625
v -136.840652 11.000000 5.600624
v -133.340652 11.000000 9.100624
v -129.840652 11.000000 12.600624
v -126.340652 11.000000 16.100624
v -122.840652 11.000000 19.600624
v -119.340652 11.000000 23.100624
v -115.840652 11.000000 26.600624
v -112.340652 11.000000 30.100624
v -108.840652 11.000000 33.600624
v -105.340652 11.000000 37.100624
v -101.840652 11.000000 40.600624
v -98.340652 11.000000 44.100624
v -94.840652 11.000000 47.600624
v -91.340652 11.000000 51.100624
v -87.215652 11.000000 51.100624
v -83.090652 11.000000 51.100624
v -78.965652 11.000000 51.100624
v -74.840652 11.000000 51.100624
v -70.715652 11.000000 51.100624
v -66.590652 11.000000 51.100624
v -62.465652 11.000000 51.100624
v -58.340652 11.000000 51.100624
v -54.215652 11.000000 51.100624
v -50.090652 11.000000 51.100624
v -45.965652 11.000000 51.100624
v -41.840652 11.000000 51.100624
v -37.715652 11.000000 51.100624
v -33.590652 11.000000 51.100624
v -29.465652 11.000000 51.100624
v -25.340652 11.000000 51.100624
v -21.215652 11.000000 51.100624
v -17.090652 11.000000 51.100624
v -12.965652 11.000000 51.100624
v -8.840652 11.000000 51.100624
v -4.715652 11.000000 51.100624
v -0.590652 11.000000 51.100624
v 3.534348 11.000000 51.100624
v 7.659348 11.000000 51.100624
v 11.784348 11.000000 51.100624
v 15.909348 11.000000 51.100624
v 20.034348 11.000000 51.100624
v 24.159348 11.000000 51.100624
v 28.284348 11.000000 51.100624
v 32.409348 11.000000 51.100624
v 36.534348 11.000000 51.100624
v 40.659348 11.000000 51.100624
v 44.784348 11.000000 51.100624
v 48.909348 11.000000 51.100624
v 53.034348 11.000000 51.100624
v 57.159348 11.000000 51.100624
v 61.284348 11.000000 51.100624
v 65.409348 11.000000 51.100624
v 69.534348 11.000000 51.100624
v 73.659348 11.000000 51.100624
v 75.809349 11.000000 53.250626
v 77.959351 11.000000 55.400627
v 80.109352 11.000000 57.550629
v 82.259354 11.000000 59.700630
v 84.409348 11.000000 61.850624
v 86.559349 11.000000 64.000626
v 88.709351 11.000000 66.150627
v 90.859352 11.000000 68.300629
v 93.009354 11.000000 70.450630
v 95.159348 11.000000 72.600632
v 97.309349 11.000000 74.750633
v 99.459351 11.000000 76.900635
v 101.609352 11.000000 79.050636
v 103.759354 11.000000 81.200638
v 105.909348 11.000000 83.350632
v 108.297882 11.000000 85.781677
v 111.016701 11.000000 88.601860
v 113.845612 11.000000 91.551750
v 116.564430 11.000000 94.371933
v 118.952965 11.000000 96.802979
v 121.114426 11.000000 98.921936
v 122.945610 11.000000 100.651749
v 124.666702 11.000000 102.251854
v 126.497887 11.000000 103.981667
v 128.659348 11.000000 106.100624
v 128.659348 11.000000 107.913124
v 128.659348 11.000000 109.725624
v 128.659348 11.000000 111.538124
v 128.659348 11.000000 113.350624
v 128.659348 11.000000 115.163116
v 128.659348 11.000000 116.975616
v 128.659348 11.000000 118.788116
v 128.659348 11.000000 120.600616
v 128.659348 11.000000 122.413116
v 128.659348 11.000000 124.225616
v 128.659348 11.000000 126.038116
v 128.659348 11.000000 127.850616
v 128.659348 11.000000 129.663116
v 128.659348 11.000000 131.475616
v 128.659348 11.000000 133.288116
v 128.659348 11.000000 135.100616
v 128.659348 11.000000 136.913116
v 128.659348 11.000000 138.725616
v 128.659348 11.000000 140.538116
v 128.659348 11.000000 142.350616
v 128.659348 11.000000 145.975616
v 128.659348 11.000000 149.600616
v 128.659348 11.000000 153.225616
v 128.659348 11.000000 156.850616
v 128.659348 11.000000 160.475616
v 128.659348 11.000000 164.100616
v 128.659348 11.000000 167.725616
v 128.659348 11.000000 171.350616
v 128.659348 11.000000 174.975616
v 128.659348 11.000000 178.600616
v 128.659348 11.000000 182.225616
v 128.659348 11.000000 185.850616
v 128.659348 11.000000 189.475616
v 128.659348 11.000000 193.100616
v 128.659348 11.000000 196.725616
v 128.659348 11.000000 200.350616
v 128.659348 11.000000 203.975616
v 128.659348 11.000000 207.600616
v 128.659348 11.000000 211.225616
v 128.659348 11.000000 214.850616
v 128.659348 11.000000 218.376297
v 128.659348 11.000000 221.802673
v 128.659348 11.000000 225.278702
v 128.659348 11.000000 228.953354
v 128.659348 11.000000 232.975616
v 128.659348 11.000000 236.997879
v 128.659348 11.000000 240.672531
v 128.659348 11.000000 244.148560
v 128.659348 11.000000 247.574936
v 128.659348 11.000000 251.100616
v 125.151741 11.000000 255.920456
v 121.644135 11.000000 260.740295
v 118.136536 11.000000 265.560120
v 114.628944 11.000000 270.379944
v 111.121376 11.000000 275.199768
v 108.017365 11.000000 279.454163
v 104.861992 11.000000 283.678009
v 101.605904 11.000000 287.820160
v 98.199722 11.000000 291.829468
v 94.594101 11.000000 295.654755
v 92.662834 10.991818 297.620728
v 90.763214 10.968638 299.617920
v 88.885887 10.932508 301.637024
v 87.021500 10.885472 303.668701
v 85.160698 10.829579 305.703644
v 83.294136 10.766875 307.732483
v 81.412460 10.699408 309.745941
v 79.506317 10.629223 311.734680
v 77.566360 10.558368 313.689392
v 75.583229 10.488888 315.600769
v 74.140915 10.439663 316.941132
v 72.658920 10.388499 318.287201
v 71.138214 10.335440 319.635315
v 69.579781 10.280527 320.981781
v 67.984589 10.223804 322.322937
v 66.353622 10.165317 323.655121
v 64.687851 10.105105 324.974640
v 62.988251 10.043214 326.277802
v 61.255798 9.979685 327.560974
v 59.491463 9.914560 328.820435
v 57.696232 9.847885 330.052551
v 55.871075 9.779702 331.253601
v 54.016968 9.710054 332.419952
v 52.134884 9.638985 333.547913
v 50.225800 9.566536 334.633789
v 48.290691 9.492751 335.673920
v 46.330536 9.417673 336.664612
v 44.346306 9.341346 337.602234
v 42.338982 9.263811 338.483063
v 40.309532 9.185113 339.303467
v 38.259499 9.105294 340.079681
v 36.190834 9.024397 340.829529
v 34.105148 8.942465 341.551758
v 32.004044 8.859541 342.245087
v 29.889132 8.775669 342.908203
v 27.762018 8.690891 343.539886
v 25.624311 8.605251 344.138824
v 23.477619 8.518792 344.703735
v 21.323547 8.431556 345.233337
v 19.163708 8.343586 345.726379
v 16.999701 8.254926 346.181549
v 14.833136 8.165619 346.597595
v 12.665621 8.075707 346.973206
v 10.498763 7.985235 347.307129
v 8.334169 7.894244 347.598083
v 6.173448 7.802778 347.844757
v 4.018205 7.710880 348.045898
v 1.870048 7.618593 348.200256
v -0.269415 7.525959 348.306519
v -2.398579 7.433023 348.363403
v -4.515833 7.339828 348.369629
v -6.619572 7.246415 348.323914
v -8.708189 7.152828 348.225006
v -10.780076 7.059110 348.071594
v -12.833626 6.965305 347.862427
v -14.867231 6.871455 347.596191
v -16.879286 6.777604 347.271637
v -18.868181 6.683794 346.887482
v -20.832310 6.590068 346.442444
v -22.770065 6.496469 345.935211
v -24.679840 6.403041 345.364563
v -26.560028 6.309827 344.729187
v -28.409021 6.216869 344.027802
v -30.225212 6.124211 343.259125
v -32.006992 6.031896 342.421906
v -33.752758 5.939966 341.514832
v -35.460899 5.848465 340.536652
v -37.129807 5.757436 339.486084
v -38.757877 5.666922 338.361816
v -40.343498 5.576966 337.162598
v -41.881748 5.486672 335.928711
v -43.369648 5.395144 334.699982
v -44.808514 5.302424 333.474396
v -46.199669 5.208554 332.249908
v -47.544426 5.113577 331.024475
v -48.844109 5.017533 329.796082
v -50.100037 4.920465 328.562714
v -51.313530 4.822414 327.322327
v -52.485905 4.723424 326.072906
v -53.618484 4.623535 324.812439
v -54.712582 4.522790 323.538879
v -55.769520 4.421231 322.250183
v -56.790619 4.318900 320.944366
v -57.777195 4.215838 319.619354
v -58.730572 4.112088 318.273163
v -59.652065 4.007692 316.903748
v -60.542995 3.902692 315.509064
v -61.404678 3.797129 314.087128
v -62.238438 3.691046 312.635895
v -63.045589 3.584485 311.153320
v -63.827457 3.477487 309.637390
v -64.585358 3.370094 308.086090
v -65.320610 3.262349 306.497375
v -66.034538 3.154294 304.869232
v -66.728439 3.045970 303.199615
v -67.403664 2.937419 301.486511
v -68.061516 2.828684 299.727905
v -68.703316 2.719806 297.921753
v -69.330383 2.610828 296.066040
v -69.944023 2.501791 294.158722
v -70.527702 2.396100 292.264160
v -71.090958 2.292356 290.361816
v -71.633507 2.190715 288.452026
v -72.155067 2.091334 286.535187
v -72.655350 1.994367 284.611694
v -73.134087 1.899970 282.681885
v -73.590981 1.808299 280.746155
v -74.025757 1.719510 278.804840
v -74.438133 1.633757 276.858337
v -74.827820 1.551198 274.906982
v -75.194542 1.471987 272.951202
v -75.538010 1.396281 270.991364
v -75.857941 1.324235 269.027802
v -76.154060 1.256004 267.060913
v -76.426079 1.191745 265.091064
v -76.673721 1.131612 263.118622
v -76.896698 1.075762 261.143951
v -77.094727 1.024351 259.167450
v -77.267525 0.977533 257.189453
v -77.414810 0.935464 255.210388
v -77.597351 0.882387 252.372131
v -77.759720 0.836955 249.532211
v -77.902138 0.799410 246.690872
v -78.024834 0.769993 243.848343
v -78.128021 0.748945 241.004883
v -78.211922 0.736506 238.160721
v -78.276756 0.732919 235.316116
v -78.322746 0.738423 232.471298
v -78.350113 0.753261 229.626511
v -78.359085 0.777672 226.781982
v -78.358620 0.841740 223.542297
v -78.357628 0.963176 220.306488
v -78.356171 1.135876 217.080124
v -78.354301 1.353736 213.868790
v -78.352081 1.610650 210.678055
v -78.349579 1.900515 207.513474
v -78.346848 2.217227 204.380630
v -78.343948 2.554680 201.285095
v -78.340942 2.906771 198.232452
v -78.337891 3.267395 195.228271
v -78.334846 3.630449 192.278107
v -78.331879 3.989826 189.387543
v -78.329041 4.339424 186.562164
v -78.326393 4.673137 183.807526
v -78.323990 4.984861 181.129211
v -78.321899 5.268493 178.532791
v -78.320183 5.517927 176.023834
v -78.318893 5.727059 173.607910
v -78.318100 5.889785 171.290604
v -78.317848 6.000000 169.077454
v -78.333282 5.664326 167.729477
v -78.372696 4.747366 165.842926
v -78.425804 3.498244 163.648605
v -78.482338 2.166081 161.377350
v -78.532028 1.000000 159.259979
v -78.532349 1.001067 158.506256
v -78.532578 1.001837 156.850189
v -78.532761 1.002437 154.678513
v -78.532928 1.002995 152.377930
v -78.533127 1.003638 150.335144
v -78.533241 1.004011 147.475967
v -78.533356 1.004385 144.616791
v -78.533470 1.004758 141.757614
v -78.533585 1.005132 138.898438
v -78.533684 1.005506 136.039261
v -78.533707 1.005584 132.284912
v -78.533730 1.005663 128.530563
v -78.533752 1.005742 124.776215
v -78.533775 1.005820 121.021866
v -78.533798 1.005899 117.267509
v -78.533821 1.005978 113.513161
v -78.533844 1.006056 109.758812
v -78.533867 1.006135 106.004463
v -78.533890 1.006214 102.250114
v -78.533920 1.006292 98.495758
v -78.533829 1.005978 93.547844
v -78.533737 1.005663 88.599930
v -78.533646 1.005348 83.652016
v -78.533554 1.005034 78.704102
v -78.533447 1.004719 73.756195
v -78.533356 1.004404 68.808281
v -78.533264 1.004090 63.860367
v -78.533173 1.003775 58.912453
v -78.533081 1.003461 53.964539
v -78.532974 1.003146 49.016621
v -78.532883 1.002831 44.068707
v -78.532791 1.002517 39.120792
v -78.532700 1.002202 34.172878
v -78.532608 1.001888 29.224964
v -78.532501 1.001573 24.277052
v -78.532410 1.001258 19.329138
v -78.532318 1.000944 14.381224
v -78.532227 1.000629 9.433310
v -78.532135 1.000315 4.485395
v -78.532028 1.000000 -0.462518
v -75.782028 1.000000 -3.212517
v -73.032028 1.000000 -5.962517
v -70.282028 1.000000 -8.712517
v -67.532028 1.000000 -11.462517
v -64.782028 1.000000 -14.212517
v -62.032028 1.000000 -16.962517
v -59.282028 1.000000 -19.712517
v -56.532028 1.000000 -22.462517
v -53.782028 1.000000 -25.212517
v -51.032028 1.000000 -27.962517
v -48.282028 1.000000 -30.712517
v -45.532028 1.000000 -33.462517
v -42.782028 1.000000 -36.212517
v -40.032028 1.000000 -38.962517
v -37.282028 1.000000 -41.712517
v -34.532028 1.000000 -44.462517
v -31.782028 1.000000 -47.212517
v -29.032028 1.000000 -49.962517
v -26.282028 1.000000 -52.712517
v -23.532028 1.000000 -55.462517
v -20.532028 1.000000 -55.462517
v -17.532028 1.000000 -55.462517
v -14.532028 1.000000 -55.462517
v -11.532028 1.000000 -55.462517
v -8.532028 1.000000 -55.462517
v -5.532028 1.000000 -55.462517
v -2.532028 1.000000 -55.462517
v 0.467972 1.000000 -55.462517
v 3.467972 1.000000 -55.462517
v 6.467972 1.000000 -55.462517
v 9.467972 1.000000 -55.462517
v 12.467972 1.000000 -55.462517
v 15.467972 1.000000 -55.462517
v 18.467972 1.000000 -55.462517
v 21.467972 1.000000 -55.462517
v 24.467972 1.000000 -55.462517
v 27.467972 1.000000 -55.462517
v 30.467972 1.000000 -55.462517
v 33.467972 1.000000 -55.462517
v 36.467972 1.000000 -55.462517
v 38.967972 1.000000 -52.962517
v 41.467972 1.000000 -50.462517
v 43.967972 1.000000 -47.962517
v 46.467972 1.000000 -45.462517
v 48.967972 1.000000 -42.962517
v 51.467972 1.000000 -40.462517
v 53.967972 1.000000 -37.962517
v 56.467972 1.000000 -35.462517
v 58.967972 1.000000 -32.962517
v 61.467972 1.000000 -30.462517
v 61.467972 1.000000 -27.962517
v 61.467972 1.000000 -25.462517
v 61.467972 1.000000 -22.962517
v 61.467972 1.000000 -20.462517
v 61.467972 1.000000 -17.962517
v 61.467972 1.000000 -15.462517
v 61.467972 1.000000 -12.962517
v 61.467972 1.000000 -10.462517
v 61.467972 1.000000 -7.962517
v 61.467972 1.000000 -5.462517
v 61.467972 1.000000 -2.962517
v 61.467972 1.000000 -0.462517
v 61.467972 1.000000 2.037483
v 61.467972 1.000000 4.537483
v 61.467972 1.000000 7.037483
v 61.467972 1.000000 9.537483
v 61.467972 1.000000 12.037483
v 61.467972 1.000000 14.537483
v 61.467972 1.000000 17.037483
l 1 2
l 2 3
l 3 4
l 4 5
l 5 6
l 6 7
l 7 8
l 8 9
l 9 10
l 10 11
l 11 12
l 12 13
l 13 14
l 14 15
l 15 16
l 16 17
l 17 18
l 18 19
l 19 20
l 20 21
l 21 22
l 22 23
l 23 24
l 24 25
l 25 26
l 26 27
l 27 28
l 28 29
l 29 30
l 30 31
l 31 32
l 32 33
l 33 34
l 34 35
l 35 36
l 36 37
l 37 38
l 38 39
l 39 40
l 40 41
l 41 42
l 42 43
l 43 44
l 44 45
l 45 46
l 46 47
l 47 48
l 48 49
l 49 50
l 50 51
l 51 52
l 52 53
l 53 54
l 54 55
l 55 56
l 56 57
l 57 58
l 58 59
l 59 60
l 60 61
l 61 62
l 62 63
l 63 64
l 64 65
l 65 66
l 66 67
l 67 68
l 68 69
l 69 70
l 70 71
l 71 72
l 72 73
l 73 74
l 74 75
l 75 76
l 76 77
l 77 78
l 78 79
l 79 80
l 80 81
l 81 82
l 82 83
l 83 84
l 84 85
l 85 86
l 86 87
l 87 88
l 88 89
l 89 90
l 90 91
l 91 92
l 92 93
l 93 94
l 94 95
l 95 96
l 96 97
l 97 98
l 98 99
l 99 100
l 100 101
l 101 102
l 102 103
l 103 104
l 104 105
l 105 106
l 106 107
l 107 108
l 108 109
l 109 110
l 110 111
l 111 112
l 112 113
l 113 114
l 114 115
l 115 116
l 116 117
l 117 118
l 118 119
l 119 120
l 120 121
l 121 122
l 122 123
l 123 124
l 124 125
l 125 126
l 126 127
l 127 128
l 128 129
l 129 130
l 130 131
l 131 132
l 132 133
l 133 134
l 134 135
l 135 136
l 136 137
l 137 138
l 138 139
l 139 140
l 140 141
l 141 142
l 142 143
l 143 144
l 144 145
l 145 146
l 146 147
l 147 148
l 148 149
l 149 150
l 150 151
l 151 152
l 152 153
l 153 154
l 154 155
l 155 156
l 156 157
l 157 158
l 158 159
l 159 160
l 160 161
l 161 162
l 162 163
l 163 164
l 164 165
l 165 166
l 166 167
l 167 168
l 168 169
l 169 170
l 170 171
l 171 172
l 172 173
l 173 174
l 174 175
l 175 176
l 176 177
l 177 178
l 178 179
l 179 180
l 180 181
l 181 182
l 182 183
l 183 184
l 184 185
l 185 186
l 186 187
l 187 188
l 188 189
l 189 190
l 190 191
l 191 192
l 192 193
l 193 194
l 194 195
l 195 196
l 196 197
l 197 198
l 198 199
l 199 200
l 200 201
l 201 202
l 202 203
l 203 204
l 204 205
l 205 206
l 206 207
l 207 208
l 208 209
l 209 210
l 210 211
l 211 212
l 212 213
l 213 214
l 214 215
l 215 216
l 216 217
l 217 218
l 218 219
l 219 220
l 220 221
l 221 222
l 222 223
l 223 224
l 224 225
l 225 226
l 226 227
l 227 228
l 228 229
l 229 230
l 230 231
l 231 232
l 232 233
l 233 234
l 234 235
l 235 236
l 236 237
l 237 238
l 238 239
l 239 240
l 240 241
l 241 242
l 242 243
l 243 244
l 244 245
l 245 246
l 246 247
l 247 248
l 248 249
l 249 250
l 250 251
l 251 252
l 252 253
l 253 254
l 254 255
l 255 256
l 256 257
l 257 258
l 258 259
l 259 260
l 260 261
l 261 262
l 262 263
l 263 264
l 264 265
l 265 266
l 266 267
l 267 268
l 268 269
l 269 270
l 270 271
l 271 272
l 272 273
l 273 274
l 274 275
l 275 276
l 276 277
l 277 278
l 278 279
l 279 280
l 280 281
l 281 282
l 282 283
l 283 284
l 284 285
l 285 286
l 286 287
l 287 288
l 288 289
l 289 290
l 290 291
l 291 292
l 292 293
l 293 294
l 294 295
l 295 296
l 296 297
l 297 298
l 298 299
l 299 300
l 300 301
l 301 302
l 302 303
l 303 304
l 304 305
l 305 306
l 306 307
l 307 308
l 308 309
l 309 310
l 310 311
l 311 312
l 312 313
l 313 314
l 314 315
l 315 316
l 316 317
l 317 318
l 318 319
l 319 320
l 320 321
l 321 322
l 322 323
l 323 324
l 324 325
l 325 326
l 326 327
l 327 328
l 328 329
l 329 330
l 330 331
l 331 332
l 332 333
l 333 334
l 334 335
l 335 336
l 336 337
l 337 338
l 338 339
l 339 340
l 340 341
l 341 342
l 342 343
l 343 344
l 344 345
l 345 346
l 346 347
l 347 348
l 348 349
l 349 350
l 350 351
l 351 352
l 352 353
l 353 354
l 354 355
l 355 356
l 356 357
l 357 358
l 358 359
l 359 360
l 360 361
l 361 362
l 362 363
l 363 364
l 364 365
l 365 366
l 366 367
l 367 368
l 368 369
l 369 370
l 370 371
l 371 372
l 372 373
l 373 374
l 374 375
l 375 376
l 376 377
l 377 378
l 378 379
l 379 380
l 380 381
l 381 382
l 382 383
l 383 384
l 384 385
l 385 386
l 386 387
l 387 388
l 388 389
l 389 390
l 390 391
l 391 392
l 392 393
l 393 394
l 394 395
l 395 396
l 396 397
l 397 398
l 398 399
l 399 400
l 400 401
l 401 402
l 402 403
l 403 404
l 404 405
l 405 406
l 406 407
l 407 408
l 408 409
l 409 410
l 410 411
l 411 412
l 412 413
l 413 414
l 414 415
l 415 416
l 416 417
l 417 418
l 418 419
l 419 420
l 420 421
l 421 422
l 422 423
l 423 424
l 424 425
l 425 426
l 426 427
l 427 428
l 428 429
l 429 430
l 430 431
l 431 432
l 432 433
l 433 434
l 434 435
l 435 436
l 436 437
l 437 438
l 438 439
l 439 440
l 440 441
l 441 442
l 442 443
l 443 444
l 444 445
l 445 446
l 446 447
l 447 448
l 448 449
l 449 450
l 450 451
l 451 452
l 452 453
l 453 454
l 454 455
l 455 456
l 456 457
l 457 458
l 458 459
l 459 460
l 460 461
l 461 462
l 462 463
l 463 464
l 464 465
l 465 466
l 466 467
l 467 468
l 468 469
l 469 470
l 470 471
l 471 472
l 472 473
l 473 474
l 474 475
l 475 476
l 476 477
l 477 478
l 478 479
l 479 480
l 480 481
l 481 482
l 482 483
l 483 484
l 484 485
l 485 486
l 486 487
l 487 488
l 488 489
l 489 490
l 490 491
l 491 492
l 492 493
l 493 494
l 494 495
l 495 496
l 496 497
l 497 498
l 498 499
l 499 500
l 500 501
l 501 502
l 502 503
l 503 504
l 504 505
l 505 506
l 506 507
l 507 508
l 508 509
l 509 510
l 510 511
l 511 512
l 512 513
l 513 514
l 514 515
l 515 516
l 516 517
l 517 518
l 518 519
l 519 520
l 520 521
l 521 522
l 522 523
l 523 524
l 524 525
l 525 526
l 526 527
l 527 528
l 528 529
l 529 530
l 530 531
l 531 532
l 532 533
l 533 534
l 534 535
l 535 536
l 536 537
l 537 538
l 538 539
l 539 540
l 540 541
l 541 542
l 542 543
l 543 544
l 544 545
l 545 546
l 546 547
l 547 548
l 548 549
l 549 550
l 550 551
l 551 552
l 552 553
l 553 554
l 554 555
l 555 556
l 556 557
l 557 558
l 558 559
l 559 560
l 560 561
l 561 562
l 562 563
l 563 564
l 564 565
l 565 566
l 566 567
l 567 568
l 568 569
l 569 570
l 570 571
l 571 572
l 572 573
l 573 574
l 574 575
l 575 576
l 576 577
l 577 578
l 578 579
l 579 580
l 580 581
l 581 582
l 582 583
l 583 584
l 584 585
l 585 586
l 586 587
l 587 588
l 588 589
l 589 590
l 590 591
l 591 592
l 592 593
l 593 594
l 594 595
l 595 596
l 596 597
l 597 598
l 598 599
l 599 600
l 600 601
l 601 602
l 602 603
l 603 604
l 604 605
l 605 606
l 606 607
l 607 608
l 608 609
l 609 610
l 610 611
l 611 612
l 612 613
l 613 614
l 614 615
l 615 616
l 616 617
l 617 618
l 618 619
l 619 620
l 620 621
l 621 622
l 622 623
l 623 624
l 624 625
l 625 626
l 626 627
l 627 628
l 628 629
l 629 630
l 630 631
l 631 632
l 632 633
l 633 634
l 634 635
l 635 636
l 636 637
l 637 638
l 638 639
l 639 640
l 640 641
l 641 642
l 642 643
l 643 644
l 644 645
l 645 646
l 646 647
l 647 648
l 648 649
l 649 650
l 650 651
l 651 652
l 652 653
l 653 654
l 654 655
l 655 656
l 656 657
l 657 658
l 658 659
l 659 660
l 660 661
l 661 662
l 662 663
l 663 664
l 664 665
l 665 666
l 666 667
l 667 668
l 668 669
l 669 670
l 670 671
l 671 672
l 672 673
l 673 674
l 674 675
l 675 676
l 676 677
l 677 678
l 678 679
l 679 680
l 680 681
l 681 682
l 682 683
l 683 684
l 684 685
l 685 686
l 686 687
l 687 688
l 688 689
l 689 690
l 690 691
l 691 692
l 692 693
l 693 694
l 694 695
l 695 696
l 696 697
l 697 698
l 698 699
l 699 700
l 700 701
l 701 702
l 702 703
l 703 704
l 704 705
l 705 706
l 706 707
l 707 708
l 708 709
l 709 710
l 710 711
l 711 712
l 712 713
l 713 714
l 714 715
l 715 716
l 716 717
l 717 718
l 718 719
l 719 720
l 720 721
l 721 722
l 722 723
l 723 724
l 724 725
l 725 726
l 726 727
l 727 728
l 728 729
l 729 730
l 730 731
l 731 732
l 732 733
l 733 734
l 734 735
l 735 736
l 736 737
l 737 738
l 738 739
l 739 740
l 740 741
l 741 742
l 742 743
l 743 744
l 744 745
l 745 746
l 746 747
l 747 748
l 748 749
l 749 750
l 750 751
l 751 752
l 752 753
l 753 754
l 754 755
l 755 756
l 756 757
l 757 758
l 758 759
l 759 760
l 760 761
l 761 762
l 762 763
l 763 764
l 764 765
l 765 766
l 766 767
l 767 768
l 768 769
l 769 770
l 770 771
l 771 772
l 772 773
l 773 774
l 774 775
l 775 776
l 776 777
l 777 778
l 778 779
l 779 780
l 780 781
l 781 782
l 782 783
l 783 784
l 784 785
l 785 786
l 786 787
l 787 788
l 788 789
l 789 790
l 790 791
l 791 792
l 792 793
l 793 794
l 794 795
l 795 796
l 796 797
l 797 798
l 798 799
l 799 800
l 800 801
l 801 802
l 802 803
l 803 804
l 804 805
l 805 806
l 806 807
l 807 808
l 808 809
l 809 810
l 810 811
l 811 812
l 812 813
l 813 814
l 814 815
l 815 816
l 816 817
l 817 818
l 818 819
l 819 820
l 820 821
l 821 822
l 822 823
l 823 824
l 824 825
l 825 826
l 826 827
l 827 828
l 828 829
l 829 830
l 830 831
l 831 832
l 832 833
l 833 834
l 834 835
l 835 836
l 836 837
l 837 838
l 838 839
l 839 840
l 840 841
l 841 842
l 842 843
l 843 844
l 844 845
l 845 1
