# Blender 5.0.1
# www.blender.org
mtllib curve.mtl
o Healzone_Curve
v 19.537483 1.000000 -61.467972
v 41.219315 1.000000 -61.467972
v 62.901146 1.000000 -61.467972
v 84.582977 1.000000 -61.467972
v 106.264801 1.000000 -61.467972
v 127.946625 1.000000 -61.467972
v 149.628448 1.000000 -61.467972
v 171.310287 1.000000 -61.467972
v 192.992126 1.000000 -61.467972
v 215.492126 1.000000 -61.467972
v 237.992126 1.000000 -61.467972
v 260.492126 1.000000 -61.467972
v 282.992126 1.000000 -61.467972
v 289.242126 1.000000 -67.717972
v 295.492126 1.000000 -73.967972
v 301.742126 1.000000 -80.217972
v 307.992126 1.000000 -86.467972
v 307.992126 1.000000 -108.967972
v 307.992126 1.000000 -131.467972
v 307.992126 1.000000 -153.967972
v 307.992126 1.000000 -176.467972
v 307.992126 1.000000 -198.967957
v 307.992126 1.000000 -221.467957
v 307.992126 1.000000 -243.967957
v 307.992126 1.000000 -266.467957
v 300.492126 1.000000 -273.967957
v 292.992126 1.000000 -281.467957
v 271.742126 1.000000 -281.467957
v 250.492126 1.000000 -281.467957
v 229.242126 1.000000 -281.467957
v 207.992126 1.000000 -281.467957
v 186.742126 1.000000 -281.467957
v 165.492126 1.000000 -281.467957
v 144.242126 1.000000 -281.467957
v 122.992134 1.000000 -281.467957
v 106.742134 1.000000 -265.217957
v 90.492134 1.000000 -248.967957
v 74.242134 1.000000 -232.717957
v 57.992134 1.000000 -216.467972
v 29.242134 1.000000 -209.467957
v 0.492134 1.000000 -209.467957
v -28.257866 1.000000 -209.467957
v -57.007866 1.000000 -209.467957
v -76.132874 1.000000 -190.342987
v -95.257874 1.000000 -171.217972
v -114.382866 1.000000 -152.092972
v -133.507858 1.000000 -132.967972
v -151.882874 1.000000 -114.592972
v -170.257874 1.000000 -96.217964
v -179.445374 1.000000 -87.030472
v -188.632874 1.000000 -77.842964
v -197.820358 1.000000 -68.655464
v -207.007874 1.000000 -59.467964
v -207.007874 1.000000 -47.017193
v -207.007874 1.000000 -34.566418
v -207.007874 1.000000 -22.115646
v -207.007874 1.000000 -9.664869
v -212.801361 1.000000 -3.865645
v -218.594849 1.000000 1.933579
v -224.388351 1.000000 7.732804
v -230.181870 1.000000 13.532028
v -253.344864 1.000000 13.532028
v -276.507874 1.000000 13.532028
v -277.773804 1.000000 14.796608
v -279.039734 1.000000 16.061188
v -280.305664 1.000000 17.325768
v -281.571594 1.000000 18.590347
v -282.837524 1.000000 19.854927
v -284.103455 1.000000 21.119507
v -285.369385 1.000000 22.384087
v -286.635315 1.000000 23.648666
v -287.901245 1.000000 24.913246
v -289.167175 1.000000 26.177826
v -290.433105 1.000000 27.442406
v -291.698914 1.000000 28.706978
v -292.964844 1.000000 29.971558
v -294.230774 1.000000 31.236137
v -295.496704 1.000000 32.500717
v -296.762634 1.000000 33.765297
v -298.028564 1.000000 35.029877
v -299.294495 1.000000 36.294456
v -300.560425 1.000000 37.559036
v -301.826355 1.000000 38.823616
v -303.092285 1.000000 40.088196
v -304.358215 1.000000 41.352776
v -305.624146 1.000000 42.617355
v -306.889954 1.000000 43.881927
v -308.150299 1.000000 45.140957
v -309.398621 1.000000 46.387993
v -310.633606 1.000000 47.621704
v -311.853912 1.000000 48.840759
v -313.058197 1.000000 50.043827
v -314.245117 1.000000 51.229572
v -315.413330 1.000000 52.396664
v -316.561523 1.000000 53.543770
v -317.688354 1.000000 54.669556
v -318.792480 1.000000 55.772694
v -319.872589 1.000000 56.851845
v -320.927307 1.000000 57.905685
v -321.955322 1.000000 58.932877
v -322.955292 1.000000 59.932087
v -323.925903 1.000000 60.901981
v -324.865784 1.000000 61.841232
v -325.773621 1.000000 62.748505
v -326.648071 1.000000 63.622467
v -327.487823 1.000000 64.461792
v -328.291504 1.000000 65.265137
v -329.057800 1.000000 66.031174
v -329.785370 1.000000 66.758575
v -330.472870 1.000000 67.445999
v -331.119019 1.000000 68.092125
v -333.052704 1.003233 70.052032
v -334.944733 1.012840 72.024025
v -336.792725 1.028687 74.008232
v -338.594360 1.050637 76.004791
v -340.347290 1.078555 78.013832
v -342.049194 1.112305 80.035492
v -343.697723 1.151752 82.069908
v -345.290527 1.196759 84.117210
v -346.825256 1.247193 86.177536
v -348.299591 1.302915 88.251022
v -349.711182 1.363792 90.337799
v -351.057678 1.429688 92.438004
v -352.336761 1.500466 94.551765
v -353.546082 1.575991 96.679222
v -354.683289 1.656128 98.820511
v -355.746063 1.740741 100.975761
v -356.732056 1.829694 103.145111
v -357.638916 1.922852 105.328697
v -358.464294 2.020078 107.526649
v -359.205872 2.121238 109.739105
v -359.861298 2.226196 111.966202
v -360.428253 2.334816 114.208069
v -360.904358 2.446963 116.464844
v -361.287292 2.562500 118.736664
v -361.574738 2.681293 121.023659
v -361.764313 2.803205 123.325958
v -361.853699 2.928101 125.643707
v -361.840546 3.055845 127.977036
v -361.722534 3.186302 130.326080
v -361.497314 3.319336 132.690964
v -361.162537 3.454811 135.071838
v -360.715881 3.592592 137.468826
v -360.154968 3.732544 139.882065
v -359.477509 3.874530 142.311691
v -358.681122 4.018414 144.757843
v -357.763489 4.164062 147.220657
v -356.722260 4.311338 149.700256
v -355.555084 4.460105 152.196777
v -354.259613 4.610229 154.710358
v -352.833527 4.761574 157.241135
v -351.274506 4.914004 159.789246
v -349.580170 5.067383 162.354813
v -347.748199 5.221576 164.937988
v -345.776245 5.376447 167.538895
v -343.661987 5.531860 170.157669
v -341.403076 5.687681 172.794449
v -338.997162 5.843772 175.449356
v -336.441895 6.000000 178.122543
v -335.067749 6.077262 179.452240
v -333.578644 6.152862 180.757599
v -331.978516 6.226892 182.036530
v -330.271301 6.299443 183.286942
v -328.460907 6.370611 184.506760
v -326.551270 6.440486 185.693909
v -324.546326 6.509162 186.846298
v -322.450012 6.576733 187.961838
v -320.266266 6.643289 189.038452
v -317.998993 6.708925 190.074051
v -315.652161 6.773733 191.066544
v -313.229675 6.837806 192.013855
v -310.735474 6.901236 192.913895
v -308.173462 6.964117 193.764587
v -305.547607 7.026540 194.563858
v -302.861816 7.088600 195.309616
v -300.120026 7.150389 195.999771
v -297.326172 7.211999 196.632248
v -294.484161 7.273523 197.204956
v -291.597961 7.335055 197.715805
v -288.671478 7.396686 198.162720
v -285.708649 7.458510 198.543625
v -282.713409 7.520619 198.856430
v -279.689697 7.583107 199.099060
v -276.641418 7.646066 199.269409
v -273.572510 7.709588 199.365402
v -270.486938 7.773767 199.384964
v -267.388580 7.838695 199.326004
v -264.281403 7.904465 199.186447
v -261.169312 7.971170 198.964203
v -258.056274 8.038903 198.657196
v -254.946198 8.107757 198.263336
v -251.843002 8.177823 197.780533
v -248.750641 8.249196 197.206711
v -245.673019 8.321967 196.539780
v -242.614105 8.396230 195.777679
v -239.577789 8.472077 194.918289
v -236.568024 8.549602 193.959549
v -233.588730 8.628896 192.899368
v -230.643845 8.710052 191.735672
v -227.737289 8.793165 190.466370
v -224.873001 8.878326 189.089371
v -222.054916 8.965629 187.602600
v -219.286957 9.055164 186.003967
v -216.573059 9.147027 184.291397
v -213.917145 9.241309 182.462814
v -211.323151 9.338103 180.516113
v -208.794998 9.437500 178.449234
v -207.326111 9.495684 177.240677
v -205.820999 9.553037 176.089325
v -204.280045 9.609542 174.993820
v -202.703613 9.665183 173.952805
v -201.092087 9.719942 172.964905
v -199.445831 9.773803 172.028748
v -197.765228 9.826748 171.142975
v -196.050644 9.878760 170.306213
v -194.302460 9.929824 169.517105
v -192.521042 9.979920 168.774277
v -190.706772 10.029034 168.076370
v -188.860016 10.077148 167.422043
v -186.981155 10.124245 166.809875
v -185.070557 10.170306 166.238510
v -183.128601 10.215317 165.706604
v -181.155655 10.259259 165.212784
v -179.152100 10.302116 164.755676
v -177.118317 10.343872 164.333923
v -175.054657 10.384508 163.946152
v -172.961517 10.424008 163.590988
v -170.839264 10.462356 163.267075
v -168.688263 10.499534 162.973053
v -166.508896 10.535524 162.707550
v -164.301544 10.570312 162.469177
v -162.066559 10.603879 162.256607
v -159.804337 10.636208 162.068451
v -157.515244 10.667282 161.903351
v -155.199646 10.697084 161.759933
v -152.857925 10.725598 161.636826
v -150.490463 10.752807 161.532669
v -148.097626 10.778693 161.446106
v -145.679779 10.803240 161.375763
v -143.237305 10.826430 161.320267
v -140.770584 10.848248 161.278259
v -138.279984 10.868674 161.248367
v -135.765869 10.887695 161.229202
v -133.228638 10.905291 161.219437
v -130.668640 10.921445 161.217697
v -128.086258 10.936141 161.222610
v -125.481873 10.949363 161.232803
v -122.855850 10.961092 161.246918
v -120.208572 10.971313 161.263580
v -117.540405 10.980007 161.281433
v -114.851723 10.987159 161.299103
v -112.142906 10.992751 161.315231
v -109.414322 10.996766 161.328445
v -106.666351 10.999187 161.337372
v -103.899376 11.000000 161.340652
v -102.602585 11.000000 161.340652
v -101.220345 11.000000 161.340652
v -99.764862 11.000000 161.340652
v -98.248344 11.000000 161.340652
v -96.682999 11.000000 161.340652
v -95.081032 11.000000 161.340652
v -93.454651 11.000000 161.340652
v -91.816063 11.000000 161.340652
v -90.177475 11.000000 161.340652
v -88.551094 11.000000 161.340652
v -86.949127 11.000000 161.340652
v -85.383751 11.000000 161.340652
v -64.524376 11.000000 161.340652
v -41.711876 11.000000 161.340652
v -18.899374 11.000000 161.340652
v -1.399375 11.000000 143.840652
v 16.100624 11.000000 126.340652
v 33.600624 11.000000 108.840652
v 51.100624 11.000000 91.340652
v 61.850624 11.000000 80.590652
v 72.600624 11.000000 69.840652
v 83.350616 11.000000 59.090652
v 94.100632 11.000000 48.340652
v 94.100632 11.000000 27.715654
v 94.100632 11.000000 7.090654
v 94.100632 11.000000 -13.534346
v 94.100632 11.000000 -34.159348
v 94.100632 11.000000 -54.784348
v 94.100632 11.000000 -75.409348
v 94.100632 11.000000 -96.034348
v 94.100632 11.000000 -116.659348
v 106.100624 11.000000 -128.659348
v 124.225616 11.000000 -128.659348
v 142.350616 11.000000 -128.659348
v 160.475616 11.000000 -128.659348
v 178.600616 11.000000 -128.659348
v 196.725616 11.000000 -128.659348
v 214.850616 11.000000 -128.659348
v 232.975616 11.000000 -128.659348
v 251.100616 11.000000 -128.659348
v 252.104752 11.000000 -127.928596
v 253.108887 11.000000 -127.197845
v 254.113022 11.000000 -126.467094
v 255.117157 11.000000 -125.736343
v 256.121277 11.000000 -125.005592
v 257.125397 11.000000 -124.274841
v 258.129517 11.000000 -123.544090
v 259.133636 11.000000 -122.813339
v 260.137756 11.000000 -122.082588
v 261.141876 11.000000 -121.351837
v 262.145996 11.000000 -120.621086
v 263.150208 11.000000 -119.890366
v 264.154327 11.000000 -119.159622
v 265.158447 11.000000 -118.428879
v 266.162567 11.000000 -117.698128
v 267.166687 11.000000 -116.967377
v 268.170807 11.000000 -116.236626
v 269.174927 11.000000 -115.505875
v 270.179047 11.000000 -114.775124
v 271.183167 11.000000 -114.044373
v 272.187286 11.000000 -113.313622
v 273.191406 11.000000 -112.582870
v 274.195526 11.000000 -111.852119
v 275.199768 11.000000 -111.121376
v 276.200623 11.000000 -110.391541
v 277.194336 11.000000 -109.663681
v 278.180145 11.000000 -108.938011
v 279.157257 11.000000 -108.214760
v 280.124878 11.000000 -107.494141
v 281.082214 11.000000 -106.776367
v 282.028473 11.000000 -106.061668
v 282.962891 11.000000 -105.350258
v 283.884644 11.000000 -104.642357
v 284.792938 11.000000 -103.938187
v 285.687012 11.000000 -103.237961
v 286.566071 11.000000 -102.541901
v 287.429291 11.000000 -101.850227
v 288.275909 11.000000 -101.163162
v 289.105133 11.000000 -100.480919
v 289.916168 11.000000 -99.803726
v 290.708221 11.000000 -99.131798
v 291.480499 11.000000 -98.465347
v 292.232208 11.000000 -97.804604
v 292.962585 11.000000 -97.149780
v 293.670807 11.000000 -96.501099
v 294.356110 11.000000 -95.858780
v 295.017670 11.000000 -95.223038
v 295.654755 11.000000 -94.594101
v 296.027588 10.999017 -94.228386
v 296.455872 10.996085 -93.821457
v 296.937469 10.991229 -93.373871
v 297.470276 10.984474 -92.886192
v 298.052124 10.975844 -92.358986
v 298.680908 10.965365 -91.792824
v 299.354523 10.953062 -91.188263
v 300.070831 10.938959 -90.545868
v 300.827698 10.923081 -89.866211
v 301.622986 10.905454 -89.149849
v 302.454559 10.886101 -88.397354
v 303.320312 10.865048 -87.609283
v 304.218109 10.842320 -86.786209
v 305.145844 10.817943 -85.928688
v 306.101349 10.791940 -85.037285
v 307.082520 10.764337 -84.112572
v 308.087250 10.735158 -83.155106
v 309.113373 10.704429 -82.165451
v 310.158783 10.672174 -81.144173
v 311.221375 10.638418 -80.091843
v 312.298981 10.603187 -79.009018
v 313.389496 10.566504 -77.896263
v 314.490784 10.528397 -76.754150
v 315.600769 10.488888 -75.583229
v 316.717224 10.448003 -74.384079
v 317.838074 10.405766 -73.157265
v 318.961212 10.362204 -71.903343
v 320.084473 10.317339 -70.622879
v 321.205750 10.271198 -69.316437
v 322.322906 10.223805 -67.984589
v 323.433838 10.175186 -66.627892
v 324.536407 10.125365 -65.246910
v 325.628479 10.074368 -63.842213
v 326.707916 10.022218 -62.414364
v 327.772614 9.968941 -60.963924
v 328.820435 9.914560 -59.491463
v 329.849243 9.859104 -57.997540
v 330.856934 9.802595 -56.482723
v 331.841339 9.745059 -54.947575
v 332.800385 9.686521 -53.392662
v 333.731903 9.627005 -51.818546
v 334.633789 9.566536 -50.225796
v 335.503906 9.505139 -48.614971
v 336.340118 9.442840 -46.986641
v 337.140320 9.379663 -45.341366
v 337.902374 9.315632 -43.679714
v 338.624146 9.250773 -42.002247
v 339.303467 9.185113 -40.309532
v 339.952087 9.118673 -38.602509
v 340.582581 9.051479 -36.882359
v 341.194183 8.983558 -35.150017
v 341.786133 8.914932 -33.406410
v 342.357727 8.845628 -31.652472
v 342.908203 8.775670 -29.889130
v 343.436829 8.705083 -28.117315
v 343.942871 8.633892 -26.337959
v 344.425598 8.562122 -24.551991
v 344.884247 8.489799 -22.760338
v 345.318085 8.416945 -20.963934
v 345.726379 8.343586 -19.163708
v 346.108368 8.269749 -17.360588
v 346.463318 8.195457 -15.555508
v 346.790497 8.120736 -13.749395
v 347.089172 8.045610 -11.943181
v 347.358612 7.970105 -10.137795
v 347.598053 7.894244 -8.334168
v 347.806763 7.818054 -6.533230
v 347.984009 7.741558 -4.735910
v 348.129028 7.664783 -2.943139
v 348.241089 7.587751 -1.155847
v 348.319458 7.510490 0.625036
v 348.363403 7.433023 2.398579
v 348.372162 7.355376 4.163853
v 348.345001 7.277574 5.919927
v 348.281189 7.199640 7.665872
v 348.179993 7.121601 9.400757
v 348.040649 7.043481 11.123652
v 347.862427 6.965305 12.833627
v 347.644592 6.887098 14.529752
v 347.386383 6.808885 16.211096
v 347.087097 6.730690 17.876730
v 346.745972 6.652539 19.525723
v 346.362274 6.574457 21.157145
v 345.935211 6.496469 22.770065
v 345.464111 6.418599 24.363556
v 344.948212 6.340872 25.936686
v 344.386780 6.263313 27.488525
v 343.779083 6.185948 29.018143
v 343.124359 6.108800 30.524609
v 342.421875 6.031896 32.006992
v 341.670898 5.955259 33.464363
v 340.870667 5.878915 34.895794
v 340.020477 5.802889 36.300354
v 339.119537 5.727206 37.677109
v 338.167145 5.651890 39.025131
v 337.162598 5.576966 40.343498
v 336.133972 5.501808 41.628906
v 335.109131 5.425788 42.879192
v 334.086945 5.348931 44.095123
v 333.066223 5.271260 45.277462
v 332.045807 5.192801 46.426975
v 331.024506 5.113577 47.544422
v 330.001129 5.033612 48.630566
v 328.974548 4.952932 49.686172
v 327.943573 4.871560 50.712002
v 326.907013 4.789520 51.708820
v 325.863708 4.706837 52.677391
v 324.812439 4.623535 53.618484
v 323.752136 4.539639 54.532848
v 322.681549 4.455173 55.421257
v 321.599548 4.370160 56.284470
v 320.504913 4.284626 57.123249
v 319.396515 4.198594 57.938362
v 318.273163 4.112089 58.730572
v 317.133667 4.025136 59.500641
v 315.976898 3.937757 60.249332
v 314.801636 3.849979 60.977409
v 313.606750 3.761825 61.685635
v 312.391022 3.673319 62.374775
v 311.153320 3.584485 63.045589
v 309.892456 3.495348 63.698845
v 308.607239 3.405933 64.335304
v 307.296539 3.316263 64.955727
v 305.959137 3.226363 65.560883
v 304.593903 3.136257 66.151535
v 303.199615 3.045970 66.728439
v 301.775146 2.955525 67.292366
v 300.319305 2.864947 67.844078
v 298.830902 2.774261 68.384338
v 297.308777 2.683490 68.913910
v 295.751770 2.592658 69.433556
v 294.158722 2.501791 69.944023
v 292.528412 2.410912 70.446106
v 290.859711 2.320046 70.940552
v 289.151428 2.229218 71.428123
v 287.402374 2.138450 71.909592
v 285.611389 2.047768 72.385712
v 283.777313 1.957196 72.857246
v 281.898956 1.866758 73.324966
v 279.975159 1.776478 73.789627
v 278.004730 1.686381 74.251999
v 275.986511 1.596492 74.712845
v 273.919342 1.506833 75.172928
v 271.802032 1.417430 75.633003
v 271.459808 1.403371 75.703346
v 271.082642 1.388280 75.774872
v 270.671143 1.372225 75.847458
v 270.225952 1.355277 75.920998
v 269.747711 1.337505 75.995369
v 269.237030 1.318978 76.070457
v 268.694519 1.299765 76.146156
v 268.120819 1.279936 76.222343
v 267.516541 1.259560 76.298912
v 266.882324 1.238707 76.375740
v 266.218811 1.217446 76.452713
v 265.526611 1.195845 76.529732
v 264.806335 1.173976 76.606659
v 264.058624 1.151907 76.683395
v 263.284119 1.129707 76.759819
v 262.483429 1.107445 76.835815
v 261.657166 1.085191 76.911278
v 260.805969 1.063015 76.986084
v 259.930481 1.040985 77.060127
v 259.031311 1.019171 77.133286
v 258.109100 0.997643 77.205444
v 257.164459 0.976470 77.276497
v 256.197998 0.955720 77.346321
v 255.210388 0.935464 77.414810
v 254.202209 0.915771 77.481842
v 253.174103 0.896710 77.547310
v 252.126709 0.878351 77.611092
v 251.060638 0.860762 77.673073
v 249.976517 0.844014 77.733147
v 248.874985 0.828175 77.791191
v 247.756653 0.813315 77.847099
v 246.622147 0.799504 77.900749
v 245.472107 0.786810 77.952026
v 244.307144 0.775303 78.000824
v 243.127899 0.765052 78.047020
v 241.934967 0.756127 78.090500
v 240.729019 0.748597 78.131157
v 239.510651 0.742531 78.168877
v 238.280502 0.737999 78.203537
v 237.039185 0.735070 78.235031
v 235.787338 0.733814 78.263237
v 234.525574 0.734299 78.288048
v 233.254532 0.736596 78.309341
v 231.974838 0.740773 78.327003
v 230.687103 0.746899 78.340927
v 229.391968 0.755045 78.350990
v 228.090057 0.765280 78.357086
v 226.781982 0.777672 78.359085
v 224.082123 0.826913 78.358734
v 221.384308 0.916700 78.358009
v 218.691772 1.043500 78.356949
v 216.007736 1.203780 78.355583
v 213.335419 1.394007 78.353951
v 210.678040 1.610650 78.352081
v 208.038834 1.850175 78.350014
v 205.421021 2.109050 78.347778
v 202.827835 2.383742 78.345413
v 200.262497 2.670719 78.342957
v 197.728226 2.966447 78.340439
v 195.228271 3.267395 78.337891
v 192.765808 3.570030 78.335350
v 190.344101 3.870819 78.332855
v 187.966354 4.166229 78.330437
v 185.635803 4.452728 78.328125
v 183.355682 4.726783 78.325966
v 181.129196 4.984862 78.323982
v 178.959579 5.223431 78.322220
v 176.850067 5.438959 78.320709
v 174.803864 5.627912 78.319481
v 172.824203 5.786758 78.318573
v 170.914322 5.911965 78.318016
v 169.077454 6.000000 78.317848
v 168.596054 5.946757 78.320709
v 167.997772 5.767366 78.328773
v 167.299316 5.479850 78.341293
v 166.517365 5.102229 78.357529
v 165.668625 4.652524 78.376740
v 164.769806 4.148756 78.398178
v 163.837585 3.608946 78.421104
v 162.888672 3.051115 78.444778
v 161.939758 2.493283 78.468452
v 161.007538 1.953473 78.491379
v 160.108719 1.449705 78.512817
v 159.259979 1.000000 78.532028
v 159.080383 1.000489 78.532173
v 158.704971 1.000914 78.532303
v 158.161713 1.001283 78.532417
v 157.478592 1.001606 78.532516
v 156.683563 1.001892 78.532600
v 155.804611 1.002151 78.532677
v 154.869720 1.002391 78.532753
v 153.906860 1.002622 78.532822
v 152.944000 1.002853 78.532890
v 152.009109 1.003093 78.532967
v 151.130157 1.003351 78.533043
v 150.335144 1.003638 78.533127
v 136.039261 1.005506 78.533684
v 117.267509 1.005899 78.533798
v 98.495758 1.006292 78.533920
v 73.756195 1.004719 78.533447
v 49.016621 1.003146 78.532974
v 24.277052 1.001573 78.532501
v -0.462518 1.000000 78.532028
v -14.212517 1.000000 64.782028
v -27.962517 1.000000 51.032028
v -41.712517 1.000000 37.282028
v -55.462517 1.000000 23.532028
v -55.462517 1.000000 8.532028
v -55.462517 1.000000 -6.467972
v -55.462517 1.000000 -21.467972
v -55.462517 1.000000 -36.467972
v -49.212517 1.000000 -42.717972
v -42.962517 1.000000 -48.967972
v -36.712517 1.000000 -55.217972
v -30.462517 1.000000 -61.467972
v -17.962517 1.000000 -61.467972
v -5.462517 1.000000 -61.467972
v 7.037483 1.000000 -61.467972
l 1 2
l 2 3
l 3 4
l 4 5
l 5 6
l 6 7
l 7 8
l 8 9
l 9 10
l 10 11
l 11 12
l 12 13
l 13 14
l 14 15
l 15 16
l 16 17
l 17 18
l 18 19
l 19 20
l 20 21
l 21 22
l 22 23
l 23 24
l 24 25
l 25 26
l 26 27
l 27 28
l 28 29
l 29 30
l 30 31
l 31 32
l 32 33
l 33 34
l 34 35
l 35 36
l 36 37
l 37 38
l 38 39
l 39 40
l 40 41
l 41 42
l 42 43
l 43 44
l 44 45
l 45 46
l 46 47
l 47 48
l 48 49
l 49 50
l 50 51
l 51 52
l 52 53
l 53 54
l 54 55
l 55 56
l 56 57
l 57 58
l 58 59
l 59 60
l 60 61
l 61 62
l 62 63
l 63 64
l 64 65
l 65 66
l 66 67
l 67 68
l 68 69
l 69 70
l 70 71
l 71 72
l 72 73
l 73 74
l 74 75
l 75 76
l 76 77
l 77 78
l 78 79
l 79 80
l 80 81
l 81 82
l 82 83
l 83 84
l 84 85
l 85 86
l 86 87
l 87 88
l 88 89
l 89 90
l 90 91
l 91 92
l 92 93
l 93 94
l 94 95
l 95 96
l 96 97
l 97 98
l 98 99
l 99 100
l 100 101
l 101 102
l 102 103
l 103 104
l 104 105
l 105 106
l 106 107
l 107 108
l 108 109
l 109 110
l 110 111
l 111 112
l 112 113
l 113 114
l 114 115
l 115 116
l 116 117
l 117 118
l 118 119
l 119 120
l 120 121
l 121 122
l 122 123
l 123 124
l 124 125
l 125 126
l 126 127
l 127 128
l 128 129
l 129 130
l 130 131
l 131 132
l 132 133
l 133 134
l 134 135
l 135 136
l 136 137
l 137 138
l 138 139
l 139 140
l 140 141
l 141 142
l 142 143
l 143 144
l 144 145
l 145 146
l 146 147
l 147 148
l 148 149
l 149 150
l 150 151
l 151 152
l 152 153
l 153 154
l 154 155
l 155 156
l 156 157
l 157 158
l 158 159
l 159 160
l 160 161
l 161 162
l 162 163
l 163 164
l 164 165
l 165 166
l 166 167
l 167 168
l 168 169
l 169 170
l 170 171
l 171 172
l 172 173
l 173 174
l 174 175
l 175 176
l 176 177
l 177 178
l 178 179
l 179 180
l 180 181
l 181 182
l 182 183
l 183 184
l 184 185
l 185 186
l 186 187
l 187 188
l 188 189
l 189 190
l 190 191
l 191 192
l 192 193
l 193 194
l 194 195
l 195 196
l 196 197
l 197 198
l 198 199
l 199 200
l 200 201
l 201 202
l 202 203
l 203 204
l 204 205
l 205 206
l 206 207
l 207 208
l 208 209
l 209 210
l 210 211
l 211 212
l 212 213
l 213 214
l 214 215
l 215 216
l 216 217
l 217 218
l 218 219
l 219 220
l 220 221
l 221 222
l 222 223
l 223 224
l 224 225
l 225 226
l 226 227
l 227 228
l 228 229
l 229 230
l 230 231
l 231 232
l 232 233
l 233 234
l 234 235
l 235 236
l 236 237
l 237 238
l 238 239
l 239 240
l 240 241
l 241 242
l 242 243
l 243 244
l 244 245
l 245 246
l 246 247
l 247 248
l 248 249
l 249 250
l 250 251
l 251 252
l 252 253
l 253 254
l 254 255
l 255 256
l 256 257
l 257 258
l 258 259
l 259 260
l 260 261
l 261 262
l 262 263
l 263 264
l 264 265
l 265 266
l 266 267
l 267 268
l 268 269
l 269 270
l 270 271
l 271 272
l 272 273
l 273 274
l 274 275
l 275 276
l 276 277
l 277 278
l 278 279
l 279 280
l 280 281
l 281 282
l 282 283
l 283 284
l 284 285
l 285 286
l 286 287
l 287 288
l 288 289
l 289 290
l 290 291
l 291 292
l 292 293
l 293 294
l 294 295
l 295 296
l 296 297
l 297 298
l 298 299
l 299 300
l 300 301
l 301 302
l 302 303
l 303 304
l 304 305
l 305 306
l 306 307
l 307 308
l 308 309
l 309 310
l 310 311
l 311 312
l 312 313
l 313 314
l 314 315
l 315 316
l 316 317
l 317 318
l 318 319
l 319 320
l 320 321
l 321 322
l 322 323
l 323 324
l 324 325
l 325 326
l 326 327
l 327 328
l 328 329
l 329 330
l 330 331
l 331 332
l 332 333
l 333 334
l 334 335
l 335 336
l 336 337
l 337 338
l 338 339
l 339 340
l 340 341
l 341 342
l 342 343
l 343 344
l 344 345
l 345 346
l 346 347
l 347 348
l 348 349
l 349 350
l 350 351
l 351 352
l 352 353
l 353 354
l 354 355
l 355 356
l 356 357
l 357 358
l 358 359
l 359 360
l 360 361
l 361 362
l 362 363
l 363 364
l 364 365
l 365 366
l 366 367
l 367 368
l 368 369
l 369 370
l 370 371
l 371 372
l 372 373
l 373 374
l 374 375
l 375 376
l 376 377
l 377 378
l 378 379
l 379 380
l 380 381
l 381 382
l 382 383
l 383 384
l 384 385
l 385 386
l 386 387
l 387 388
l 388 389
l 389 390
l 390 391
l 391 392
l 392 393
l 393 394
l 394 395
l 395 396
l 396 397
l 397 398
l 398 399
l 399 400
l 400 401
l 401 402
l 402 403
l 403 404
l 404 405
l 405 406
l 406 407
l 407 408
l 408 409
l 409 410
l 410 411
l 411 412
l 412 413
l 413 414
l 414 415
l 415 416
l 416 417
l 417 418
l 418 419
l 419 420
l 420 421
l 421 422
l 422 423
l 423 424
l 424 425
l 425 426
l 426 427
l 427 428
l 428 429
l 429 430
l 430 431
l 431 432
l 432 433
l 433 434
l 434 435
l 435 436
l 436 437
l 437 438
l 438 439
l 439 440
l 440 441
l 441 442
l 442 443
l 443 444
l 444 445
l 445 446
l 446 447
l 447 448
l 448 449
l 449 450
l 450 451
l 451 452
l 452 453
l 453 454
l 454 455
l 455 456
l 456 457
l 457 458
l 458 459
l 459 460
l 460 461
l 461 462
l 462 463
l 463 464
l 464 465
l 465 466
l 466 467
l 467 468
l 468 469
l 469 470
l 470 471
l 471 472
l 472 473
l 473 474
l 474 475
l 475 476
l 476 477
l 477 478
l 478 479
l 479 480
l 480 481
l 481 482
l 482 483
l 483 484
l 484 485
l 485 486
l 486 487
l 487 488
l 488 489
l 489 490
l 490 491
l 491 492
l 492 493
l 493 494
l 494 495
l 495 496
l 496 497
l 497 498
l 498 499
l 499 500
l 500 501
l 501 502
l 502 503
l 503 504
l 504 505
l 505 506
l 506 507
l 507 508
l 508 509
l 509 510
l 510 511
l 511 512
l 512 513
l 513 514
l 514 515
l 515 516
l 516 517
l 517 518
l 518 519
l 519 520
l 520 521
l 521 522
l 522 523
l 523 524
l 524 525
l 525 526
l 526 527
l 527 528
l 528 529
l 529 530
l 530 531
l 531 532
l 532 533
l 533 534
l 534 535
l 535 536
l 536 537
l 537 538
l 538 539
l 539 540
l 540 541
l 541 542
l 542 543
l 543 544
l 544 545
l 545 546
l 546 547
l 547 548
l 548 549
l 549 550
l 550 551
l 551 552
l 552 553
l 553 554
l 554 555
l 555 556
l 556 557
l 557 558
l 558 559
l 559 560
l 560 561
l 561 562
l 562 563
l 563 564
l 564 565
l 565 566
l 566 567
l 567 568
l 568 569
l 569 570
l 570 571
l 571 572
l 572 573
l 573 574
l 574 575
l 575 576
l 576 577
l 577 578
l 578 579
l 579 580
l 580 581
l 581 582
l 582 583
l 583 584
l 584 585
l 585 586
l 586 587
l 587 588
l 588 589
l 589 590
l 590 591
l 591 592
l 592 593
l 593 594
l 594 595
l 595 596
l 596 597
l 597 598
l 598 599
l 599 600
l 600 601
l 601 602
l 602 603
l 603 604
l 604 605
l 605 1
