# Blender 4.3.2
# www.blender.org
mtllib heals.mtl
o Heals
v 26.878185 -18.595940 188.138733
v -9.287982 -15.193780 238.975922
v -174.668045 -17.459158 194.235779
v -175.285172 -12.914978 81.467499
v -134.070786 -4.094775 229.975983
v -9.072169 -6.339763 238.918732
v -174.452209 -4.094863 194.178528
v -175.084702 -5.557098 81.454819
v -18.617130 -18.919056 217.520920
v 18.002682 -19.366180 180.583984
v 17.865520 -13.343731 179.147980
v -18.022598 -10.764721 217.169174
v 26.959965 -13.207127 187.701080
v -156.200226 -17.334610 175.041168
v -121.142281 -19.965816 205.189407
v -134.286667 -17.326885 230.033188
v -120.658577 -11.952662 205.059158
v -155.596909 -12.082869 175.001556
vn -0.0349 -0.9986 -0.0400
vn 0.9767 -0.0631 -0.2050
vn -0.6633 0.0140 0.7482
vn 0.3778 0.9258 -0.0141
vn 0.0278 0.9673 -0.2520
vn 0.1186 -0.0375 -0.9922
vn -0.0714 0.0066 0.9974
vn 0.8165 0.0030 0.5773
vn 0.6661 -0.1177 -0.7365
vn 0.0756 -0.9915 0.1062
vn -0.0316 0.9910 -0.1304
vn -0.7186 -0.0641 -0.6925
vn -0.0509 -0.9985 0.0204
vn 0.1830 0.9602 -0.2112
vn 0.6495 -0.0629 -0.7577
vn 0.0011 -0.9907 0.1363
vn -0.9998 0.0201 0.0058
vt 0.000000 0.000000
vt 1.000000 1.000000
vt 0.000000 1.000000
vt 1.000000 0.000000
s 0
usemtl Material.001
f 3/1/1 4/2/1 14/3/1
f 14/1/2 4/4/2 8/2/2 18/3/2
f 3/1/3 16/4/3 5/2/3 7/3/3
f 7/1/4 18/4/4 8/2/4
f 6/1/5 12/4/5 17/2/5 5/3/5
f 9/1/6 15/4/6 17/2/6 12/3/6
f 16/1/7 2/4/7 6/2/7 5/3/7
f 2/1/8 1/4/8 13/2/8 6/3/8
f 13/2/9 1/4/9 10/4/9 11/2/9
f 9/1/10 10/4/10 1/2/10 2/3/10
f 11/1/11 12/4/11 6/2/11 13/3/11
f 9/1/12 12/4/12 11/2/12 10/3/12
f 14/1/13 15/4/13 16/2/13 3/3/13
f 17/1/14 18/4/14 7/2/14 5/3/14
f 17/1/15 15/4/15 14/2/15 18/3/15
f 2/1/16 16/4/16 15/2/16 9/3/16
f 8/2/17 4/4/17 3/4/17 7/2/17
o heal2
v -11.478767 -3.953907 -168.816376
v -11.237734 -9.724194 -134.745255
v 17.164850 -4.652634 -179.554901
v -2.267580 -7.027130 -157.823303
v 6.383366 -0.983368 -190.688080
v 40.509155 -2.904350 -187.074966
v 32.626740 0.131813 -197.536774
v 58.739685 -0.396069 -188.282227
v -11.478767 -11.010094 -168.816376
v -11.395906 -18.559210 -134.855911
v 17.180725 -13.888794 -179.631683
v -2.543528 -15.958261 -157.786880
v 6.383366 -9.358009 -190.688080
v 40.480961 -11.767708 -187.230042
v 32.626740 -8.471710 -197.536774
v 58.697395 -9.600540 -188.437302
vn 0.1008 0.9734 0.2055
vn -0.0058 0.9556 0.2946
vn 0.1297 0.9778 0.1647
vn -0.1869 -0.9522 -0.2417
vn -0.0066 -0.9447 -0.3280
vn -0.2639 -0.9417 -0.2087
vn -0.7745 -0.0000 -0.6325
vn 0.7444 -0.0121 0.6676
vn -0.9999 0.0099 0.0067
vn 0.3320 0.0074 -0.9433
vn 0.3092 -0.0124 0.9509
vn -0.2525 -0.0000 -0.9676
vn 0.9331 -0.0243 0.3587
vn 0.0683 -0.0174 0.9975
vt 0.000000 0.000000
s 0
usemtl Material.001
f 21/5/18 23/5/18 19/5/18 22/5/18
f 23/5/19 21/5/19 24/5/19 26/5/19 25/5/19
f 20/5/20 22/5/20 19/5/20
f 29/5/21 30/5/21 27/5/21 31/5/21
f 31/5/22 33/5/22 34/5/22 32/5/22 29/5/22
f 28/5/23 27/5/23 30/5/23
f 19/5/24 23/5/24 31/5/24 27/5/24
f 21/5/25 22/5/25 30/5/25 29/5/25
f 20/5/26 19/5/26 27/5/26 28/5/26
f 25/5/27 26/5/27 34/5/27 33/5/27
f 24/5/28 21/5/28 29/5/28 32/5/28
f 23/5/29 25/5/29 33/5/29 31/5/29
f 22/5/30 20/5/30 28/5/30 30/5/30
f 26/5/31 24/5/31 32/5/31 34/5/31
