# Blender 5.0.1
# www.blender.org
mtllib tracks.mtl
o Healzone_Tracks.001
v 223.935303 1.000000 -73.305038
v 223.935303 -1.000000 -73.305038
v 199.935303 1.000000 -49.305035
v 199.935303 -1.000000 -49.305035
v 229.935303 -1.000000 -49.305035
v 229.935303 1.000000 -49.305035
v 229.935303 -1.000000 -73.305038
v 229.935303 1.000000 -73.305038
vn -0.0000 1.0000 -0.0000
vn -0.7071 -0.0000 -0.7071
vn -0.0000 -0.0000 -1.0000
vn -0.0000 -0.0000 1.0000
vn -0.0000 -1.0000 -0.0000
vn 1.0000 -0.0000 -0.0000
vt 0.000000 0.000000
vt 0.625000 0.750000
vt 0.375000 0.750000
s 0
usemtl TrackMaterial
f 6/1/1 8/1/1 1/1/1 3/1/1
f 2/1/2 4/1/2 3/1/2 1/1/2
f 8/1/3 7/1/3 2/1/3 1/1/3
f 5/1/4 6/1/4 3/1/4 4/1/4
f 7/1/5 5/1/5 4/1/5 2/1/5
f 7/1/6 8/1/6 6/1/6 5/1/6
o Healzone_Tracks.002
v 295.935303 1.000000 -125.305038
v 295.935303 -1.000000 -125.305038
v 319.935303 -1.000000 -125.305038
v 319.935303 1.000000 -125.305038
v 295.935303 1.000000 -145.305038
v 295.935303 -1.000000 -145.305038
v 319.935303 -1.000000 -169.305038
v 319.935303 1.000000 -169.305038
vn -0.0000 -0.0000 1.0000
vn 1.0000 -0.0000 -0.0000
vn -0.7071 -0.0000 -0.7071
vn -0.0000 -1.0000 -0.0000
vn -0.0000 1.0000 -0.0000
vn -1.0000 -0.0000 -0.0000
vt 0.000000 0.000000
vt 0.625000 0.750000
vt 0.375000 0.750000
s 0
usemtl TrackMaterial
f 9/2/7 10/2/7 11/2/7 12/2/7
f 12/2/8 11/2/8 15/2/8 16/2/8
f 14/2/9 13/2/9 16/2/9 15/2/9
f 11/2/10 10/2/10 14/2/10 15/2/10
f 9/2/11 12/2/11 16/2/11 13/2/11
f 10/2/12 9/2/12 13/2/12 14/2/12
o Healzone_Tracks.003
v 45.080406 -1.000000 -221.452911
v 45.080406 1.000000 -221.452911
v 45.080406 -1.000000 -197.452911
v 45.080406 1.000000 -197.452911
v 25.080414 1.000000 -221.452911
v 25.080414 -1.000000 -221.452911
v 25.080414 1.000000 -197.452911
v 25.080414 -1.000000 -197.452911
vn -0.0000 -0.0000 -1.0000
vn -0.0000 1.0000 -0.0000
vn -0.0000 -1.0000 -0.0000
vn -0.0000 -0.0000 1.0000
vn 1.0000 -0.0000 -0.0000
vn -1.0000 -0.0000 -0.0000
vt 0.625000 0.750000
vt 0.375000 0.750000
vt 0.000000 0.000000
s 0
usemtl TrackMaterial
f 18/3/13 17/4/13 22/4/13 21/3/13
f 20/5/14 18/3/14 21/3/14 23/5/14
f 17/4/15 19/5/15 24/5/15 22/4/15
f 20/5/16 23/5/16 24/5/16 19/5/16
f 17/4/17 18/3/17 20/5/17 19/5/17
f 23/5/18 21/3/18 22/4/18 24/5/18
o Healzone_Tracks.004
v -92.919586 1.000000 -190.452942
v -92.919586 -1.000000 -190.452942
v -74.919586 1.000000 -172.452927
v -74.919586 -1.000000 -172.452927
v -167.919586 1.000000 -115.452942
v -167.919586 -1.000000 -115.452942
v -149.919586 1.000000 -97.452927
v -149.919586 -1.000000 -97.452927
vn -0.0000 1.0000 -0.0000
vn -0.7071 -0.0000 -0.7071
vn -0.0000 -1.0000 -0.0000
vn 0.7071 -0.0000 0.7071
vn 0.7071 -0.0000 -0.7071
vn -0.7071 -0.0000 0.7071
vt 0.000000 0.000000
vt 0.625000 0.750000
vt 0.375000 0.750000
s 0
usemtl TrackMaterial
f 27/6/19 25/7/19 29/7/19 31/6/19
f 25/7/20 26/8/20 30/8/20 29/7/20
f 26/8/21 28/6/21 32/6/21 30/8/21
f 28/6/22 27/6/22 31/6/22 32/6/22
f 28/6/23 26/8/23 25/7/23 27/6/23
f 31/6/24 29/7/24 30/8/24 32/6/24
o Healzone_Tracks.005
v -218.919586 1.000000 -23.452927
v -218.919586 -1.000000 -23.452927
v -194.919586 1.000000 -23.452911
v -194.919586 -1.000000 -23.452911
v -218.919586 1.000000 -15.452927
v -218.919586 -1.000000 -15.452927
v -194.919586 1.000000 -3.452911
v -194.919586 -1.000000 -3.452911
v -200.766113 1.000000 2.393612
v -200.766113 -1.000000 2.393612
v -236.766144 -1.000000 2.393612
v -236.766144 1.000000 2.393612
vn -0.0000 1.0000 -0.0000
vn -0.0000 -0.0000 -1.0000
vn -0.0000 -1.0000 -0.0000
vn -1.0000 -0.0000 -0.0000
vn 1.0000 -0.0000 -0.0000
vn 0.7071 -0.0000 0.7071
vn -0.7071 -0.0000 -0.7071
vn -0.0000 -0.0000 1.0000
vt 0.000000 0.000000
vt 0.625000 0.750000
vt 0.375000 0.750000
s 0
usemtl TrackMaterial
f 35/9/25 33/10/25 37/10/25 39/9/25
f 35/9/26 36/9/26 34/11/26 33/10/26
f 43/11/27 38/11/27 40/9/27 42/9/27
f 33/10/28 34/11/28 38/11/28 37/10/28
f 34/11/27 36/9/27 40/9/27 38/11/27
f 36/9/29 35/9/29 39/9/29 40/9/29
f 42/9/30 40/9/30 39/9/30 41/9/30
f 41/9/25 39/9/25 37/10/25 44/10/25
f 44/10/31 37/10/31 38/11/31 43/11/31
f 44/10/32 43/11/32 42/11/32 41/10/32
o Healzone_Tracks.006
v 61.871758 9.000000 101.339569
v 61.871758 11.000000 101.339569
v 61.871758 11.000000 65.339569
v 61.871758 9.000000 65.339569
v 85.871758 9.000000 77.339569
v 85.871758 11.000000 77.339569
v 67.871758 11.000000 59.339569
v 67.871758 9.000000 59.339569
vn -1.0000 -0.0000 -0.0000
vn -0.0000 -1.0000 -0.0000
vn -0.0000 1.0000 -0.0000
vn -0.7071 -0.0000 -0.7071
vn 0.7071 -0.0000 0.7071
vn 0.7071 -0.0000 -0.7071
vt 0.000000 0.000000
s 0
usemtl TrackMaterial
f 46/12/33 47/12/33 48/12/33 45/12/33
f 45/12/34 48/12/34 52/12/34 49/12/34
f 47/12/35 46/12/35 50/12/35 51/12/35
f 51/12/36 52/12/36 48/12/36 47/12/36
f 46/12/37 45/12/37 49/12/37 50/12/37
f 52/12/38 51/12/38 50/12/38 49/12/38
o Healzone_Tracks.007
v 107.084969 11.000000 -75.873627
v 107.084969 9.000000 -75.873627
v 83.084969 11.000000 -75.873627
v 83.084969 9.000000 -75.873627
v 107.084969 9.000000 -111.624481
v 107.084969 11.000000 -111.624481
v 83.084969 11.000000 -87.624496
v 83.084969 9.000000 -87.624496
vn 1.0000 -0.0000 -0.0000
vn -0.0000 -1.0000 -0.0000
vn -0.0000 1.0000 -0.0000
vn -1.0000 -0.0000 -0.0000
vn -0.7071 -0.0000 -0.7071
vn -0.0000 -0.0000 1.0000
vt 0.000000 0.000000
vt 0.625000 0.750000
vt 0.375000 0.750000
s 0
usemtl TrackMaterial
f 53/13/39 54/13/39 57/13/39 58/13/39
f 54/13/40 56/13/40 60/13/40 57/13/40
f 59/13/41 55/13/41 53/13/41 58/13/41
f 56/13/42 55/13/42 59/13/42 60/13/42
f 58/14/43 57/15/43 60/15/43 59/14/43
f 56/13/44 54/13/44 53/13/44 55/13/44
