# Blender 5.0.1
# www.blender.org
mtllib heals.mtl
o Healzone.003
v 85.871758 9.000000 77.339569
v 85.871758 11.000000 77.339569
v 67.871758 11.000000 59.339569
v 67.871758 9.000000 59.339569
v 107.084969 11.000000 56.126366
v 107.084969 9.000000 56.126366
v 83.084969 11.000000 44.126366
v 83.084969 9.000000 44.126366
v 107.084969 11.000000 -75.873627
v 107.084969 9.000000 -75.873627
v 83.084969 11.000000 -75.873627
v 83.084969 9.000000 -75.873627
vn -0.0000 -1.0000 -0.0000
vn -1.0000 -0.0000 -0.0000
vn -0.0000 1.0000 -0.0000
vn -0.7071 -0.0000 -0.7071
vn 0.7071 -0.0000 0.7071
vn 1.0000 -0.0000 -0.0000
vn -0.7071 -0.0000 0.7071
vn -0.0000 -0.0000 -1.0000
vt 0.000000 0.000000
s 0
usemtl HealMaterial
f 1/1/1 4/1/1 8/1/1 6/1/1
f 8/1/2 7/1/2 11/1/2 12/1/2
f 3/1/3 2/1/3 5/1/3 7/1/3
f 4/1/4 3/1/4 7/1/4 8/1/4
f 2/1/5 1/1/5 6/1/5 5/1/5
f 5/1/6 6/1/6 10/1/6 9/1/6
f 6/1/1 8/1/1 12/1/1 10/1/1
f 7/1/3 5/1/3 9/1/3 11/1/3
f 4/1/7 1/1/7 2/1/7 3/1/7
f 12/1/8 11/1/8 9/1/8 10/1/8
o Healzone.001
v 291.935303 -1.000000 -49.305035
v 291.935303 1.000000 -49.305035
v 279.935303 1.000000 -73.305038
v 279.935303 -1.000000 -73.305038
v 319.935303 1.000000 -77.305038
v 319.935303 -1.000000 -77.305038
v 295.935303 1.000000 -89.305038
v 295.935303 -1.000000 -89.305038
v 319.935303 1.000000 -125.305038
v 319.935303 -1.000000 -125.305038
v 295.935303 1.000000 -125.305038
v 295.935303 -1.000000 -125.305038
v 229.935303 -1.000000 -49.305035
v 229.935303 1.000000 -49.305035
v 229.935303 1.000000 -73.305038
v 229.935303 -1.000000 -73.305038
vn -0.0000 -1.0000 -0.0000
vn -1.0000 -0.0000 -0.0000
vn -0.0000 1.0000 -0.0000
vn -0.7071 -0.0000 -0.7071
vn 0.7071 -0.0000 0.7071
vn 1.0000 -0.0000 -0.0000
vn -0.0000 -0.0000 -1.0000
vn -0.0000 -0.0000 1.0000
vt 0.000000 0.000000
s 0
usemtl HealMaterial
f 13/2/9 16/2/9 20/2/9 18/2/9
f 20/2/10 19/2/10 23/2/10 24/2/10
f 15/2/11 14/2/11 17/2/11 19/2/11
f 16/2/12 15/2/12 19/2/12 20/2/12
f 14/2/13 13/2/13 18/2/13 17/2/13
f 17/2/14 18/2/14 22/2/14 21/2/14
f 18/2/9 20/2/9 24/2/9 22/2/9
f 19/2/11 17/2/11 21/2/11 23/2/11
f 15/2/15 16/2/15 28/2/15 27/2/15
f 24/2/15 23/2/15 21/2/15 22/2/15
f 28/2/10 25/2/10 26/2/10 27/2/10
f 16/2/9 13/2/9 25/2/9 28/2/9
f 13/2/16 14/2/16 26/2/16 25/2/16
f 14/2/11 15/2/11 27/2/11 26/2/11
o Healzone.002
v -74.919586 -1.000000 -172.452927
v -74.919586 1.000000 -172.452927
v -92.919586 1.000000 -190.452942
v -92.919586 -1.000000 -190.452942
v -49.919586 1.000000 -197.452911
v -49.919586 -1.000000 -197.452911
v -61.919586 1.000000 -221.452911
v -61.919586 -1.000000 -221.452911
v 25.080414 1.000000 -197.452911
v 25.080414 -1.000000 -197.452911
v 25.080414 1.000000 -221.452911
v 25.080414 -1.000000 -221.452911
v -194.919586 -1.000000 -23.452911
v -194.919586 1.000000 -23.452911
v -218.919586 1.000000 -23.452927
v -218.919586 -1.000000 -23.452927
v -194.919586 1.000000 -52.452915
v -194.919586 -1.000000 -52.452915
v -218.919586 1.000000 -64.452927
v -218.919586 -1.000000 -64.452927
v -149.919586 1.000000 -97.452927
v -149.919586 -1.000000 -97.452927
v -167.919586 1.000000 -115.452942
v -167.919586 -1.000000 -115.452942
vn -0.0000 -1.0000 -0.0000
vn -0.0000 -0.0000 -1.0000
vn -0.0000 1.0000 -0.0000
vn -0.7071 -0.0000 -0.7071
vn 0.7071 -0.0000 0.7071
vn -0.0000 -0.0000 1.0000
vn -0.7071 -0.0000 0.7071
vn 1.0000 -0.0000 -0.0000
vn -1.0000 -0.0000 -0.0000
vn 0.7071 -0.0000 -0.7071
vt 0.000000 0.000000
s 0
usemtl HealMaterial
f 29/3/17 32/3/17 36/3/17 34/3/17
f 36/3/18 35/3/18 39/3/18 40/3/18
f 31/3/19 30/3/19 33/3/19 35/3/19
f 32/3/20 31/3/20 35/3/20 36/3/20
f 30/3/21 29/3/21 34/3/21 33/3/21
f 33/3/22 34/3/22 38/3/22 37/3/22
f 34/3/17 36/3/17 40/3/17 38/3/17
f 35/3/19 33/3/19 37/3/19 39/3/19
f 32/3/23 29/3/23 30/3/23 31/3/23
f 40/3/24 39/3/24 37/3/24 38/3/24
f 41/3/17 44/3/17 48/3/17 46/3/17
f 48/3/20 47/3/20 51/3/20 52/3/20
f 43/3/19 42/3/19 45/3/19 47/3/19
f 44/3/25 43/3/25 47/3/25 48/3/25
f 42/3/24 41/3/24 46/3/24 45/3/24
f 45/3/21 46/3/21 50/3/21 49/3/21
f 46/3/17 48/3/17 52/3/17 50/3/17
f 47/3/19 45/3/19 49/3/19 51/3/19
f 44/3/22 41/3/22 42/3/22 43/3/22
f 52/3/26 51/3/26 49/3/26 50/3/26
