# Blender 4.3.2
# www.blender.org
mtllib killGround.mtl
o Plane
v 358.391205 -2.321716 419.306396
v -224.835403 -2.321672 419.306366
v -224.835373 -2.321672 -408.310028
v 129.913910 -2.321699 419.306366
v 358.391235 -2.321716 -91.737297
v 129.913940 -2.321699 -408.310028
v -224.835388 -2.321672 -91.737320
v 129.913925 -2.321699 -91.737305
v 358.391235 -2.321716 -250.023636
v 129.913940 -2.321699 -250.023651
v 129.913910 -5.713012 419.306366
v 358.391205 -5.713029 419.306396
v 129.913940 -5.713012 -408.310028
v -224.835373 -5.712985 -408.310028
v -224.835388 -5.712985 -91.737320
v -224.835403 -5.712985 419.306366
v 358.391235 -5.713029 -91.737297
v 129.913925 -5.713012 -91.737305
v 129.913940 -5.713012 -250.023651
v 358.391235 -5.713029 -250.023636
vn -0.0000 1.0000 -0.0000
vn -0.0000 -1.0000 -0.0000
vn -1.0000 -0.0000 -0.0000
vn -0.0000 -0.0000 -1.0000
vn 1.0000 -0.0000 -0.0000
vn -0.0000 -0.0000 1.0000
vt 0.500000 0.500000
vt 0.750000 0.500000
vt 1.000000 0.500000
vt 1.000000 1.000000
vt 0.500000 1.000000
vt 0.000000 0.500000
vt 0.000000 1.000000
vt 0.000000 0.000000
vt 0.500000 0.000000
vt 0.750000 0.000000
s 1
usemtl killPlane
f 8/1/1 10/2/1 6/3/1 3/4/1 7/5/1
f 4/6/1 8/1/1 7/5/1 2/7/1
f 1/8/1 5/9/1 8/1/1 4/6/1
f 5/9/1 9/10/1 10/2/1 8/1/1
f 18/1/2 15/5/2 14/4/2 13/3/2 19/2/2
f 11/6/2 16/7/2 15/5/2 18/1/2
f 12/8/2 11/6/2 18/1/2 17/9/2
f 17/9/2 18/1/2 19/2/2 20/10/2
f 3/4/3 14/4/3 15/5/3 7/5/3
f 9/10/4 20/10/4 19/2/4 10/2/4
f 7/5/3 15/5/3 16/7/3 2/7/3
f 5/9/5 17/9/5 20/10/5 9/10/5
f 2/7/6 16/7/6 11/6/6 4/6/6
f 4/6/6 11/6/6 12/8/6 1/8/6
f 1/8/5 12/8/5 17/9/5 5/9/5
f 10/2/5 19/2/5 13/3/5 6/3/5
f 6/3/4 13/3/4 14/4/4 3/4/4
