# Blender 4.3.2
# www.blender.org
mtllib mainTrack.mtl
o Track
v 49.305035 -1.000002 -24.064690
v 49.305035 0.999998 -24.064690
v 73.305038 -1.000003 -36.064690
v 73.305038 0.999997 -36.064690
v 49.305035 -0.999985 199.935303
v 49.305035 1.000015 199.935303
v 73.305038 -0.999986 187.935303
v 73.305038 1.000014 187.935303
v 181.305054 1.000022 295.935303
v 181.305054 -0.999978 295.935303
v 169.305038 -0.999976 319.935303
v 169.305038 1.000024 319.935303
v 261.452942 1.000022 295.935303
v 261.452942 -0.999978 295.935303
v 273.452942 -0.999976 319.935303
v 273.452942 1.000024 319.935303
v 269.452911 1.000022 287.935303
v 269.452911 -0.999978 287.935303
v 293.452911 -0.999977 299.935303
v 293.452911 1.000023 299.935303
v 269.452911 1.000010 129.080414
v 269.452911 -0.999990 129.080414
v 293.452911 -0.999991 117.080406
v 293.452911 1.000009 117.080406
v 209.452911 1.000005 69.080406
v 209.452911 -0.999995 69.080406
v 221.452911 -0.999997 45.080406
v 221.452911 1.000003 45.080406
v 133.606400 1.000005 69.080406
v 133.606400 -0.999995 69.080406
v 145.606400 -0.999997 45.080406
v 145.606400 1.000003 45.080406
v 83.606400 1.000001 19.080421
v 83.606400 -0.999999 19.080421
v 107.606400 -0.999999 7.080421
v 107.606400 1.000000 7.080421
v 83.606400 0.999995 -60.919579
v 83.606400 -1.000005 -60.919579
v 107.606400 -1.000005 -72.919579
v 107.606400 0.999995 -72.919579
v -26.393612 0.999987 -170.919586
v -26.393612 -1.000013 -170.919586
v -2.393612 -1.000014 -182.919586
v -2.393612 0.999986 -182.919586
v -26.393612 0.999980 -270.919586
v -26.393612 -1.000021 -270.919586
v -2.393612 -1.000021 -282.919586
v -2.393612 0.999979 -282.919586
v -75.850174 0.995324 -321.946655
v -75.850174 -0.004676 -321.946655
v -58.880283 -0.004678 -338.917908
v -58.880283 0.995322 -338.917908
v 41.305035 -1.000005 -68.064690
v 29.305038 -1.000003 -44.064690
v 29.305038 0.999997 -44.064690
v 41.305035 0.999995 -68.064690
v -30.321350 -1.000005 -68.064690
v -18.321346 -1.000003 -44.064690
v -18.321346 0.999997 -44.064690
v -30.321350 0.999995 -68.064690
v -90.321350 -1.000001 -8.064690
v -66.321350 -1.000000 3.935310
v -66.321350 1.000000 3.935310
v -90.321350 0.999999 -8.064690
v -90.321350 -0.999987 166.209564
v -66.321350 -0.999987 166.209564
v -66.321350 1.000013 166.209564
v -90.321350 1.000013 166.209564
v -173.339569 9.999992 -104.128250
v -173.339569 10.999992 -104.128250
v -149.339569 9.999992 -104.128250
v -149.339569 10.999992 -104.128250
v -173.339569 8.999999 -10.128251
v -173.339569 10.999999 -10.128251
v -149.339569 8.999998 -22.128250
v -149.339569 10.999998 -22.128250
v -89.339569 11.000003 37.871750
v -89.339569 9.000003 37.871750
v -101.339569 9.000005 61.871758
v -101.339569 11.000005 61.871758
v 78.411270 11.000003 37.871750
v 78.411270 9.000003 37.871750
v 66.411270 9.000005 61.871758
v 66.411270 11.000005 61.871758
v 140.411285 11.000008 99.871758
v 140.411285 9.000008 99.871758
v 116.411285 9.000009 111.871758
v 116.411285 11.000009 111.871758
v 140.411285 11.000019 257.742188
v 140.411285 9.000019 257.742188
v 116.411285 9.000018 245.742188
v 116.411285 11.000018 245.742188
v 103.767212 11.003538 303.426636
v 103.767212 10.003538 303.426636
v 86.809387 10.003540 286.443359
v 86.809387 11.003540 286.443359
vn -0.7071 -0.0000 0.7071
vn 1.0000 -0.0000 -0.0000
vn -0.0000 1.0000 -0.0000
vn -1.0000 -0.0000 -0.0000
vn -0.0000 -1.0000 -0.0000
vn -0.0000 -0.0000 1.0000
vn 0.7071 -0.0000 -0.7071
vn 0.7071 -0.0000 0.7071
vn -0.0000 -0.0000 -1.0000
vn -0.7071 -0.0000 -0.7071
vn -0.0101 -0.9999 -0.0048
vn -0.0002 -1.0000 -0.0004
vn -0.7181 -0.0000 0.6960
vn 0.7040 -0.0000 -0.7102
vn -0.0067 -0.9999 -0.0114
vn 0.0039 -1.0000 -0.0061
vn -0.0041 -0.9999 -0.0110
vn -0.0000 -0.9999 -0.0122
vn -0.0052 -0.9999 -0.0103
vn -0.0000 1.0000 -0.0001
vn -0.7076 -0.0000 0.7066
vn 0.7801 -0.0000 0.6257
vn -0.8087 -0.0000 -0.5882
vn -0.0130 -0.9998 0.0146
vn -0.0089 -0.9998 0.0155
vn -0.0143 -0.9998 0.0143
vn -0.0099 -0.9999 -0.0099
vn 0.0001 1.0000 -0.0001
vn -0.0078 -0.9998 0.0157
vt 0.625000 1.000000
vt 0.375000 1.000000
vt 0.625000 0.250000
vt 0.375000 0.500000
vt 0.375000 0.250000
vt 0.625000 0.500000
vt 0.625000 0.750000
vt 0.375000 0.750000
vt 0.125000 0.750000
vt 0.125000 0.500000
vt 0.875000 0.750000
vt 0.875000 0.500000
vt 0.625000 0.000000
vt 0.375000 0.000000
s 1
usemtl TrackMaterial.001
f 2/1/1 54/2/1 1/2/1
f 4/3/2 7/4/2 3/5/2
f 8/6/3 12/7/3 9/6/3
f 6/7/4 1/2/4 5/8/4
f 7/4/5 1/9/5 3/10/5
f 8/6/3 2/11/3 6/7/3
f 11/8/6 16/7/6 12/7/6
f 8/6/7 10/4/7 7/4/7
f 5/8/1 12/7/1 6/7/1
f 7/4/5 11/8/5 5/8/5
f 15/8/8 20/7/8 16/7/8
f 10/4/5 15/8/5 11/8/5
f 12/7/3 13/6/3 9/6/3
f 9/6/9 14/4/9 10/4/9
f 19/8/2 24/7/2 20/7/2
f 14/4/5 19/8/5 15/8/5
f 13/6/3 20/7/3 17/6/3
f 13/6/10 18/4/10 14/4/10
f 24/7/3 25/6/3 21/6/3
f 18/4/5 23/8/5 19/8/5
f 20/7/3 21/6/3 17/6/3
f 17/6/4 22/4/4 18/4/4
f 32/7/3 25/6/3 28/7/3
f 21/6/1 26/4/1 22/4/1
f 23/8/7 28/7/7 24/7/7
f 22/4/5 27/8/5 23/8/5
f 30/4/5 35/8/5 31/8/5
f 25/6/6 30/4/6 26/4/6
f 36/7/3 37/6/3 33/6/3
f 32/7/3 33/6/3 29/6/3
f 29/6/1 34/4/1 30/4/1
f 31/8/7 36/7/7 32/7/7
f 39/8/7 44/7/7 40/7/7
f 33/6/4 38/4/4 34/4/4
f 35/8/2 40/7/2 36/7/2
f 35/8/5 38/4/5 39/8/5
f 44/7/3 45/6/3 41/6/3
f 38/4/5 43/8/5 39/8/5
f 37/6/3 44/7/3 41/6/3
f 37/6/1 42/4/1 38/4/1
f 45/6/3 52/7/3 49/6/3
f 41/6/4 46/4/4 42/4/4
f 43/8/2 48/7/2 44/7/2
f 43/8/5 46/4/11 47/8/12
f 49/6/10 51/8/10 50/4/10
f 45/6/13 50/4/13 46/4/13
f 48/7/14 51/8/14 52/7/14
f 46/4/11 51/8/15 47/8/12
f 54/9/5 57/10/5 53/10/5
f 4/12/3 55/11/3 2/11/3
f 1/9/5 53/10/5 3/10/5
f 3/5/7 56/3/7 4/3/7
f 57/5/10 64/3/10 60/3/10
f 53/5/9 60/3/9 56/3/9
f 55/1/6 58/2/6 54/2/6
f 56/12/3 59/11/3 55/11/3
f 63/11/3 68/12/3 67/11/3
f 59/1/8 62/2/8 58/2/8
f 60/12/3 63/11/3 59/11/3
f 58/9/5 61/10/5 57/10/5
f 67/13/6 65/5/6 66/14/6
f 62/9/5 65/10/5 61/10/5
f 61/5/4 68/3/4 64/3/4
f 63/1/2 66/2/2 62/2/2
f 26/4/5 31/8/5 27/8/5
f 31/8/9 28/7/9 27/8/9
f 70/13/9 71/5/9 69/14/9
f 71/5/2 76/6/2 75/4/2
f 76/6/3 80/7/3 77/6/3
f 74/7/4 69/2/4 73/8/4
f 75/4/16 69/9/17 71/10/18
f 76/6/3 70/11/3 74/7/3
f 77/6/3 84/7/3 81/6/3
f 76/6/7 78/4/7 75/4/7
f 73/8/1 80/7/1 74/7/1
f 75/4/16 79/8/5 73/8/19
f 83/8/1 88/7/1 84/7/1
f 77/6/9 82/4/9 78/4/9
f 79/8/6 84/7/6 80/7/6
f 78/4/5 83/8/5 79/8/5
f 88/7/3 89/6/3 85/6/3
f 82/4/5 87/8/5 83/8/5
f 84/7/3 85/6/3 81/6/3
f 81/6/7 86/4/7 82/4/7
f 92/7/3 93/6/20 89/6/3
f 85/6/2 90/4/2 86/4/2
f 87/8/4 92/7/4 88/7/4
f 86/4/5 91/8/5 87/8/5
f 93/6/21 95/8/21 94/4/21
f 89/6/22 94/4/22 90/4/22
f 92/7/23 95/8/23 96/7/23
f 91/8/24 94/4/25 95/8/26
f 2/1/1 55/1/1 54/2/1
f 4/3/2 8/6/2 7/4/2
f 8/6/3 6/7/3 12/7/3
f 6/7/4 2/1/4 1/2/4
f 7/4/5 5/8/5 1/9/5
f 8/6/3 4/12/3 2/11/3
f 11/8/6 15/8/6 16/7/6
f 8/6/7 9/6/7 10/4/7
f 5/8/1 11/8/1 12/7/1
f 7/4/5 10/4/5 11/8/5
f 15/8/8 19/8/8 20/7/8
f 10/4/5 14/4/5 15/8/5
f 12/7/3 16/7/3 13/6/3
f 9/6/9 13/6/9 14/4/9
f 19/8/2 23/8/2 24/7/2
f 14/4/5 18/4/5 19/8/5
f 13/6/3 16/7/3 20/7/3
f 13/6/10 17/6/10 18/4/10
f 24/7/3 28/7/3 25/6/3
f 18/4/5 22/4/5 23/8/5
f 20/7/3 24/7/3 21/6/3
f 17/6/4 21/6/4 22/4/4
f 32/7/3 29/6/3 25/6/3
f 21/6/1 25/6/1 26/4/1
f 23/8/7 27/8/7 28/7/7
f 22/4/5 26/4/5 27/8/5
f 30/4/5 34/4/5 35/8/5
f 25/6/6 29/6/6 30/4/6
f 36/7/3 40/7/3 37/6/3
f 32/7/3 36/7/3 33/6/3
f 29/6/1 33/6/1 34/4/1
f 31/8/7 35/8/7 36/7/7
f 39/8/7 43/8/7 44/7/7
f 33/6/4 37/6/4 38/4/4
f 35/8/2 39/8/2 40/7/2
f 35/8/5 34/4/5 38/4/5
f 44/7/3 48/7/3 45/6/3
f 38/4/5 42/4/5 43/8/5
f 37/6/3 40/7/3 44/7/3
f 37/6/1 41/6/1 42/4/1
f 45/6/3 48/7/3 52/7/3
f 41/6/4 45/6/4 46/4/4
f 43/8/2 47/8/2 48/7/2
f 43/8/5 42/4/5 46/4/11
f 49/6/10 52/7/10 51/8/10
f 45/6/13 49/6/13 50/4/13
f 48/7/14 47/8/14 51/8/14
f 46/4/11 50/4/27 51/8/15
f 54/9/5 58/9/5 57/10/5
f 4/12/3 56/12/3 55/11/3
f 1/9/5 54/9/5 53/10/5
f 3/5/7 53/5/7 56/3/7
f 57/5/10 61/5/10 64/3/10
f 53/5/9 57/5/9 60/3/9
f 55/1/6 59/1/6 58/2/6
f 56/12/3 60/12/3 59/11/3
f 63/11/3 64/12/3 68/12/3
f 59/1/8 63/1/8 62/2/8
f 60/12/3 64/12/3 63/11/3
f 58/9/5 62/9/5 61/10/5
f 67/13/6 68/3/6 65/5/6
f 62/9/5 66/9/5 65/10/5
f 61/5/4 65/5/4 68/3/4
f 63/1/2 67/1/2 66/2/2
f 26/4/5 30/4/5 31/8/5
f 31/8/9 32/7/9 28/7/9
f 70/13/9 72/3/9 71/5/9
f 71/5/2 72/3/2 76/6/2
f 76/6/3 74/7/3 80/7/3
f 74/7/4 70/1/4 69/2/4
f 75/4/16 73/8/19 69/9/17
f 76/6/3 72/12/3 70/11/3
f 77/6/3 80/7/3 84/7/3
f 76/6/7 77/6/7 78/4/7
f 73/8/1 79/8/1 80/7/1
f 75/4/16 78/4/5 79/8/5
f 83/8/1 87/8/1 88/7/1
f 77/6/9 81/6/9 82/4/9
f 79/8/6 83/8/6 84/7/6
f 78/4/5 82/4/5 83/8/5
f 88/7/3 92/7/3 89/6/3
f 82/4/5 86/4/5 87/8/5
f 84/7/3 88/7/3 85/6/3
f 81/6/7 85/6/7 86/4/7
f 92/7/3 96/7/28 93/6/20
f 85/6/2 89/6/2 90/4/2
f 87/8/4 91/8/4 92/7/4
f 86/4/5 90/4/5 91/8/5
f 93/6/21 96/7/21 95/8/21
f 89/6/22 93/6/22 94/4/22
f 92/7/23 91/8/23 95/8/23
f 91/8/24 90/4/29 94/4/25
