# Blender 5.0.1
# www.blender.org
mtllib plane.mtl
o Cube
v -0.878339 -1.000000 101.543457
v 24.626978 -1.000000 101.543457
v -0.878350 -1.000000 -28.638748
v -9.380112 -1.000000 101.543457
v 7.623433 -1.000000 101.543457
v 24.626968 -1.000000 -28.638752
v 7.623423 -1.000000 -28.638748
v -9.380121 -1.000000 -28.638744
v 16.125195 -1.000000 -28.638748
v 16.125206 -1.000000 101.543457
v 24.626970 -1.000000 13.887580
v -0.878348 -1.000000 13.887583
v 7.623425 -1.000000 13.887582
v -9.380121 -1.000000 13.887584
v 16.125198 -1.000000 13.887581
v 24.626968 -1.000000 -7.375583
v -0.878349 -1.000000 -7.375583
v 7.623424 -1.000000 -7.375585
v 16.125195 -1.000000 -7.375587
v -9.380119 -1.000000 -7.375585
v -9.380119 -2.000000 35.150745
v 24.626968 -2.000000 35.150745
v -0.878347 -2.000000 35.150749
v 7.623425 -2.000000 35.150745
v 16.125198 -2.000000 35.150745
v -9.380121 -1.000000 45.782330
v 24.626968 -1.000000 45.782326
v -0.878345 -1.000000 45.782330
v 7.623425 -1.000000 45.782326
v 16.125198 -1.000000 45.782326
v 24.626968 -1.000000 24.519161
v -0.878347 -1.000000 24.519163
v 7.623425 -1.000000 24.519165
v 16.125196 -1.000000 24.519163
v -9.380119 -1.000000 24.519165
v -9.380119 -1.000000 3.256001
v 24.626968 -1.000000 3.255998
v -0.878347 -1.000000 3.255999
v 7.623424 -1.000000 3.255999
v 16.125196 -1.000000 3.256000
v 24.626968 -1.000000 -18.007168
v -0.878348 -1.000000 -18.007164
v 7.623425 -1.000000 -18.007164
v 16.125195 -1.000000 -18.007164
v -9.380121 -1.000000 -18.007160
v 24.626968 -1.000000 -23.322960
v -0.878349 -1.000000 -23.322956
v 7.623424 -1.000000 -23.322956
v 16.125195 -1.000000 -23.322956
v -9.380121 -1.000000 -23.322952
v -9.380121 -1.000000 -12.691373
v 24.626968 -1.000000 -12.691375
v -0.878349 -1.000000 -12.691373
v 7.623423 -1.000000 -12.691375
v 16.125195 -1.000000 -12.691375
v 24.626968 -1.000000 -2.059793
v -0.878348 -1.000000 -2.059789
v 7.623425 -1.000000 -2.059791
v 16.125196 -1.000000 -2.059793
v -9.380123 -1.000000 -2.059793
v -9.380123 -1.000000 8.571791
v 24.626968 -1.000000 8.571789
v -0.878347 -1.000000 8.571791
v 7.623424 -1.000000 8.571790
v 16.125196 -1.000000 8.571791
v 24.626970 -1.000000 19.203371
v -0.878347 -1.000000 19.203373
v 7.623425 -1.000000 19.203373
v 16.125196 -1.000000 19.203373
v -9.380121 -1.000000 19.203375
v -9.380119 -2.000000 29.834957
v 24.626972 -2.000000 29.834953
v -0.878348 -2.000000 29.834955
v 7.623425 -2.000000 29.834953
v 16.125196 -2.000000 29.834953
v 24.626970 -1.000000 40.466537
v -0.878346 -1.000000 40.466537
v 7.623426 -1.000000 40.466537
v 16.125198 -1.000000 40.466537
v -9.380119 -1.000000 40.466537
v -9.380114 -1.000000 93.988358
v 24.626976 -1.000000 93.988358
v -0.878340 -1.000000 93.988358
v 7.623432 -1.000000 93.988358
v 16.125206 -1.000000 93.988358
v 24.626970 -1.000000 52.945168
v -0.878345 -1.000000 52.945171
v 7.623425 -1.000000 52.945171
v 16.125198 -1.000000 52.945171
v -9.380119 -1.000000 52.945175
v -9.380116 1.000000 73.466766
v 24.626974 1.000000 73.466759
v -0.878343 1.000000 73.466766
v 7.623429 1.000000 73.466766
v 16.125202 1.000000 73.466766
v 24.626972 -1.000000 63.205967
v -0.878344 -1.000000 63.205971
v 7.623427 -1.000000 63.205971
v 16.125200 -1.000000 63.205971
v -9.380117 -1.000000 63.205975
v -9.380116 -1.000000 83.727562
v 24.626974 -1.000000 83.727562
v -0.878341 -1.000000 83.727562
v 7.623430 -1.000000 83.727562
v 16.125202 -1.000000 83.727562
v 24.626974 -1.000000 78.597160
v -0.878342 -1.000000 78.597160
v 7.623430 -1.000000 78.597160
v 16.125202 -1.000000 78.597160
v -9.380116 -1.000000 78.597168
v -9.380117 1.000000 68.336372
v 24.626972 1.000000 68.336365
v -0.878344 1.000000 68.336365
v 7.623428 1.000000 68.336365
v 16.125200 1.000000 68.336365
v 24.626970 -1.000000 58.075565
v -0.878345 -1.000000 58.075569
v 7.623426 -1.000000 58.075569
v 16.125198 -1.000000 58.075569
v -9.380119 -1.000000 58.075573
v -9.380114 -1.000000 88.857964
v 24.626976 -1.000000 88.857964
v -0.878340 -1.000000 88.857964
v 7.623431 -1.000000 88.857964
v 16.125204 -1.000000 88.857964
vn -0.0000 1.0000 -0.0000
vn -0.0000 0.9828 0.1849
vn -0.0000 0.9828 -0.1849
vn -0.0000 0.9317 0.3632
vn -0.0000 0.9317 -0.3632
vt 0.234375 0.562500
vt 0.234375 0.625000
vt 0.250000 0.625000
vt 0.250000 0.562500
vt 0.359375 0.500000
vt 0.359375 0.562500
vt 0.375000 0.562500
vt 0.375000 0.500000
vt 0.359375 0.625000
vt 0.359375 0.687500
vt 0.375000 0.687500
vt 0.375000 0.625000
vt 0.359375 0.750000
vt 0.375000 0.750000
vt 0.234375 0.687500
vt 0.234375 0.750000
vt 0.250000 0.750000
vt 0.250000 0.687500
vt 0.234375 0.500000
vt 0.250000 0.500000
vt 0.171875 0.500000
vt 0.171875 0.562500
vt 0.187500 0.562500
vt 0.187500 0.500000
vt 0.171875 0.625000
vt 0.171875 0.687500
vt 0.187500 0.687500
vt 0.187500 0.625000
vt 0.171875 0.750000
vt 0.187500 0.750000
vt 0.296875 0.562500
vt 0.296875 0.625000
vt 0.312500 0.625000
vt 0.312500 0.562500
vt 0.296875 0.687500
vt 0.296875 0.750000
vt 0.312500 0.750000
vt 0.312500 0.687500
vt 0.296875 0.500000
vt 0.312500 0.500000
vt 0.328125 0.562500
vt 0.328125 0.625000
vt 0.343750 0.625000
vt 0.343750 0.562500
vt 0.328125 0.687500
vt 0.328125 0.750000
vt 0.343750 0.750000
vt 0.343750 0.687500
vt 0.328125 0.500000
vt 0.343750 0.500000
vt 0.265625 0.500000
vt 0.265625 0.562500
vt 0.281250 0.562500
vt 0.281250 0.500000
vt 0.265625 0.625000
vt 0.265625 0.687500
vt 0.281250 0.687500
vt 0.281250 0.625000
vt 0.265625 0.750000
vt 0.281250 0.750000
vt 0.203125 0.500000
vt 0.203125 0.562500
vt 0.218750 0.562500
vt 0.218750 0.500000
vt 0.203125 0.625000
vt 0.203125 0.687500
vt 0.218750 0.687500
vt 0.218750 0.625000
vt 0.203125 0.750000
vt 0.218750 0.750000
vt 0.140625 0.562500
vt 0.140625 0.625000
vt 0.156250 0.625000
vt 0.156250 0.562500
vt 0.140625 0.687500
vt 0.140625 0.750000
vt 0.156250 0.750000
vt 0.156250 0.687500
vt 0.140625 0.500000
vt 0.156250 0.500000
vt 0.125000 0.500000
vt 0.125000 0.562500
vt 0.125000 0.625000
vt 0.125000 0.687500
vt 0.125000 0.750000
vt 0.358398 0.562500
vt 0.358398 0.625000
vt 0.358398 0.687500
vt 0.358398 0.750000
vt 0.358398 0.500000
vt 0.351562 0.562500
vt 0.351562 0.500000
vt 0.351562 0.687500
vt 0.351562 0.625000
vt 0.351562 0.750000
vt 0.354492 0.500000
vt 0.354492 0.562500
vt 0.355469 0.562500
vt 0.355469 0.500000
vt 0.354492 0.625000
vt 0.354492 0.687500
vt 0.355469 0.687500
vt 0.355469 0.625000
vt 0.354492 0.750000
vt 0.355469 0.750000
vt 0.352539 0.562500
vt 0.352539 0.625000
vt 0.353516 0.625000
vt 0.353516 0.562500
vt 0.352539 0.687500
vt 0.352539 0.750000
vt 0.353516 0.750000
vt 0.353516 0.687500
vt 0.352539 0.500000
vt 0.353516 0.500000
vt 0.356445 0.500000
vt 0.356445 0.562500
vt 0.357422 0.562500
vt 0.357422 0.500000
vt 0.356445 0.625000
vt 0.356445 0.687500
vt 0.357422 0.687500
vt 0.357422 0.625000
vt 0.356445 0.750000
vt 0.357422 0.750000
s 0
usemtl Material
f 65/1/1 64/2/1 13/3/1 15/4/1
f 82/5/1 85/6/1 10/7/1 2/8/1
f 84/9/1 83/10/1 1/11/1 5/12/1
f 83/10/1 81/13/1 4/14/1 1/11/1
f 63/15/1 61/16/1 14/17/1 12/18/1
f 85/6/1 84/9/1 5/12/1 10/7/1
f 64/2/1 63/15/1 12/18/1 13/3/1
f 62/19/1 65/1/1 15/4/1 11/20/1
f 52/21/1 55/22/1 19/23/1 16/24/1
f 54/25/1 53/26/1 17/27/1 18/28/1
f 53/26/1 51/29/1 20/30/1 17/27/1
f 55/22/1 54/25/1 18/28/1 19/23/1
f 75/31/1 74/32/1 24/33/1 25/34/1
f 73/35/1 71/36/1 21/37/1 23/38/1
f 74/32/1 73/35/1 23/38/1 24/33/1
f 72/39/1 75/31/1 25/34/1 22/40/1
f 79/41/1 78/42/1 29/43/1 30/44/1
f 77/45/1 80/46/1 26/47/1 28/48/1
f 78/42/1 77/45/1 28/48/1 29/43/1
f 76/49/1 79/41/1 30/44/1 27/50/1
f 66/51/1 69/52/1 34/53/1 31/54/1
f 68/55/1 67/56/1 32/57/1 33/58/1
f 67/56/1 70/59/1 35/60/1 32/57/1
f 69/52/1 68/55/1 33/58/1 34/53/1
f 56/61/1 59/62/1 40/63/1 37/64/1
f 58/65/1 57/66/1 38/67/1 39/68/1
f 57/66/1 60/69/1 36/70/1 38/67/1
f 59/62/1 58/65/1 39/68/1 40/63/1
f 49/71/1 48/72/1 43/73/1 44/74/1
f 47/75/1 50/76/1 45/77/1 42/78/1
f 48/72/1 47/75/1 42/78/1 43/73/1
f 46/79/1 49/71/1 44/74/1 41/80/1
f 6/81/1 9/82/1 49/71/1 46/79/1
f 7/83/1 3/84/1 47/75/1 48/72/1
f 3/84/1 8/85/1 50/76/1 47/75/1
f 9/82/1 7/83/1 48/72/1 49/71/1
f 44/74/1 43/73/1 54/25/1 55/22/1
f 42/78/1 45/77/1 51/29/1 53/26/1
f 43/73/1 42/78/1 53/26/1 54/25/1
f 41/80/1 44/74/1 55/22/1 52/21/1
f 19/23/1 18/28/1 58/65/1 59/62/1
f 17/27/1 20/30/1 60/69/1 57/66/1
f 18/28/1 17/27/1 57/66/1 58/65/1
f 16/24/1 19/23/1 59/62/1 56/61/1
f 37/64/1 40/63/1 65/1/1 62/19/1
f 39/68/1 38/67/1 63/15/1 64/2/1
f 38/67/1 36/70/1 61/16/1 63/15/1
f 40/63/1 39/68/1 64/2/1 65/1/1
f 15/4/1 13/3/1 68/55/1 69/52/1
f 12/18/1 14/17/1 70/59/1 67/56/1
f 13/3/1 12/18/1 67/56/1 68/55/1
f 11/20/1 15/4/1 69/52/1 66/51/1
f 31/54/2 34/53/2 75/31/2 72/39/2
f 33/58/2 32/57/2 73/35/2 74/32/2
f 32/57/2 35/60/2 71/36/2 73/35/2
f 34/53/2 33/58/2 74/32/2 75/31/2
f 22/40/3 25/34/3 79/41/3 76/49/3
f 24/33/3 23/38/3 77/45/3 78/42/3
f 23/38/3 21/37/3 80/46/3 77/45/3
f 25/34/3 24/33/3 78/42/3 79/41/3
f 125/86/1 124/87/1 84/9/1 85/6/1
f 123/88/1 121/89/1 81/13/1 83/10/1
f 124/87/1 123/88/1 83/10/1 84/9/1
f 122/90/1 125/86/1 85/6/1 82/5/1
f 27/50/1 30/44/1 89/91/1 86/92/1
f 29/43/1 28/48/1 87/93/1 88/94/1
f 28/48/1 26/47/1 90/95/1 87/93/1
f 30/44/1 29/43/1 88/94/1 89/91/1
f 112/96/1 115/97/1 95/98/1 92/99/1
f 114/100/1 113/101/1 93/102/1 94/103/1
f 113/101/1 111/104/1 91/105/1 93/102/1
f 115/97/1 114/100/1 94/103/1 95/98/1
f 119/106/1 118/107/1 98/108/1 99/109/1
f 117/110/1 120/111/1 100/112/1 97/113/1
f 118/107/1 117/110/1 97/113/1 98/108/1
f 116/114/1 119/106/1 99/109/1 96/115/1
f 106/116/1 109/117/1 105/118/1 102/119/1
f 108/120/1 107/121/1 103/122/1 104/123/1
f 107/121/1 110/124/1 101/125/1 103/122/1
f 109/117/1 108/120/1 104/123/1 105/118/1
f 95/98/4 94/103/4 108/120/4 109/117/4
f 93/102/4 91/105/4 110/124/4 107/121/4
f 94/103/4 93/102/4 107/121/4 108/120/4
f 92/99/4 95/98/4 109/117/4 106/116/4
f 99/109/5 98/108/5 114/100/5 115/97/5
f 97/113/5 100/112/5 111/104/5 113/101/5
f 98/108/5 97/113/5 113/101/5 114/100/5
f 96/115/5 99/109/5 115/97/5 112/96/5
f 86/92/1 89/91/1 119/106/1 116/114/1
f 88/94/1 87/93/1 117/110/1 118/107/1
f 87/93/1 90/95/1 120/111/1 117/110/1
f 89/91/1 88/94/1 118/107/1 119/106/1
f 102/119/1 105/118/1 125/86/1 122/90/1
f 104/123/1 103/122/1 123/88/1 124/87/1
f 103/122/1 101/125/1 121/89/1 123/88/1
f 105/118/1 104/123/1 124/87/1 125/86/1
