# Blender 4.3.2
# www.blender.org
mtllib spark4.mtl
o Plane
v 0.000000 -0.030983 -0.323062
v 0.258080 0.006573 0.346810
v 0.000000 0.010950 0.905351
v 0.253702 0.005358 -0.213952
v 0.309602 0.125523 -0.258656
v 1.084376 0.019622 -0.550251
v 0.805087 0.044061 -0.334774
v 0.000000 0.059877 0.860572
v 0.235010 0.097426 -0.194823
v 0.197125 0.007686 0.648544
v 0.244142 0.070827 0.275220
v 0.816137 0.098270 -0.347614
v 0.000000 0.307303 -0.359831
v 0.000000 0.191769 -0.323005
v 0.586583 0.057694 0.234958
v 0.580076 0.108118 0.178187
v 0.546630 -0.023400 -0.410654
v 0.532997 0.231892 -0.517815
v 0.489030 0.136284 -0.270038
v 0.632519 0.055399 -0.277855
v 0.492035 0.055031 -0.266634
v 0.645534 0.139367 -0.284721
v 0.568689 0.207210 -0.233927
v 0.396704 0.117268 0.079373
v 0.415803 0.039149 0.157946
v 0.000000 0.265936 0.075684
v 0.171471 0.088452 0.618985
v 0.000000 0.197871 0.511236
v 0.125344 -0.019243 -0.312909
v 0.142744 0.153004 -0.315531
v 0.099889 0.005715 -0.188161
v 0.082340 0.110447 -0.187222
v 0.000000 0.171838 -0.246640
v 0.000000 0.000849 -0.186630
v 0.104470 0.050072 -0.183461
v 0.175234 0.057543 -0.313323
v 0.311329 0.024388 -0.258680
v 0.210399 0.146803 -0.205812
v 0.220350 0.115381 0.202841
v -0.258080 0.006573 0.346810
v -0.253702 0.005358 -0.213952
v -0.309602 0.125523 -0.258656
v -1.084376 0.019622 -0.550251
v -0.805087 0.044061 -0.334774
v -0.235010 0.097426 -0.194823
v -0.197125 0.007686 0.648544
v -0.244142 0.070827 0.275220
v -0.816137 0.098270 -0.347614
v -0.586583 0.057694 0.234958
v -0.580076 0.108118 0.178187
v -0.546630 -0.023400 -0.410654
v -0.532997 0.231892 -0.517815
v -0.489030 0.136284 -0.270038
v -0.632519 0.055399 -0.277855
v -0.492035 0.055031 -0.266634
v -0.645534 0.139367 -0.284721
v -0.568689 0.207210 -0.233927
v -0.396704 0.117268 0.079373
v -0.415803 0.039149 0.157946
v -0.171471 0.088452 0.618985
v -0.125344 -0.019243 -0.312909
v -0.142744 0.153004 -0.315531
v -0.099889 0.005715 -0.188161
v -0.082340 0.110447 -0.187222
v -0.104470 0.050072 -0.183461
v -0.175234 0.057543 -0.313323
v -0.311329 0.024388 -0.258680
v -0.210399 0.146803 -0.205812
v -0.220350 0.115381 0.202841
vn -0.1243 0.0822 -0.9888
vn -0.9108 -0.3726 -0.1777
vn 0.6131 0.0616 0.7876
vn -0.4939 -0.6826 -0.5386
vn -0.4958 -0.8595 -0.1243
vn 0.2378 -0.9688 -0.0701
vn 0.6365 -0.0092 0.7712
vn 0.0839 0.9964 0.0083
vn -0.5560 -0.8286 -0.0649
vn 0.3389 0.0747 0.9379
vn -0.3350 -0.9328 -0.1329
vn 0.6235 -0.7796 0.0593
vn -0.6827 -0.7186 0.1325
vn -0.0414 0.8708 -0.4899
vn -0.6555 -0.7550 0.0168
vn -0.7074 -0.6914 -0.1467
vn -0.3409 -0.8744 -0.3454
vn 0.6943 -0.7042 -0.1485
vn 0.6990 -0.6907 -0.1854
vn 0.3539 -0.6438 -0.6784
vn 0.0508 -0.9987 0.0018
vn 0.0861 0.0566 0.9947
vn 0.0156 0.9319 0.3624
vn -0.7084 -0.5661 -0.4216
vn 0.0165 -0.9986 -0.0500
vn -0.7060 -0.4521 -0.5451
vn 0.8232 0.3068 0.4777
vn 0.0549 -0.5979 -0.7997
vn 0.0591 -0.0103 -0.9982
vn -0.2893 -0.8883 -0.3566
vn 0.0635 -0.9739 0.2179
vn 0.8502 -0.3946 0.3484
vn 0.0513 0.0198 0.9985
vn 0.1408 -0.9900 -0.0117
vn 0.7704 0.6240 0.1309
vn -0.8846 -0.4661 -0.0116
vn 0.1243 0.0822 -0.9888
vn 0.9108 -0.3726 -0.1777
vn -0.6131 0.0616 0.7876
vn 0.4939 -0.6826 -0.5386
vn 0.4958 -0.8595 -0.1243
vn -0.2378 -0.9688 -0.0701
vn -0.6365 -0.0092 0.7712
vn -0.0839 0.9964 0.0083
vn 0.5560 -0.8286 -0.0649
vn -0.3389 0.0747 0.9379
vn 0.3350 -0.9328 -0.1329
vn -0.6235 -0.7796 0.0593
vn 0.6827 -0.7186 0.1325
vn 0.0414 0.8708 -0.4899
vn 0.6555 -0.7550 0.0168
vn 0.7074 -0.6914 -0.1467
vn 0.3409 -0.8744 -0.3454
vn -0.6943 -0.7042 -0.1485
vn -0.6990 -0.6907 -0.1854
vn -0.3539 -0.6438 -0.6784
vn -0.0508 -0.9987 0.0018
vn -0.0861 0.0566 0.9947
vn -0.0156 0.9319 0.3624
vn 0.7084 -0.5661 -0.4216
vn -0.0165 -0.9986 -0.0500
vn 0.7060 -0.4521 -0.5451
vn -0.8232 0.3068 0.4777
vn -0.0549 -0.5979 -0.7997
vn -0.0591 -0.0103 -0.9982
vn 0.2893 -0.8883 -0.3566
vn -0.0635 -0.9739 0.2179
vn -0.8502 -0.3946 0.3484
vn -0.0513 0.0198 0.9985
vn -0.1408 -0.9900 -0.0117
vn -0.7704 0.6240 0.1309
vn 0.8846 -0.4661 -0.0116
vt 0.477846 0.422220
vt 0.442153 0.378297
vt 0.380484 0.409771
vt 0.388721 0.431802
vt 0.387039 0.462687
vt 0.847025 0.739049
vt 0.803059 0.744009
vt 0.713434 0.592327
vt 0.763826 0.607201
vt 0.757489 0.128110
vt 0.863148 -0.005431
vt 0.779146 0.145759
vt 0.672055 0.471533
vt 0.733989 0.508083
vt 0.665630 0.581451
vt 0.695937 0.771913
vt 0.535863 0.655342
vt 0.483021 0.445323
vt 0.503493 0.368476
vt 0.454912 0.336797
vt 0.495193 0.359166
vt 0.137124 0.964346
vt 0.149090 0.779733
vt 0.191101 0.697572
vt -0.000000 0.482901
vt 0.376688 0.594946
vt 0.468033 0.463854
vt 0.714403 0.208830
vt 0.678544 0.178000
vt 0.720703 0.219149
vt 0.783477 0.166396
vt 0.857242 0.032584
vt 0.784696 0.462162
vt 0.205107 0.628060
vt 0.261767 0.591712
vt 0.245420 0.614236
vt 0.203836 0.669074
vt 0.208744 0.631374
vt 0.693874 0.332658
vt 0.662690 0.287690
vt 0.722278 0.230553
vt 0.753985 0.411113
vt 0.682850 0.332658
vt 0.711254 0.230553
vt 0.835067 0.885653
vt 0.721435 0.323969
vt 0.576495 0.274085
vt 0.690251 0.279001
vt 0.688362 0.316366
vt 0.753985 0.415458
vt 0.607993 0.282775
vt 0.813673 0.480721
vt 0.077062 0.288546
vt 0.003539 0.149390
vt 0.000000 -0.000000
vt 0.360761 0.385081
vt 0.329767 0.419418
vt 0.298652 0.481421
vt 0.302219 0.517007
vt 0.089741 0.429026
vt 0.541059 0.261052
vt 0.517032 0.230143
vt 0.654816 0.265967
vt 0.865511 -0.000000
vt 0.547172 0.274241
vt 0.865511 0.895901
vt 0.868531 0.154661
vt 0.865511 0.089666
vt 0.921635 0.106679
vt 0.940849 0.146883
vt 0.358399 0.513123
vt 0.372451 0.588222
vt 0.462858 0.453682
vt 0.939609 0.073830
vt 1.000000 0.041750
vt 1.000000 0.179894
vt 0.939306 0.214573
vt 0.883149 0.042957
vt 0.920323 0.000000
s 0
usemtl ship
f 9/1/1 4/2/1 31/3/1 35/4/1 32/5/1
f 10/6/2 27/7/2 11/8/2 2/9/2
f 7/10/3 6/11/3 12/12/3
f 2/9/4 11/8/4 24/13/4 25/14/4
f 39/15/5 27/7/5 28/16/5 26/17/5
f 9/18/6 5/19/6 24/13/6 11/8/6
f 4/2/7 37/20/7 5/21/7 9/1/7
f 6/22/8 7/23/8 20/24/8 15/25/8
f 26/17/9 13/26/9 38/27/9 39/15/9
f 22/28/10 20/29/10 7/10/10 12/12/10
f 22/30/11 12/31/11 6/32/11 16/33/11
f 15/25/12 17/34/12 20/24/12
f 17/34/13 15/25/13 21/35/13
f 21/36/14 20/37/14 17/38/14
f 23/39/15 18/40/15 22/41/15
f 16/42/16 23/43/16 22/44/16
f 28/16/17 27/7/17 8/45/17
f 23/46/18 19/47/18 18/48/18
f 23/49/19 16/50/19 19/51/19
f 15/52/20 25/14/20 24/13/20 16/33/20
f 2/53/21 10/54/21 3/55/21 34/56/21 31/57/21 4/58/21 37/59/21 25/60/21
f 22/28/22 19/61/22 21/62/22 20/29/22
f 19/61/23 22/28/23 18/63/23
f 6/64/24 15/52/24 16/33/24
f 24/13/25 5/19/25 19/65/25 16/33/25
f 27/7/26 10/6/26 3/66/26 8/45/26
f 32/67/27 35/68/27 36/69/27 30/70/27
f 9/1/28 32/5/28 33/71/28 13/72/28 38/73/28
f 30/70/29 36/69/29 29/74/29 1/75/29 14/76/29
f 33/77/30 14/76/30 30/70/30 32/67/30
f 31/78/31 34/79/31 1/75/31 29/74/31
f 36/69/32 35/68/32 31/78/32 29/74/32
f 5/21/33 37/20/33 21/62/33 19/61/33
f 25/60/34 37/59/34 21/35/34 15/25/34
f 27/7/35 11/8/35 39/15/35
f 39/15/36 38/27/36 9/18/36 11/8/36
f 45/1/37 64/5/37 65/4/37 63/3/37 41/2/37
f 46/6/38 40/9/38 47/8/38 60/7/38
f 44/10/39 48/12/39 43/11/39
f 40/9/40 59/14/40 58/13/40 47/8/40
f 69/15/41 26/17/41 28/16/41 60/7/41
f 45/18/42 47/8/42 58/13/42 42/19/42
f 41/2/43 45/1/43 42/21/43 67/20/43
f 43/22/44 49/25/44 54/24/44 44/23/44
f 26/17/45 69/15/45 68/27/45 13/26/45
f 56/28/46 48/12/46 44/10/46 54/29/46
f 56/30/47 50/33/47 43/32/47 48/31/47
f 49/25/48 54/24/48 51/34/48
f 51/34/49 55/35/49 49/25/49
f 55/36/50 51/38/50 54/37/50
f 57/39/51 56/41/51 52/40/51
f 50/42/52 56/44/52 57/43/52
f 28/16/53 8/45/53 60/7/53
f 57/46/54 52/48/54 53/47/54
f 57/49/55 53/51/55 50/50/55
f 49/52/56 50/33/56 58/13/56 59/14/56
f 40/53/57 59/60/57 67/59/57 41/58/57 63/57/57 34/56/57 3/55/57 46/54/57
f 56/28/58 54/29/58 55/62/58 53/61/58
f 53/61/59 52/63/59 56/28/59
f 43/64/60 50/33/60 49/52/60
f 58/13/61 50/33/61 53/65/61 42/19/61
f 60/7/62 8/45/62 3/66/62 46/6/62
f 64/67/63 62/70/63 66/69/63 65/68/63
f 45/1/64 68/73/64 13/72/64 33/71/64 64/5/64
f 62/70/65 14/76/65 1/75/65 61/74/65 66/69/65
f 33/77/66 64/67/66 62/70/66 14/76/66
f 63/78/67 61/74/67 1/75/67 34/79/67
f 66/69/68 61/74/68 63/78/68 65/68/68
f 42/21/69 53/61/69 55/62/69 67/20/69
f 59/60/70 49/25/70 55/35/70 67/59/70
f 60/7/71 69/15/71 47/8/71
f 69/15/72 47/8/72 45/18/72 68/27/72
