# Blender 5.0.1
# www.blender.org
o Cube
v 0.000000 -1.000000 0.000000
v -5.263299 -1.000000 13.968904
v -5.263299 -1.000000 0.000000
v -5.263299 -1.000000 -13.968904
v 0.000000 -1.000000 13.968904
v 5.263299 -1.000000 13.968904
v 5.263299 -1.000000 0.000000
v 5.263299 -1.000000 -13.968904
v 0.000000 -1.000000 -13.968904
v 5.263299 -1.000000 -6.984452
v -5.263299 -1.000000 -6.984452
v 0.000000 -1.000000 -6.984452
v 5.263299 -1.856040 6.984452
v 0.000000 -1.856040 6.984452
v -5.263299 -1.856040 6.984452
v -2.631650 -1.000000 0.000000
v -2.631650 -1.000000 -13.968904
v -2.631650 -1.000000 13.968904
v -2.631650 -1.000000 -6.984452
v -2.631650 -1.856040 6.984452
v 2.631650 -1.000000 13.968904
v 2.631650 -1.000000 -13.968904
v 2.631650 -1.000000 0.000000
v 2.631650 -1.000000 -6.984452
v 2.631650 -1.856040 6.984452
v 5.263299 -1.000000 -10.476677
v 0.000000 -1.000000 -10.476677
v -5.263299 -1.000000 -10.476677
v -2.631650 -1.000000 -10.476677
v 2.631650 -1.000000 -10.476677
v -5.263299 -1.000000 -3.492226
v 5.263299 -1.000000 -3.492226
v 0.000000 -1.000000 -3.492226
v -2.631650 -1.000000 -3.492226
v 2.631650 -1.000000 -3.492226
v 5.263299 -1.000000 3.492226
v 0.000000 -1.000000 3.492226
v -5.263299 -1.000000 3.492226
v -2.631650 -1.000000 3.492226
v 2.631650 -1.000000 3.492226
v -5.263299 -1.000000 10.476677
v 5.263299 -1.000000 10.476677
v 0.000000 -1.000000 10.476677
v -2.631650 -1.000000 10.476677
v 2.631650 -1.000000 10.476677
v -5.263299 -1.856040 5.238338
v 5.263299 -1.856040 5.238338
v 0.000000 -1.856040 5.238338
v -2.631650 -1.856040 5.238338
v 2.631650 -1.856040 5.238338
v 5.263299 -1.872324 8.730564
v 0.000000 -1.872324 8.730564
v -2.631650 -1.872324 8.730564
v 2.631650 -1.872324 8.730564
v -5.263299 -1.872324 8.730564
s 0
f 33 24 35
f 38 16 39
f 37 23 40
f 28 17 29
f 31 19 34
f 27 22 30
f 52 25 54
f 55 20 53
f 53 14 52
f 34 12 33
f 29 9 27
f 39 1 37
f 54 13 51
f 30 8 26
f 40 7 36
f 35 10 32
f 24 26 10
f 19 27 12
f 12 30 24
f 11 29 19
f 23 32 7
f 16 33 1
f 3 34 16
f 1 35 23
f 50 36 47
f 49 37 48
f 48 40 50
f 46 39 49
f 21 42 6
f 18 43 5
f 2 44 18
f 5 45 21
f 15 49 20
f 14 50 25
f 20 48 14
f 25 47 13
f 45 51 42
f 44 52 43
f 41 53 44
f 43 54 45
f 33 12 24
f 38 3 16
f 37 1 23
f 28 4 17
f 31 11 19
f 27 9 22
f 52 14 25
f 55 15 20
f 53 20 14
f 34 19 12
f 29 17 9
f 39 16 1
f 54 25 13
f 30 22 8
f 40 23 7
f 35 24 10
f 24 30 26
f 19 29 27
f 12 27 30
f 11 28 29
f 23 35 32
f 16 34 33
f 3 31 34
f 1 33 35
f 50 40 36
f 49 39 37
f 48 37 40
f 46 38 39
f 21 45 42
f 18 44 43
f 2 41 44
f 5 43 45
f 15 46 49
f 14 48 50
f 20 49 48
f 25 50 47
f 45 54 51
f 44 53 52
f 41 55 53
f 43 52 54
