# Blender 5.0.1
# www.blender.org
mtllib testNewHeal.mtl
o Healzones
v 319.935303 -1.029682 -125.305038
v 295.935303 -1.029682 -125.305038
v 295.935303 0.970318 -125.305038
v 319.935303 0.970318 -125.305038
v 229.935303 -1.029682 -49.305035
v 229.935303 0.970318 -49.305035
v 229.935303 -1.029682 -73.305038
v 229.935303 0.970318 -73.305038
v 279.935303 0.970318 -73.305038
v 279.935303 -1.029682 -73.305038
v 291.935303 0.970318 -49.305035
v 291.935303 -1.029682 -49.305035
v 319.935303 0.970318 -77.305038
v 295.935303 0.970318 -89.305038
v 319.935303 -1.029682 -77.305038
v 295.935303 -1.029682 -89.305038
v 25.080429 1.000000 -221.452911
v 25.080429 -1.000000 -221.452911
v 25.080429 1.000000 -197.452911
v 25.080429 -1.000000 -197.452911
v -61.919571 1.000000 -221.452911
v -61.919571 -1.000000 -221.452911
v -49.919571 1.000000 -197.452911
v -49.919571 -1.000000 -197.452911
v -87.919571 1.000000 -195.452927
v -87.919571 -1.000000 -195.452927
v -69.919571 1.000000 -177.452927
v -69.919571 -1.000000 -177.452927
v -187.919571 1.000000 -95.452911
v -187.919571 -1.000000 -95.452911
v -169.919571 1.000000 -77.452927
v -169.919571 -1.000000 -77.452927
v -224.919586 1.000000 -58.452915
v -224.919586 -1.000000 -58.452915
v -194.919571 1.000000 -52.452915
v -194.919571 -1.000000 -52.452915
v -224.919586 1.000000 -23.452908
v -224.919586 -1.000000 -23.452908
v -194.919571 1.000000 -23.452908
v -194.919571 -1.000000 -23.452908
v 67.871758 11.000000 59.339561
v 67.871758 9.000000 59.339561
v 106.871758 9.000000 56.339573
v 85.871758 9.000000 77.339569
v 85.871758 11.000000 77.339569
v 82.871758 9.000000 44.339573
v 82.871758 11.000000 44.339573
v 106.871758 11.000000 56.339573
v 106.871758 9.000000 -36.253933
v 82.871758 9.000000 -36.253933
v 82.871758 11.000000 -36.253933
v 106.871758 11.000000 -36.253933
vn -0.0000 -0.0000 1.0000
vn -1.0000 -0.0000 -0.0000
vn 0.7071 -0.0000 0.7071
vn -0.0000 -1.0000 -0.0000
vn -0.0000 1.0000 -0.0000
vn -0.0000 -0.0000 -1.0000
vn 1.0000 -0.0000 -0.0000
vn -0.7071 -0.0000 -0.7071
vt 0.000000 0.000000
vt 0.375000 0.750000
vt 0.625000 0.750000
s 0
usemtl Heal
f 3/1/1 1/1/1 4/1/1
f 5/1/2 8/1/2 7/1/2
f 13/1/3 12/1/3 15/1/3
f 5/1/4 10/1/4 12/1/4
f 6/1/5 9/1/5 8/1/5
f 5/1/1 11/1/1 6/1/1
f 8/1/6 10/1/6 7/1/6
f 16/1/4 12/1/4 10/1/4
f 3/1/7 16/1/7 2/1/7
f 1/1/2 13/1/2 4/1/2
f 1/1/5 16/1/5 15/1/5
f 4/1/4 14/1/4 3/1/4
f 14/1/5 11/1/5 13/1/5
f 16/1/8 9/1/8 14/1/8
f 3/1/1 2/1/1 1/1/1
f 5/1/2 6/1/2 8/1/2
f 13/1/3 11/1/3 12/1/3
f 5/1/4 7/1/4 10/1/4
f 6/1/5 11/1/5 9/1/5
f 5/1/1 12/1/1 11/1/1
f 8/1/6 9/1/6 10/1/6
f 16/1/4 15/1/4 12/1/4
f 3/1/7 14/1/7 16/1/7
f 1/1/2 15/1/2 13/1/2
f 1/1/5 2/1/5 16/1/5
f 4/1/4 13/1/4 14/1/4
f 14/1/5 9/1/5 11/1/5
f 16/1/8 10/1/8 9/1/8
usemtl Heal.001
f 19/1/7 18/2/7 17/3/7
f 22/2/4 28/1/4 26/2/4
f 18/2/4 24/1/4 22/2/4
f 19/1/1 24/1/1 20/1/1
f 17/3/5 23/1/5 19/1/5
f 18/2/6 21/3/6 17/3/6
f 23/1/3 28/1/3 24/1/3
f 21/3/5 27/1/5 23/1/5
f 22/2/8 25/3/8 21/3/8
f 31/1/3 36/1/3 32/1/3
f 29/1/5 35/1/5 31/1/5
f 29/1/3 34/1/3 30/1/3
f 30/1/5 36/1/5 32/1/5
f 35/1/5 37/1/5 39/1/5
f 33/1/7 38/1/7 34/1/7
f 36/1/5 38/1/5 40/1/5
f 35/1/7 40/1/7 36/1/7
f 19/1/7 20/1/7 18/2/7
f 22/2/4 24/1/4 28/1/4
f 18/2/4 20/1/4 24/1/4
f 19/1/1 23/1/1 24/1/1
f 17/3/5 21/3/5 23/1/5
f 18/2/6 22/2/6 21/3/6
f 23/1/3 27/1/3 28/1/3
f 21/3/5 25/3/5 27/1/5
f 22/2/8 26/2/8 25/3/8
f 31/1/3 35/1/3 36/1/3
f 29/1/5 33/1/5 35/1/5
f 29/1/3 33/1/3 34/1/3
f 30/1/5 34/1/5 36/1/5
f 35/1/5 33/1/5 37/1/5
f 33/1/7 37/1/7 38/1/7
f 36/1/5 34/1/5 38/1/5
f 35/1/7 39/1/7 40/1/7
usemtl Heal.002
f 45/1/4 47/1/4 48/1/4
f 45/1/8 43/1/8 44/1/8
f 41/1/8 46/1/8 42/1/8
f 44/1/5 46/1/5 42/1/5
f 46/1/5 49/1/5 50/1/5
f 48/1/2 49/1/2 43/1/2
f 47/1/2 50/1/2 46/1/2
f 47/1/4 52/1/4 48/1/4
f 45/1/4 41/1/4 47/1/4
f 45/1/8 48/1/8 43/1/8
f 41/1/8 47/1/8 46/1/8
f 44/1/5 43/1/5 46/1/5
f 46/1/5 43/1/5 49/1/5
f 48/1/2 52/1/2 49/1/2
f 47/1/2 51/1/2 50/1/2
f 47/1/4 51/1/4 52/1/4
