# Blender 5.0.1
# www.blender.org
mtllib trackModel.mtl
o Cube
v 11.995600 -2.283700 12.830503
v 12.072301 -2.768493 12.700903
v 17.136856 -0.751910 10.143289
v 17.213554 -1.236702 10.013688
v 12.412395 -3.248895 18.304394
v 12.497989 -3.744892 18.238338
v 18.149815 -2.468194 19.876820
v 18.235409 -2.964192 19.810768
v 7.158872 -1.678070 9.395802
v 7.194880 -2.156435 9.229751
v 9.572611 0.284538 4.265302
v 9.608621 -0.193828 4.099251
v 11.995600 -2.283700 12.830503
v 12.072301 -2.768493 12.700903
v 17.136856 -0.751910 10.143289
v 17.213554 -1.236702 10.013688
v -0.337602 -1.123256 6.249300
v -0.297611 -1.601952 6.085123
v 2.343017 0.817202 1.244411
v 2.383008 0.338506 1.080234
v 7.158872 -1.678070 9.395802
v 7.194880 -2.156435 9.229751
v 9.572611 0.284538 4.265302
v 9.608621 -0.193828 4.099251
v -7.409631 -0.215506 1.101193
v -7.349649 -0.696626 0.950764
v -3.389050 1.562460 -2.982158
v -3.329068 1.081341 -3.132587
v -0.337602 -1.123256 6.249300
v -0.297611 -1.601952 6.085123
v 2.343017 0.817202 1.244411
v 2.383008 0.338506 1.080234
v -13.480839 0.708377 -4.138411
v -13.419293 0.226999 -4.287376
v -9.355497 2.469034 -8.123590
v -9.293953 1.987656 -8.272554
v -7.409631 -0.215506 1.101193
v -7.349649 -0.696626 0.950764
v -3.389050 1.562460 -2.982158
v -3.329068 1.081341 -3.132587
v -18.270426 2.193919 -12.563334
v -18.183096 1.703667 -12.661973
v -12.416673 3.359769 -13.175199
v -12.329344 2.869517 -13.273840
v -13.480839 0.708377 -4.138411
v -13.419293 0.226999 -4.287376
v -9.355497 2.469034 -8.123590
v -9.293953 1.987656 -8.272554
v -16.942402 3.814570 -21.754507
v -16.860016 3.316788 -21.810436
v -11.420085 4.475618 -19.503494
v -11.337700 3.977835 -19.559423
v -18.270426 2.193919 -12.563334
v -18.183096 1.703667 -12.661973
v -12.416673 3.359769 -13.175199
v -12.329344 2.869517 -13.273840
v -11.751706 5.160947 -29.390184
v -11.692283 4.657302 -29.412872
v -7.768603 5.429109 -24.911011
v -7.709181 4.925465 -24.933701
v -16.942402 3.814570 -21.754507
v -16.860016 3.316788 -21.810436
v -11.420085 4.475618 -19.503494
v -11.337700 3.977835 -19.559423
v -3.208728 5.905504 -33.612778
v -3.192688 5.398115 -33.614231
v -2.133568 5.922633 -27.709921
v -2.117528 5.415243 -27.711370
v -11.751706 5.160947 -29.390184
v -11.692283 4.657302 -29.412872
v -7.768603 5.429109 -24.911011
v -7.709181 4.925465 -24.933701
v 6.299252 5.752518 -32.745152
v 6.267400 5.245908 -32.751022
v 4.164221 5.821840 -27.138294
v 4.132369 5.315229 -27.144159
v -3.208728 5.905504 -33.612778
v -3.192688 5.398115 -33.614231
v -2.133568 5.922633 -27.709921
v -2.117528 5.415243 -27.711370
v 13.900589 4.764297 -27.140671
v 13.831409 4.262473 -27.173681
v 9.263342 5.154453 -23.353361
v 9.194160 4.652629 -23.386372
v 6.299252 5.752518 -32.745152
v 6.267400 5.245908 -32.751022
v 4.164221 5.821840 -27.138294
v 4.132369 5.315229 -27.144159
v 17.846359 3.306967 -18.875748
v 17.760363 2.811265 -18.943478
v 12.082017 4.107496 -17.415773
v 11.996020 3.611794 -17.483503
v 13.900589 4.764297 -27.140671
v 13.831409 4.262473 -27.173681
v 9.263342 5.154453 -23.353361
v 9.194160 4.652629 -23.386372
v 17.281151 1.611345 -9.259393
v 17.200842 1.125319 -9.382000
v 11.897982 3.060479 -11.477841
v 11.817672 2.574453 -11.600449
v 17.846359 3.306967 -18.875748
v 17.760363 2.811265 -18.943478
v 12.082017 4.107496 -17.415773
v 11.996020 3.611794 -17.483503
v 11.191411 0.389637 -2.330743
v 11.135433 -0.090876 -2.484616
v 7.439146 2.208320 -6.645010
v 7.383167 1.727808 -6.798883
v 17.281151 1.611345 -9.259393
v 17.200842 1.125319 -9.382000
v 11.897982 3.060479 -11.477841
v 11.817672 2.574453 -11.600449
v 5.119686 -0.506014 2.748742
v 5.063039 -0.986622 2.595414
v 1.322596 1.306207 -1.528872
v 1.265949 0.825598 -1.682199
v 11.191411 0.389637 -2.330743
v 11.135433 -0.090876 -2.484616
v 7.439146 2.208320 -6.645010
v 7.383167 1.727808 -6.798883
v -2.524424 -1.286731 7.176409
v -2.558436 -1.764946 7.009507
v -4.804318 0.685936 1.988859
v -4.838331 0.207721 1.821956
v 5.119686 -0.506014 2.748742
v 5.063039 -0.986622 2.595414
v 1.322596 1.306207 -1.528872
v 1.265949 0.825598 -1.682199
v -9.754381 -1.788938 10.024568
v -9.793949 -2.267597 9.860180
v -12.406709 0.154005 5.005589
v -12.446278 -0.324654 4.841202
v -2.524424 -1.286731 7.176409
v -2.558436 -1.764946 7.009507
v -4.804318 0.685936 1.988859
v -4.838331 0.207721 1.821956
v -13.613212 -2.440261 13.718405
v -13.697538 -2.928138 13.606298
v -19.265663 -1.115230 12.203780
v -19.349991 -1.603107 12.091672
v -9.754381 -1.788938 10.024568
v -9.793949 -2.267597 9.860180
v -12.406709 0.154005 5.005589
v -12.446278 -0.324654 4.841202
v -13.120518 -3.450990 19.450535
v -13.202349 -3.949020 19.396004
v -18.605637 -2.806480 21.795334
v -18.687468 -3.304510 21.740805
v -13.613212 -2.440261 13.718405
v -13.697538 -2.928138 13.606298
v -19.265663 -1.115230 12.203780
v -19.349991 -1.603107 12.091672
v -9.244227 -4.305917 24.299065
v -9.297526 -4.810447 24.281399
v -12.816865 -4.097125 29.114944
v -12.870162 -4.601655 29.097279
v -13.120518 -3.450990 19.450535
v -13.202349 -3.949020 19.396004
v -18.605637 -2.806480 21.795334
v -18.687468 -3.304510 21.740805
v -3.253337 -4.770956 26.936432
v -3.270645 -5.278303 26.934744
v -4.413512 -4.750984 32.823162
v -4.430820 -5.258331 32.821472
v -9.244227 -4.305917 24.299065
v -9.297526 -4.810447 24.281399
v -12.816865 -4.097125 29.114944
v -12.870162 -4.601655 29.097279
v 3.299196 -4.743512 26.780790
v 3.321697 -5.250649 26.777912
v 4.807441 -4.709524 32.588032
v 4.829942 -5.216662 32.585155
v -3.253337 -4.770956 26.936432
v -3.270645 -5.278303 26.934744
v -4.413512 -4.750984 32.823162
v -4.430820 -5.258331 32.821472
v 9.004779 -4.209656 23.753143
v 9.064030 -4.713327 23.730604
v 12.976399 -3.943308 28.242605
v 13.035651 -4.446980 28.220074
v 3.299196 -4.743512 26.780790
v 3.321697 -5.250649 26.777912
v 4.807441 -4.709524 32.588032
v 4.829942 -5.216662 32.585155
v 12.327397 -3.299827 18.593243
v 12.412320 -3.796269 18.529711
v 18.019802 -2.548932 20.334707
v 18.104725 -3.045374 20.271175
v 9.004779 -4.209656 23.753143
v 9.064030 -4.713327 23.730604
v 12.976399 -3.943308 28.242605
v 13.035651 -4.446980 28.220074
v 12.086514 -2.323335 13.055285
v 12.165296 -2.808805 12.929527
v 17.367392 -0.836966 10.625668
v 17.446175 -1.322437 10.499909
v 12.327397 -3.299827 18.593243
v 12.412320 -3.796269 18.529711
v 18.019802 -2.548932 20.334707
v 18.104725 -3.045374 20.271175
vn -0.1858 0.9645 0.1875
vn 0.9817 0.1766 -0.0711
vn -0.2391 -0.1686 0.9562
vn 0.1858 -0.9645 -0.1876
vn -0.4929 0.1511 -0.8569
vn -0.9841 -0.1718 0.0450
vn -0.1110 0.9429 0.3141
vn 0.6111 0.2968 -0.7338
vn 0.4929 -0.1511 0.8569
vn 0.1111 -0.9429 -0.3141
vn -0.9128 0.0709 -0.4023
vn -0.5774 -0.3006 0.7591
vn -0.0680 0.9420 0.3286
vn 0.3847 0.3282 -0.8627
vn 0.9128 -0.0709 0.4023
vn 0.0680 -0.9420 -0.3286
vn -0.8912 0.0788 -0.4468
vn -0.3861 -0.3281 0.8621
vn -0.1046 0.9451 0.3095
vn 0.5905 0.3063 -0.7467
vn 0.8912 -0.0788 0.4468
vn 0.1046 -0.9451 -0.3095
vn -0.7328 0.1182 -0.6701
vn -0.5856 -0.3069 0.7503
vn -0.1145 0.9471 0.2998
vn 0.6485 0.2996 -0.6998
vn 0.7328 -0.1182 0.6701
vn 0.1145 -0.9471 -0.2998
vn -0.7159 0.1212 -0.6876
vn -0.6491 -0.2995 0.6993
vn -0.1592 0.9522 0.2606
vn 0.8469 0.2494 -0.4696
vn 0.7159 -0.1212 0.6876
vn 0.1592 -0.9522 -0.2607
vn -0.1362 0.1720 -0.9756
vn -0.8606 -0.2456 0.4461
vn -0.1772 0.9734 0.1451
vn 0.9741 0.1394 0.1781
vn 0.1362 -0.1720 0.9756
vn 0.1772 -0.9734 -0.1451
vn 0.3557 0.1623 -0.9204
vn -0.9759 -0.1417 -0.1660
vn -0.1483 0.9862 0.0733
vn 0.8207 0.0717 0.5668
vn -0.3557 -0.1623 0.9204
vn 0.1483 -0.9862 -0.0733
vn 0.7386 0.1171 -0.6639
vn -0.8190 -0.0713 -0.5693
vn -0.0810 0.9966 0.0121
vn 0.4440 0.0117 0.8959
vn -0.7386 -0.1171 0.6639
vn 0.0810 -0.9966 -0.0121
vn 0.9833 0.0316 -0.1792
vn -0.4423 -0.0116 -0.8968
vn 0.0166 0.9998 -0.0060
vn -0.0905 -0.0058 0.9959
vn -0.9833 -0.0316 0.1792
vn -0.0166 -0.9998 0.0060
vn 0.9324 -0.0627 0.3558
vn 0.0910 0.0058 -0.9958
vn 0.1079 0.9937 0.0292
vn -0.5934 0.0284 0.8044
vn -0.9324 0.0627 -0.3558
vn -0.1080 -0.9937 -0.0292
vn 0.6198 -0.1363 0.7729
vn 0.5908 -0.0281 -0.8063
vn 0.1611 0.9822 0.0965
vn -0.8928 0.0944 0.4404
vn -0.6198 0.1363 -0.7729
vn -0.1611 -0.9822 -0.0965
vn 0.2198 -0.1694 0.9607
vn 0.8919 -0.0941 -0.4424
vn 0.1829 0.9667 0.1793
vn -0.9859 0.1672 -0.0007
vn -0.2198 0.1694 -0.9607
vn -0.1829 -0.9667 -0.1792
vn -0.4123 -0.1582 0.8972
vn 0.9847 -0.1721 0.0274
vn 0.1338 0.9485 0.2873
vn -0.7294 0.2812 -0.6237
vn 0.4123 0.1582 -0.8972
vn -0.1338 -0.9484 -0.2873
vn -0.7725 -0.1103 0.6254
vn 0.7451 -0.2784 0.6060
vn 0.1124 0.9469 0.3014
vn -0.6375 0.3013 -0.7091
vn 0.7725 0.1103 -0.6254
vn -0.1124 -0.9469 -0.3014
vn -0.7662 -0.1116 0.6328
vn 0.6376 -0.3013 0.7090
vn 0.0888 0.9432 0.3202
vn -0.4961 0.3169 -0.8083
vn 0.7662 0.1116 -0.6328
vn -0.0888 -0.9432 -0.3202
vn -0.9226 -0.0670 0.3800
vn 0.4994 -0.3166 0.8065
vn 0.0648 0.9418 0.3300
vn -0.3681 0.3293 -0.8695
vn 0.9226 0.0670 -0.3800
vn -0.0648 -0.9418 -0.3300
vn -0.8936 -0.0779 0.4421
vn 0.3658 -0.3295 0.8704
vn 0.1356 0.9443 0.2999
vn -0.7200 0.2746 -0.6374
vn 0.8936 0.0779 -0.4421
vn -0.1357 -0.9443 -0.2998
vn -0.2914 -0.1661 0.9421
vn 0.6886 -0.2797 0.6691
vn 0.1833 0.9704 0.1573
vn -0.9842 0.1500 0.0941
vn 0.2914 0.1661 -0.9421
vn -0.1833 -0.9704 -0.1574
vn 0.3719 -0.1612 0.9142
vn 0.9830 -0.1470 -0.1102
vn 0.1418 0.9880 0.0616
vn -0.7778 0.0598 0.6256
vn -0.3719 0.1612 -0.9142
vn -0.1418 -0.9880 -0.0616
vn 0.7965 -0.1050 0.5954
vn 0.7746 -0.0591 -0.6296
vn 0.0727 0.9973 0.0108
vn -0.4030 0.0106 0.9151
vn -0.7965 0.1050 -0.5954
vn -0.0727 -0.9973 -0.0109
vn 0.9805 -0.0341 0.1934
vn 0.4022 -0.0105 -0.9155
vn -0.0045 1.0000 -0.0045
vn 0.0255 -0.0044 0.9997
vn -0.9805 0.0341 -0.1934
vn 0.0045 -1.0000 0.0045
vn 0.9669 0.0443 -0.2514
vn -0.0238 0.0044 -0.9997
vn -0.0848 0.9963 0.0161
vn 0.4684 0.0157 0.8834
vn -0.9669 -0.0443 0.2514
vn 0.0848 -0.9963 -0.0161
vn 0.7404 0.1167 -0.6619
vn -0.4676 -0.0156 -0.8838
vn -0.1527 0.9853 0.0760
vn 0.8349 0.0734 0.5454
vn -0.7404 -0.1167 0.6619
vn 0.1527 -0.9853 -0.0760
vn 0.2682 0.1673 -0.9487
vn -0.8327 -0.0728 -0.5490
vn -0.1855 0.9658 0.1812
vn 0.9846 0.1711 -0.0361
vn -0.2682 -0.1673 0.9487
vn 0.1855 -0.9658 -0.1812
vn -0.4486 0.1552 -0.8801
vn -0.9859 -0.1670 0.0137
vt -0.036073 0.081559
vt 0.557695 0.081559
vt 0.557695 0.930118
vt -0.036073 0.930118
vt 0.375000 0.750000
vt 0.625000 0.750000
vt 0.625000 1.000000
vt 0.375000 1.000000
vt 0.375000 0.000000
vt 0.625000 0.000000
vt 0.625000 0.250000
vt 0.375000 0.250000
vt 0.582600 0.410613
vt 0.832600 0.410613
vt 0.832600 0.660613
vt 0.582600 0.660613
vt 0.530429 0.587524
vt 0.780429 0.587524
vt 0.780429 0.837524
vt 0.530429 0.837524
vt 0.516914 0.276071
vt 0.766914 0.276071
vt 0.766914 0.526071
vt 0.516914 0.526071
s 0
usemtl Material
f 1/1/1 5/2/1 7/3/1 3/4/1
f 4/5/2 3/6/2 7/7/2 8/8/2
f 8/9/3 7/10/3 5/11/3 6/12/3
f 6/13/4 2/14/4 4/15/4 8/16/4
f 2/17/5 1/18/5 3/19/5 4/20/5
f 6/21/6 5/22/6 1/23/6 2/24/6
f 9/1/7 13/2/7 15/3/7 11/4/7
f 12/5/8 11/6/8 15/7/8 16/8/8
f 16/9/9 15/10/9 13/11/9 14/12/9
f 14/13/10 10/14/10 12/15/10 16/16/10
f 10/17/11 9/18/11 11/19/11 12/20/11
f 14/21/12 13/22/12 9/23/12 10/24/12
f 17/1/13 21/2/13 23/3/13 19/4/13
f 20/5/14 19/6/14 23/7/14 24/8/14
f 24/9/15 23/10/15 21/11/15 22/12/15
f 22/13/16 18/14/16 20/15/16 24/16/16
f 18/17/17 17/18/17 19/19/17 20/20/17
f 22/21/18 21/22/18 17/23/18 18/24/18
f 25/1/19 29/2/19 31/3/19 27/4/19
f 28/5/20 27/6/20 31/7/20 32/8/20
f 32/9/21 31/10/21 29/11/21 30/12/21
f 30/13/22 26/14/22 28/15/22 32/16/22
f 26/17/23 25/18/23 27/19/23 28/20/23
f 30/21/24 29/22/24 25/23/24 26/24/24
f 33/1/25 37/2/25 39/3/25 35/4/25
f 36/5/26 35/6/26 39/7/26 40/8/26
f 40/9/27 39/10/27 37/11/27 38/12/27
f 38/13/28 34/14/28 36/15/28 40/16/28
f 34/17/29 33/18/29 35/19/29 36/20/29
f 38/21/30 37/22/30 33/23/30 34/24/30
f 41/1/31 45/2/31 47/3/31 43/4/31
f 44/5/32 43/6/32 47/7/32 48/8/32
f 48/9/33 47/10/33 45/11/33 46/12/33
f 46/13/34 42/14/34 44/15/34 48/16/34
f 42/17/35 41/18/35 43/19/35 44/20/35
f 46/21/36 45/22/36 41/23/36 42/24/36
f 49/1/37 53/2/37 55/3/37 51/4/37
f 52/5/38 51/6/38 55/7/38 56/8/38
f 56/9/39 55/10/39 53/11/39 54/12/39
f 54/13/40 50/14/40 52/15/40 56/16/40
f 50/17/41 49/18/41 51/19/41 52/20/41
f 54/21/42 53/22/42 49/23/42 50/24/42
f 57/1/43 61/2/43 63/3/43 59/4/43
f 60/5/44 59/6/44 63/7/44 64/8/44
f 64/9/45 63/10/45 61/11/45 62/12/45
f 62/13/46 58/14/46 60/15/46 64/16/46
f 58/17/47 57/18/47 59/19/47 60/20/47
f 62/21/48 61/22/48 57/23/48 58/24/48
f 65/1/49 69/2/49 71/3/49 67/4/49
f 68/5/50 67/6/50 71/7/50 72/8/50
f 72/9/51 71/10/51 69/11/51 70/12/51
f 70/13/52 66/14/52 68/15/52 72/16/52
f 66/17/53 65/18/53 67/19/53 68/20/53
f 70/21/54 69/22/54 65/23/54 66/24/54
f 73/1/55 77/2/55 79/3/55 75/4/55
f 76/5/56 75/6/56 79/7/56 80/8/56
f 80/9/57 79/10/57 77/11/57 78/12/57
f 78/13/58 74/14/58 76/15/58 80/16/58
f 74/17/59 73/18/59 75/19/59 76/20/59
f 78/21/60 77/22/60 73/23/60 74/24/60
f 81/1/61 85/2/61 87/3/61 83/4/61
f 84/5/62 83/6/62 87/7/62 88/8/62
f 88/9/63 87/10/63 85/11/63 86/12/63
f 86/13/64 82/14/64 84/15/64 88/16/64
f 82/17/65 81/18/65 83/19/65 84/20/65
f 86/21/66 85/22/66 81/23/66 82/24/66
f 89/1/67 93/2/67 95/3/67 91/4/67
f 92/5/68 91/6/68 95/7/68 96/8/68
f 96/9/69 95/10/69 93/11/69 94/12/69
f 94/13/70 90/14/70 92/15/70 96/16/70
f 90/17/71 89/18/71 91/19/71 92/20/71
f 94/21/72 93/22/72 89/23/72 90/24/72
f 97/1/73 101/2/73 103/3/73 99/4/73
f 100/5/74 99/6/74 103/7/74 104/8/74
f 104/9/75 103/10/75 101/11/75 102/12/75
f 102/13/76 98/14/76 100/15/76 104/16/76
f 98/17/77 97/18/77 99/19/77 100/20/77
f 102/21/78 101/22/78 97/23/78 98/24/78
f 105/1/79 109/2/79 111/3/79 107/4/79
f 108/5/80 107/6/80 111/7/80 112/8/80
f 112/9/81 111/10/81 109/11/81 110/12/81
f 110/13/82 106/14/82 108/15/82 112/16/82
f 106/17/83 105/18/83 107/19/83 108/20/83
f 110/21/84 109/22/84 105/23/84 106/24/84
f 113/1/85 117/2/85 119/3/85 115/4/85
f 116/5/86 115/6/86 119/7/86 120/8/86
f 120/9/87 119/10/87 117/11/87 118/12/87
f 118/13/88 114/14/88 116/15/88 120/16/88
f 114/17/89 113/18/89 115/19/89 116/20/89
f 118/21/90 117/22/90 113/23/90 114/24/90
f 121/1/91 125/2/91 127/3/91 123/4/91
f 124/5/92 123/6/92 127/7/92 128/8/92
f 128/9/93 127/10/93 125/11/93 126/12/93
f 126/13/94 122/14/94 124/15/94 128/16/94
f 122/17/95 121/18/95 123/19/95 124/20/95
f 126/21/96 125/22/96 121/23/96 122/24/96
f 129/1/97 133/2/97 135/3/97 131/4/97
f 132/5/98 131/6/98 135/7/98 136/8/98
f 136/9/99 135/10/99 133/11/99 134/12/99
f 134/13/100 130/14/100 132/15/100 136/16/100
f 130/17/101 129/18/101 131/19/101 132/20/101
f 134/21/102 133/22/102 129/23/102 130/24/102
f 137/1/103 141/2/103 143/3/103 139/4/103
f 140/5/104 139/6/104 143/7/104 144/8/104
f 144/9/105 143/10/105 141/11/105 142/12/105
f 142/13/106 138/14/106 140/15/106 144/16/106
f 138/17/107 137/18/107 139/19/107 140/20/107
f 142/21/108 141/22/108 137/23/108 138/24/108
f 145/1/109 149/2/109 151/3/109 147/4/109
f 148/5/110 147/6/110 151/7/110 152/8/110
f 152/9/111 151/10/111 149/11/111 150/12/111
f 150/13/112 146/14/112 148/15/112 152/16/112
f 146/17/113 145/18/113 147/19/113 148/20/113
f 150/21/114 149/22/114 145/23/114 146/24/114
f 153/1/115 157/2/115 159/3/115 155/4/115
f 156/5/116 155/6/116 159/7/116 160/8/116
f 160/9/117 159/10/117 157/11/117 158/12/117
f 158/13/118 154/14/118 156/15/118 160/16/118
f 154/17/119 153/18/119 155/19/119 156/20/119
f 158/21/120 157/22/120 153/23/120 154/24/120
f 161/1/121 165/2/121 167/3/121 163/4/121
f 164/5/122 163/6/122 167/7/122 168/8/122
f 168/9/123 167/10/123 165/11/123 166/12/123
f 166/13/124 162/14/124 164/15/124 168/16/124
f 162/17/125 161/18/125 163/19/125 164/20/125
f 166/21/126 165/22/126 161/23/126 162/24/126
f 169/1/127 173/2/127 175/3/127 171/4/127
f 172/5/128 171/6/128 175/7/128 176/8/128
f 176/9/129 175/10/129 173/11/129 174/12/129
f 174/13/130 170/14/130 172/15/130 176/16/130
f 170/17/131 169/18/131 171/19/131 172/20/131
f 174/21/132 173/22/132 169/23/132 170/24/132
f 177/1/133 181/2/133 183/3/133 179/4/133
f 180/5/134 179/6/134 183/7/134 184/8/134
f 184/9/135 183/10/135 181/11/135 182/12/135
f 182/13/136 178/14/136 180/15/136 184/16/136
f 178/17/137 177/18/137 179/19/137 180/20/137
f 182/21/138 181/22/138 177/23/138 178/24/138
f 185/1/139 189/2/139 191/3/139 187/4/139
f 188/5/140 187/6/140 191/7/140 192/8/140
f 192/9/141 191/10/141 189/11/141 190/12/141
f 190/13/142 186/14/142 188/15/142 192/16/142
f 186/17/143 185/18/143 187/19/143 188/20/143
f 190/21/144 189/22/144 185/23/144 186/24/144
f 193/1/145 197/2/145 199/3/145 195/4/145
f 196/5/146 195/6/146 199/7/146 200/8/146
f 200/9/147 199/10/147 197/11/147 198/12/147
f 198/13/148 194/14/148 196/15/148 200/16/148
f 194/17/149 193/18/149 195/19/149 196/20/149
f 198/21/150 197/22/150 193/23/150 194/24/150
o BézierCircle
v -4.199175 0.000000 0.000000
v -5.512686 0.221599 -1.256749
v -6.852358 0.428415 -2.429663
v -8.189371 0.624911 -3.544045
v -9.494905 0.815547 -4.625197
v -10.740141 1.004785 -5.698419
v -11.896255 1.197086 -6.789014
v -12.934429 1.396913 -7.922284
v -13.825842 1.608725 -9.123530
v -14.541674 1.836984 -10.418054
v -15.053102 2.086152 -11.831158
v -15.331309 2.360691 -13.388143
v -15.347474 2.665061 -15.114310
v -15.088645 3.035555 -17.215487
v -14.610430 3.393314 -19.244438
v -13.923003 3.734624 -21.180107
v -13.036536 4.055773 -23.001432
v -11.961201 4.353046 -24.687353
v -10.707170 4.622731 -26.216810
v -9.284614 4.861114 -27.568747
v -7.703706 5.064482 -28.722101
v -5.974618 5.229120 -29.655813
v -4.107523 5.351317 -30.348825
v -2.112593 5.427358 -30.780075
v 0.000000 5.453531 -30.928509
v 2.114275 5.427377 -30.780182
v 4.113638 5.351384 -30.349205
v 5.986999 5.229255 -29.656576
v 7.723269 5.064693 -28.723303
v 9.311358 4.861404 -27.570391
v 10.740179 4.623088 -26.218836
v 11.998642 4.353451 -24.689650
v 13.075658 4.056196 -23.003830
v 13.960137 3.735026 -21.182383
v 14.640993 3.393644 -19.246311
v 15.107135 3.035755 -17.216619
v 15.347474 2.665061 -15.114310
v 15.310714 2.356365 -13.363607
v 15.005625 2.078895 -11.789999
v 14.461838 1.828008 -10.367149
v 13.708982 1.599060 -9.068721
v 12.776684 1.387407 -7.868376
v 11.694574 1.188405 -6.739779
v 10.492282 0.997410 -5.656591
v 9.199435 0.809777 -4.592476
v 7.845663 0.620864 -3.521097
v 6.460593 0.426027 -2.416116
v 5.073855 0.220620 -1.251198
v 3.715077 0.000000 0.000000
v 1.821253 -0.276936 1.570580
v -0.253573 -0.502545 2.850077
v -2.445546 -0.689236 3.908849
v -4.690811 -0.849412 4.817256
v -6.925513 -0.995481 5.645654
v -9.085797 -1.139849 6.464403
v -11.107808 -1.294921 7.343860
v -12.927691 -1.473103 8.354383
v -14.481590 -1.686803 9.566333
v -15.705652 -1.948425 11.050065
v -16.536022 -2.270376 12.875939
v -16.908844 -2.665061 15.114310
v -16.838148 -3.043094 17.258242
v -16.427229 -3.401834 19.292757
v -15.705148 -3.738578 21.202528
v -14.700973 -4.050622 22.972221
v -13.443769 -4.335265 24.586506
v -11.962601 -4.589800 26.030050
v -10.286533 -4.811527 27.287523
v -8.444633 -4.997741 28.343594
v -6.465964 -5.145738 29.182930
v -4.379592 -5.252816 29.790199
v -2.214583 -5.316271 30.150072
v 0.000000 -5.333401 30.247219
v 2.122906 -5.303717 30.078873
v 4.181947 -5.229848 29.659943
v 6.152023 -5.114541 29.005999
v 8.008033 -4.960539 28.132614
v 9.724875 -4.770590 27.055359
v 11.277451 -4.547439 25.789808
v 12.640657 -4.293832 24.351534
v 13.789394 -4.012516 22.756105
v 14.698562 -3.706234 21.019096
v 15.343058 -3.377734 19.156078
v 15.697781 -3.029761 17.182627
v 15.737637 -2.665061 15.114310
v 15.355085 -2.278277 12.920752
v 14.536317 -1.961328 11.123244
v 13.342441 -1.702247 9.653920
v 11.834565 -1.489066 8.444912
v 10.073803 -1.309819 7.428349
v 8.121262 -1.152538 6.536366
v 6.038052 -1.005257 5.701094
v 3.885284 -0.856008 4.854663
v 1.724067 -0.692825 3.929207
v -0.384489 -0.503741 2.856856
v -2.379273 -0.276788 1.569742
l 201 202
l 202 203
l 203 204
l 204 205
l 205 206
l 206 207
l 207 208
l 208 209
l 209 210
l 210 211
l 211 212
l 212 213
l 213 214
l 214 215
l 215 216
l 216 217
l 217 218
l 218 219
l 219 220
l 220 221
l 221 222
l 222 223
l 223 224
l 224 225
l 225 226
l 226 227
l 227 228
l 228 229
l 229 230
l 230 231
l 231 232
l 232 233
l 233 234
l 234 235
l 235 236
l 236 237
l 237 238
l 238 239
l 239 240
l 240 241
l 241 242
l 242 243
l 243 244
l 244 245
l 245 246
l 246 247
l 247 248
l 248 249
l 249 250
l 250 251
l 251 252
l 252 253
l 253 254
l 254 255
l 255 256
l 256 257
l 257 258
l 258 259
l 259 260
l 260 261
l 261 262
l 262 263
l 263 264
l 264 265
l 265 266
l 266 267
l 267 268
l 268 269
l 269 270
l 270 271
l 271 272
l 272 273
l 273 274
l 274 275
l 275 276
l 276 277
l 277 278
l 278 279
l 279 280
l 280 281
l 281 282
l 282 283
l 283 284
l 284 285
l 285 286
l 286 287
l 287 288
l 288 289
l 289 290
l 290 291
l 291 292
l 292 293
l 293 294
l 294 295
l 295 296
l 296 201
