# Blender 5.0.1
# www.blender.org
mtllib track1.mtl
o Cube
v 71.000046 0.684224 27.078665
v 70.528107 0.253095 26.873571
v 75.005409 0.806411 16.915051
v 74.533463 0.375282 16.709955
v 77.327850 -1.032914 29.765585
v 77.196404 -1.534968 29.706160
v 82.457237 -1.087454 20.118029
v 82.325798 -1.589508 20.058603
v 64.924416 3.088619 24.961136
v 64.387482 2.681398 24.736673
v 68.663208 3.285510 14.700747
v 68.126266 2.878289 14.476286
v 71.000046 0.684224 27.078665
v 70.528107 0.253095 26.873571
v 75.005409 0.806411 16.915051
v 74.533463 0.375282 16.709955
v 58.956055 5.626135 23.048378
v 58.395462 5.228271 22.819927
v 62.537666 5.863567 12.735221
v 61.977074 5.465703 12.506768
v 64.924416 3.088619 24.961136
v 64.387482 2.681398 24.736673
v 68.663208 3.285510 14.700747
v 68.126266 2.878289 14.476286
v 53.043777 8.231834 21.275961
v 52.471024 7.838728 21.047314
v 56.500595 8.499081 10.922982
v 55.927837 8.105974 10.694334
v 58.956055 5.626135 23.048378
v 58.395462 5.228271 22.819927
v 62.537666 5.863567 12.735221
v 61.977074 5.465703 12.506768
v 47.146717 10.866708 19.601654
v 46.569942 10.474851 19.375217
v 50.498852 11.156171 9.216506
v 49.922073 10.764313 8.990070
v 53.043777 8.231834 21.275961
v 52.471024 7.838728 21.047314
v 56.500595 8.499081 10.922982
v 55.927837 8.105974 10.694334
v 41.219231 13.495721 18.002949
v 40.646313 13.101661 17.780849
v 44.481667 13.800961 7.590936
v 43.908752 13.406901 7.368835
v 47.146717 10.866708 19.601654
v 46.569942 10.474851 19.375217
v 50.498852 11.156171 9.216506
v 49.922073 10.764313 8.990070
v 35.215374 16.080812 16.442171
v 34.653709 15.681458 16.226288
v 38.397015 16.397263 6.006413
v 37.835346 15.997906 5.790531
v 41.219231 13.495721 18.002949
v 40.646313 13.101661 17.780849
v 44.481667 13.800961 7.590936
v 43.908752 13.406901 7.368835
v 29.106174 18.594994 14.894283
v 28.563679 18.187359 14.686584
v 32.212788 18.918880 4.436787
v 31.670292 18.511246 4.229085
v 35.215374 16.080812 16.442171
v 34.653709 15.681458 16.226288
v 38.397015 16.397263 6.006413
v 37.835346 15.997906 5.790531
v 22.854694 21.002754 13.340474
v 22.341669 20.583490 13.143500
v 25.890917 21.330265 2.862738
v 25.377892 20.910999 2.665764
v 29.106174 18.594994 14.894283
v 28.563679 18.187359 14.686584
v 32.212788 18.918880 4.436787
v 31.670292 18.511246 4.229085
v 16.414293 23.252277 11.758617
v 15.945498 22.817484 11.576051
v 19.384348 23.579210 1.261866
v 18.915552 23.144417 1.079298
v 22.854694 21.002754 13.340474
v 22.341669 20.583490 13.143500
v 25.890917 21.330265 2.862738
v 25.377892 20.910999 2.665764
v 9.726848 25.261009 10.120470
v 9.325480 24.806190 9.958199
v 12.635857 25.582256 -0.394007
v 12.234489 25.127438 -0.556279
v 16.414293 23.252277 11.758617
v 15.945498 22.817484 11.576051
v 19.384348 23.579210 1.261866
v 18.915552 23.144417 1.079298
v 2.733738 26.890419 8.390913
v 2.439024 26.411428 8.259152
v 5.590957 27.199280 -2.139122
v 5.296243 26.720289 -2.270882
v 9.726848 25.261009 10.120470
v 9.325480 24.806190 9.958199
v 12.635857 25.582256 -0.394007
v 12.234489 25.127438 -0.556279
v -4.579836 27.912529 6.534496
v -4.704157 27.410929 6.450630
v -1.739281 28.199450 -4.002333
v -1.863601 27.697849 -4.086200
v 2.733738 26.890419 8.390913
v 2.439024 26.411428 8.259152
v 5.590957 27.199280 -2.139122
v 5.296243 26.720289 -2.270882
v -12.105969 28.045065 4.514709
v -12.002909 27.540285 4.506115
v -9.119076 28.259007 -5.987992
v -9.016014 27.754229 -5.996587
v -4.579836 27.912529 6.534496
v -4.704157 27.410929 6.450630
v -1.739281 28.199450 -4.002333
v -1.863601 27.697849 -4.086200
v -19.515709 27.195032 2.271711
v -19.199945 26.716970 2.359941
v -16.100677 27.287342 -8.106303
v -15.784915 26.809277 -8.018072
v -12.105969 28.045065 4.514709
v -12.002909 27.540285 4.506115
v -9.119076 28.259007 -5.987992
v -9.016014 27.754229 -5.996587
v -26.375700 25.431087 -0.200942
v -25.904179 24.996407 -0.024491
v -22.378042 25.487680 -10.369716
v -21.906523 25.053003 -10.193265
v -19.515709 27.195032 2.271711
v -19.199945 26.716970 2.359941
v -16.100677 27.287342 -8.106303
v -15.784915 26.809277 -8.018072
v -32.513191 23.024137 -2.848822
v -31.950605 22.630070 -2.601767
v -27.930767 23.112017 -12.766986
v -27.368183 22.717949 -12.519930
v -26.375700 25.431087 -0.200942
v -25.904179 24.996407 -0.024491
v -22.378042 25.487680 -10.369716
v -21.906523 25.053003 -10.193265
v -37.996513 20.226498 -5.667071
v -37.389473 19.861498 -5.366441
v -32.875061 20.381474 -15.314825
v -32.268021 20.016474 -15.014195
v -32.513191 23.024137 -2.848822
v -31.950605 22.630070 -2.601767
v -27.930767 23.112017 -12.766986
v -27.368183 22.717949 -12.519930
v -42.981255 17.216805 -8.685743
v -42.359394 16.868378 -8.345515
v -37.368313 17.453899 -18.049753
v -36.746460 17.105471 -17.709528
v -37.996513 20.226498 -5.667071
v -37.389473 19.861498 -5.366441
v -32.875061 20.381474 -15.314825
v -32.268021 20.016474 -15.014195
v -47.625301 14.114782 -11.953653
v -47.008324 13.771663 -11.585780
v -41.556808 14.438256 -21.019230
v -40.939827 14.095139 -20.651356
v -42.981255 17.216805 -8.685743
v -42.359394 16.868378 -8.345515
v -37.368313 17.453899 -18.049753
v -36.746460 17.105471 -17.709528
v -52.065136 11.008869 -15.531129
v -51.468117 10.660943 -15.147311
v -45.564732 11.416806 -24.279175
v -44.967709 11.068881 -23.895355
v -47.625301 14.114782 -11.953653
v -47.008324 13.771663 -11.585780
v -41.556808 14.438256 -21.019230
v -40.939827 14.095139 -20.651356
v -56.417248 7.978401 -19.488560
v -55.854080 7.616243 -19.102112
v -49.498821 8.463514 -27.894798
v -48.935658 8.101357 -27.508350
v -52.065136 11.008869 -15.531129
v -51.468117 10.660943 -15.147311
v -45.564732 11.416806 -24.279175
v -44.967709 11.068881 -23.895355
v -60.783676 5.110876 -23.904806
v -60.269424 4.725650 -23.532673
v -53.455059 5.658871 -31.941057
v -52.940804 5.273645 -31.568926
v -56.417248 7.978401 -19.488560
v -55.854080 7.616243 -19.102112
v -49.498821 8.463514 -27.894798
v -48.935658 8.101357 -27.508350
v -65.251770 2.516915 -28.857904
v -64.804237 2.101135 -28.522598
v -57.520718 3.103025 -36.497368
v -57.073181 2.687245 -36.162064
v -60.783676 5.110876 -23.904806
v -60.269424 4.725650 -23.532673
v -53.455059 5.658871 -31.941057
v -52.940804 5.273645 -31.568926
v -69.909294 0.326629 -34.434261
v -69.547089 -0.122891 -34.162415
v -61.734138 0.939935 -41.588093
v -61.371941 0.490415 -41.316246
v -65.251770 2.516915 -28.857904
v -64.804237 2.101135 -28.522598
v -57.520718 3.103025 -36.497368
v -57.073181 2.687245 -36.162064
v -74.836098 -1.327654 -40.994373
v -74.604721 -1.814258 -40.840805
v -65.830032 -0.685055 -47.057835
v -65.598656 -1.171658 -46.904270
v -69.909294 0.326629 -34.434261
v -69.547089 -0.122891 -34.162415
v -61.734138 0.939935 -41.588093
v -61.371941 0.490415 -41.316246
v -79.031273 -1.934265 -48.874256
v -78.913475 -2.437673 -48.830517
v -69.121735 -1.411144 -53.367500
v -69.003937 -1.914552 -53.323761
v -74.836098 -1.327654 -40.994373
v -74.604721 -1.814258 -40.840805
v -65.830032 -0.685055 -47.057835
v -65.598656 -1.171658 -46.904270
v -82.189163 -2.000216 -56.978123
v -82.139153 -2.507132 -56.993092
v -71.794258 -1.695477 -60.294838
v -71.744247 -2.202393 -60.309807
v -79.031273 -1.934265 -48.874256
v -78.913475 -2.437673 -48.830517
v -69.121735 -1.411144 -53.367500
v -69.003937 -1.914552 -53.323761
v -84.400070 -1.763024 -65.241470
v -84.397987 -2.270140 -65.285934
v -73.721092 -1.696152 -67.552292
v -73.719002 -2.203267 -67.596756
v -82.189163 -2.000216 -56.978123
v -82.139153 -2.507132 -56.993092
v -71.794258 -1.695477 -60.294838
v -71.744247 -2.202393 -60.309807
v -85.851837 -1.393679 -73.630615
v -85.890099 -1.899906 -73.692543
v -75.008499 -1.572678 -74.934746
v -75.046753 -2.078905 -74.996674
v -84.400070 -1.763024 -65.241470
v -84.397987 -2.270140 -65.285934
v -73.721092 -1.696152 -67.552292
v -73.719002 -2.203267 -67.596756
v -86.500656 -0.960442 -82.134933
v -86.575439 -1.465200 -82.206924
v -75.607109 -1.389765 -82.354248
v -75.681892 -1.894522 -82.426239
v -85.851837 -1.393679 -73.630615
v -85.890099 -1.899906 -73.692543
v -75.008499 -1.572678 -74.934746
v -75.046753 -2.078905 -74.996674
v -86.111580 -0.527627 -90.729553
v -86.221344 -1.030458 -90.806267
v -75.312889 -1.209812 -89.695305
v -75.422646 -1.712643 -89.772034
v -86.500656 -0.960442 -82.134933
v -86.575439 -1.465200 -82.206924
v -75.607109 -1.389765 -82.354248
v -75.681892 -1.894522 -82.426239
v -84.635803 -0.160159 -99.314636
v -84.780396 -0.660463 -99.394424
v -74.145119 -1.089971 -96.833618
v -74.289711 -1.590276 -96.913406
v -86.111580 -0.527627 -90.729553
v -86.221344 -1.030458 -90.806267
v -75.312889 -1.209812 -89.695305
v -75.422646 -1.712643 -89.772034
v -81.950729 0.079450 -107.658363
v -82.128914 -0.417544 -107.746086
v -72.010635 -1.076786 -103.700668
v -72.188828 -1.573780 -103.788391
v -84.635803 -0.160159 -99.314636
v -84.780396 -0.660463 -99.394424
v -74.145119 -1.089971 -96.833618
v -74.289711 -1.590276 -96.913406
v -78.169243 0.088125 -115.512245
v -78.339516 -0.409213 -115.608116
v -68.842415 -1.052843 -110.257874
v -69.012695 -1.550181 -110.353737
v -81.950729 0.079450 -107.658363
v -82.128914 -0.417544 -107.746086
v -72.010635 -1.076786 -103.700668
v -72.188828 -1.573780 -103.788391
v -73.458420 0.042137 -122.805649
v -73.603264 -0.456759 -122.912811
v -64.828300 -1.009877 -116.415169
v -64.973145 -1.508773 -116.522324
v -78.169243 0.088125 -115.512245
v -78.339516 -0.409213 -115.608116
v -68.842415 -1.052843 -110.257874
v -69.012695 -1.550181 -110.353737
v -67.724518 -0.005847 -129.491180
v -67.840721 -0.506233 -129.607239
v -60.109097 -0.964785 -121.874588
v -60.225296 -1.465171 -121.990646
v -73.458420 0.042137 -122.805649
v -73.603264 -0.456759 -122.912811
v -64.828300 -1.009877 -116.415169
v -64.973145 -1.508773 -116.522324
v -60.934349 -0.055353 -135.298538
v -61.019539 -0.557132 -135.419235
v -54.707870 -0.917980 -126.473297
v -54.793056 -1.419760 -126.594002
v -67.724518 -0.005847 -129.491180
v -67.840721 -0.506233 -129.607239
v -60.109097 -0.964785 -121.874588
v -60.225296 -1.465171 -121.990646
v -53.086124 -0.105440 -139.761246
v -53.140400 -0.608479 -139.880463
v -48.607777 -0.870336 -129.903015
v -48.662052 -1.373375 -130.022247
v -60.934349 -0.055353 -135.298538
v -61.019539 -0.557132 -135.419235
v -54.707870 -0.917980 -126.473297
v -54.793056 -1.419760 -126.594002
v -44.548634 -0.154550 -142.677841
v -44.575768 -0.658678 -142.789124
v -41.990532 -0.823338 -132.132507
v -42.017666 -1.327465 -132.243790
v -53.086124 -0.105440 -139.761246
v -53.140400 -0.608479 -139.880463
v -48.607777 -0.870336 -129.903015
v -48.662052 -1.373375 -130.022247
v -35.699459 -0.201525 -144.055206
v -35.705673 -0.706558 -144.153748
v -35.016407 -0.778118 -133.206009
v -35.022621 -1.283151 -133.304550
v -44.548634 -0.154550 -142.677841
v -44.575768 -0.658678 -142.789124
v -41.990532 -0.823338 -132.132507
v -42.017666 -1.327465 -132.243790
v -26.788763 -0.243370 -143.834457
v -26.780043 -0.749097 -143.918655
v -27.922672 -0.737620 -133.008072
v -27.913952 -1.243347 -133.092270
v -35.699459 -0.201525 -144.055206
v -35.705673 -0.706558 -144.153748
v -35.016407 -0.778118 -133.206009
v -35.022621 -1.283151 -133.304550
v -17.877859 -0.282549 -142.004959
v -17.856340 -0.788830 -142.073059
v -21.176905 -0.699515 -131.618805
v -21.155386 -1.205796 -131.686905
v -26.788763 -0.243370 -143.834457
v -26.780043 -0.749097 -143.918655
v -27.922672 -0.737620 -133.008072
v -27.913952 -1.243347 -133.092270
v -9.475115 -0.324254 -138.272049
v -9.446273 -0.831021 -138.321548
v -14.980274 -0.658754 -128.855164
v -14.951431 -1.165521 -128.904648
v -17.877859 -0.282549 -142.004959
v -17.856340 -0.788830 -142.073059
v -21.176905 -0.699515 -131.618805
v -21.155386 -1.205796 -131.686905
v -2.142537 -0.366518 -132.866821
v -2.113807 -0.873669 -132.898743
v -9.456336 -0.617237 -124.762901
v -9.427606 -1.124389 -124.794807
v -9.475115 -0.324254 -138.272049
v -9.446273 -0.831021 -138.321548
v -14.980274 -0.658754 -128.855164
v -14.951431 -1.165521 -128.904648
v 3.921734 -0.407629 -126.353424
v 3.944397 -0.915050 -126.371437
v -4.632115 -0.576647 -119.562012
v -4.609454 -1.084068 -119.580017
v -2.142537 -0.366518 -132.866821
v -2.113807 -0.873669 -132.898743
v -9.456336 -0.617237 -124.762901
v -9.427606 -1.124389 -124.794807
v 8.831555 -0.446732 -119.216599
v 8.844848 -0.954311 -119.224777
v -0.486625 -0.537853 -113.512398
v -0.473332 -1.045432 -113.520561
v 3.921734 -0.407629 -126.353424
v 3.944397 -0.915050 -126.371437
v -4.632115 -0.576647 -119.562012
v -4.609454 -1.084068 -119.580017
v 12.921680 -0.483822 -111.703384
v 12.924288 -0.991464 -111.704712
v 3.069577 -0.500885 -106.977722
v 3.072183 -1.008527 -106.979042
v 8.831555 -0.446732 -119.216599
v 8.844848 -0.954311 -119.224777
v -0.486625 -0.537853 -113.512398
v -0.473332 -1.045432 -113.520561
v 16.186689 -0.453457 -103.841568
v 16.199306 -0.961054 -103.845818
v 5.931232 -0.531162 -100.073235
v 5.943849 -1.038760 -100.077484
v 12.921680 -0.483822 -111.703384
v 12.924288 -0.991464 -111.704712
v 3.069577 -0.500885 -106.977722
v 3.072183 -1.008527 -106.979042
v 18.814959 -0.397335 -95.811821
v 18.846338 -0.904698 -95.820099
v 8.282124 -0.586829 -92.926682
v 8.313504 -1.094193 -92.934967
v 16.186689 -0.453457 -103.841568
v 16.199306 -0.961054 -103.845818
v 5.931232 -0.531162 -100.073235
v 5.943849 -1.038760 -100.077484
v 20.788145 -0.342201 -87.582756
v 20.838488 -0.849145 -87.592064
v 10.058835 -0.641150 -85.595421
v 10.109179 -1.148094 -85.604729
v 18.814959 -0.397335 -95.811821
v 18.846338 -0.904698 -95.820099
v 8.282124 -0.586829 -92.926682
v 8.313504 -1.094193 -92.934967
v 21.909475 -0.288253 -79.295784
v 21.978508 -0.794606 -79.303680
v 11.085355 -0.693953 -78.019585
v 11.154387 -1.200306 -78.027473
v 20.788145 -0.342201 -87.582756
v 20.838488 -0.849145 -87.592064
v 10.058835 -0.641150 -85.595421
v 10.109179 -1.148094 -85.604729
v 22.607759 -0.234521 -71.011528
v 22.695251 -0.740110 -71.016487
v 11.744284 -0.746201 -70.365982
v 11.831776 -1.251790 -70.370941
v 21.909475 -0.288253 -79.295784
v 21.978508 -0.794606 -79.303680
v 11.085355 -0.693953 -78.019585
v 11.154387 -1.200306 -78.027473
v 22.926352 -0.180822 -62.736790
v 23.032061 -0.685472 -62.737556
v 12.064272 -0.798079 -62.649220
v 12.169983 -1.302729 -62.649986
v 22.607759 -0.234521 -71.011528
v 22.695251 -0.740110 -71.016487
v 11.744284 -0.746201 -70.365982
v 11.831776 -1.251790 -70.370941
v 22.784657 -0.126659 -54.493824
v 22.908466 -0.630186 -54.489250
v 11.953438 -0.850064 -54.884418
v 12.077247 -1.353590 -54.879841
v 22.926352 -0.180822 -62.736790
v 23.032061 -0.685472 -62.737556
v 12.064272 -0.798079 -62.649220
v 12.169983 -1.302729 -62.649986
v 22.284435 -0.071160 -46.290047
v 22.426468 -0.573353 -46.279060
v 11.506085 -0.902976 -47.110722
v 11.648121 -1.405169 -47.099735
v 22.784657 -0.126659 -54.493824
v 22.908466 -0.630186 -54.489250
v 11.953438 -0.850064 -54.884418
v 12.077247 -1.353590 -54.879841
v 21.513073 -0.013935 -38.119820
v 21.673553 -0.514559 -38.101368
v 10.806835 -0.957157 -39.342037
v 10.967319 -1.457781 -39.323586
v 22.284435 -0.071160 -46.290047
v 22.426468 -0.573353 -46.279060
v 11.506085 -0.902976 -47.110722
v 11.648121 -1.405169 -47.099735
v 20.460657 0.045847 -29.987789
v 20.640020 -0.452929 -29.960657
v 9.845016 -1.013353 -31.590723
v 10.024378 -1.512128 -31.563591
v 21.513073 -0.013935 -38.119820
v 21.673553 -0.514559 -38.101368
v 10.806835 -0.957157 -39.342037
v 10.967319 -1.457781 -39.323586
v 19.084831 0.110525 -21.900578
v 19.284117 -0.386009 -21.862925
v 8.582582 -1.073682 -23.883059
v 8.781869 -1.570215 -23.845404
v 20.460657 0.045847 -29.987789
v 20.640020 -0.452929 -29.960657
v 9.845016 -1.013353 -31.590723
v 10.024378 -1.512128 -31.563591
v 17.382730 0.183534 -13.846646
v 17.603697 -0.310167 -13.795192
v 7.032281 -1.141196 -16.254116
v 7.253247 -1.634896 -16.202662
v 19.084831 0.110525 -21.900578
v 19.284117 -0.386009 -21.862925
v 8.582582 -1.073682 -23.883059
v 8.781869 -1.570215 -23.845404
v 15.282001 0.272035 -5.778504
v 15.527223 -0.217800 -5.705322
v 5.178114 -1.222198 -8.791421
v 5.423335 -1.712033 -8.718238
v 17.382730 0.183534 -13.846646
v 17.603697 -0.310167 -13.795192
v 7.032281 -1.141196 -16.254116
v 7.253247 -1.634896 -16.202662
v 12.160131 0.415538 2.425884
v 12.434746 -0.067015 2.553080
v 2.734404 -1.351575 -1.937736
v 3.009020 -1.834128 -1.810540
v 15.282001 0.272035 -5.778504
v 15.527223 -0.217800 -5.705322
v 5.178114 -1.222198 -8.791421
v 5.423335 -1.712033 -8.718238
v 9.890360 0.180151 8.789471
v 10.110996 -0.313688 8.837317
v -0.498653 -1.138081 6.540153
v -0.278016 -1.631920 6.588000
v 12.160131 0.415538 2.425884
v 12.434746 -0.067015 2.553080
v 2.734404 -1.351575 -1.937736
v 3.009020 -1.834128 -1.810540
v 9.026451 0.003549 15.924004
v 9.193396 -0.496556 15.935735
v -1.713608 -0.973635 15.197346
v -1.546663 -1.473741 15.209077
v 9.890360 0.180151 8.789471
v 10.110996 -0.313688 8.837317
v -0.498653 -1.138081 6.540153
v -0.278016 -1.631920 6.588000
v 8.912413 -0.152123 23.327871
v 9.027688 -0.656200 23.323599
v -1.929492 -0.825667 23.749456
v -1.814218 -1.329744 23.745180
v 9.026451 0.003549 15.924004
v 9.193396 -0.496556 15.935735
v -1.713608 -0.973635 15.197346
v -1.546663 -1.473741 15.209077
v 9.516041 -0.295467 30.778372
v 9.582500 -0.801909 30.769558
v -1.288438 -0.686912 32.225910
v -1.221979 -1.193354 32.217094
v 8.912413 -0.152123 23.327871
v 9.027688 -0.656200 23.323599
v -1.929492 -0.825667 23.749456
v -1.814218 -1.329744 23.745180
v 10.849302 -0.431998 38.124378
v 10.869468 -0.939529 38.119984
v 0.211435 -0.552492 40.610188
v 0.231601 -1.060023 40.605793
v 9.516041 -0.295467 30.778372
v 9.582500 -0.801909 30.769558
v -1.288438 -0.686912 32.225910
v -1.221979 -1.193354 32.217094
v 12.869419 -0.565532 45.251583
v 12.845864 -1.073008 45.260330
v 2.559397 -0.418852 48.860069
v 2.535843 -0.926328 48.868816
v 10.849302 -0.431998 38.124378
v 10.869468 -0.939529 38.119984
v 0.211435 -0.552492 40.610188
v 0.231601 -1.060023 40.605793
v 15.630059 -0.697973 52.020618
v 15.566886 -1.204274 52.052761
v 5.875552 -0.284131 56.880173
v 5.812377 -0.790431 56.912308
v 12.869419 -0.565532 45.251583
v 12.845864 -1.073008 45.260330
v 2.559397 -0.418852 48.860069
v 2.535843 -0.926328 48.868816
v 19.191893 -0.830355 58.250057
v 19.096607 -1.334330 58.317940
v 10.323516 -0.147235 64.497345
v 10.228229 -0.651209 64.565231
v 15.630059 -0.697973 52.020618
v 15.566886 -1.204274 52.052761
v 5.875552 -0.284131 56.880173
v 5.812377 -0.790431 56.912308
v 23.661060 -0.962525 63.773239
v 23.545189 -1.462982 63.888500
v 16.006157 -0.008244 71.352325
v 15.890286 -0.508701 71.467583
v 19.191893 -0.830355 58.250057
v 19.096607 -1.334330 58.317940
v 10.323516 -0.147235 64.497345
v 10.228229 -0.651209 64.565231
v 29.025902 -0.964075 68.192566
v 28.934135 -1.464483 68.328468
v 23.001165 -0.006600 77.121170
v 22.909395 -0.507008 77.257065
v 23.661060 -0.962525 63.773239
v 23.545189 -1.462982 63.888500
v 16.006157 -0.008244 71.352325
v 15.890286 -0.508701 71.467583
v 35.100090 -0.944493 71.457916
v 35.040829 -1.445503 71.603378
v 31.033995 -0.027346 81.446060
v 30.974730 -0.528356 81.591522
v 29.025902 -0.964075 68.192566
v 28.934135 -1.464483 68.328468
v 23.001165 -0.006600 77.121170
v 22.909395 -0.507008 77.257065
v 41.711487 -0.924018 73.356941
v 41.685223 -1.425626 73.504486
v 39.821026 -0.048983 83.987114
v 39.794762 -0.550592 84.134659
v 35.100090 -0.944493 71.457916
v 35.040829 -1.445503 71.603378
v 31.033995 -0.027346 81.446060
v 30.974730 -0.528356 81.591522
v 48.713631 -0.903576 73.918968
v 48.714745 -1.405753 74.061638
v 48.798080 -0.070528 84.727837
v 48.799194 -0.572705 84.870506
v 41.711487 -0.924018 73.356941
v 41.685223 -1.425626 73.504486
v 39.821026 -0.048983 83.987114
v 39.794762 -0.550592 84.134659
v 55.935184 -0.883860 73.270325
v 55.955311 -1.386557 73.404572
v 57.540993 -0.091254 83.970909
v 57.561115 -0.593952 84.105148
v 48.713631 -0.903576 73.918968
v 48.714745 -1.405753 74.061638
v 48.798080 -0.070528 84.727837
v 48.799194 -0.572705 84.870506
v 63.221848 -0.865054 71.725380
v 63.254066 -1.368223 71.850449
v 65.925529 -0.110974 82.213043
v 65.957741 -0.614143 82.338104
v 55.935184 -0.883860 73.270325
v 55.955311 -1.386557 73.404572
v 57.540993 -0.091254 83.970909
v 57.561115 -0.593952 84.105148
v 70.506905 -0.846738 69.530495
v 70.546173 -1.350343 69.646767
v 73.975822 -0.130135 79.800377
v 74.015083 -0.633739 79.916656
v 63.221848 -0.865054 71.725380
v 63.254066 -1.368223 71.850449
v 65.925529 -0.110974 82.213043
v 65.957741 -0.614143 82.338104
v 77.617188 -0.825570 66.844864
v 77.662155 -1.329649 66.951057
v 81.848969 -0.152224 76.835739
v 81.893936 -0.656303 76.941933
v 70.506905 -0.846738 69.530495
v 70.546173 -1.350343 69.646767
v 73.975822 -0.130135 79.800377
v 74.015083 -0.633739 79.916656
v 84.242233 -0.803733 63.617840
v 84.295578 -1.308270 63.711384
v 89.623512 -0.174949 73.050835
v 89.676865 -0.679486 73.144379
v 77.617188 -0.825570 66.844864
v 77.662155 -1.329649 66.951057
v 81.848969 -0.152224 76.835739
v 81.893936 -0.656303 76.941933
v 89.965492 -0.780579 59.653805
v 90.030457 -1.285567 59.729313
v 97.057281 -0.198975 67.891312
v 97.122253 -0.703962 67.966812
v 84.242233 -0.803733 63.617840
v 84.295578 -1.308270 63.711384
v 89.623512 -0.174949 73.050835
v 89.676865 -0.679486 73.144379
v 94.178223 -0.755974 54.864964
v 94.255196 -1.261400 54.913582
v 103.380615 -0.224433 60.667667
v 103.457588 -0.729858 60.716286
v 89.965492 -0.780579 59.653805
v 90.030457 -1.285567 59.729313
v 97.057281 -0.198975 67.891312
v 97.122253 -0.703962 67.966812
v 96.394508 -0.731365 49.304268
v 96.475380 -1.237189 49.320435
v 107.073120 -0.249815 51.427773
v 107.153999 -0.755639 51.443935
v 94.178223 -0.755974 54.864964
v 94.255196 -1.261400 54.913582
v 103.380615 -0.224433 60.667667
v 103.457588 -0.729858 60.716286
v 96.544418 -0.713330 44.730598
v 96.620529 -1.219263 44.755104
v 106.519241 -0.364218 40.320305
v 106.595360 -0.870151 40.344818
v 96.394508 -0.731365 49.304268
v 96.475380 -1.237189 49.320435
v 107.073120 -0.249815 51.427773
v 107.153999 -0.755639 51.443935
v 92.835381 -0.924200 40.395424
v 92.906319 -1.430092 40.434372
v 100.238213 -0.810433 32.361286
v 100.309151 -1.316325 32.400234
v 96.544418 -0.713330 44.730598
v 96.620529 -1.219263 44.755104
v 106.519241 -0.364218 40.320305
v 106.595360 -0.870151 40.344818
v 87.085564 -1.158306 35.843494
v 87.125488 -1.665346 35.869328
v 93.443642 -1.145308 26.956917
v 93.483574 -1.652348 26.982752
v 92.835381 -0.924200 40.395424
v 92.906319 -1.430092 40.434372
v 100.238213 -0.810433 32.361286
v 100.309151 -1.316325 32.400234
v 80.698174 -1.195542 31.684885
v 80.663361 -1.702829 31.673536
v 86.299515 -1.242904 22.303316
v 86.264694 -1.750190 22.291969
v 87.085564 -1.158306 35.843494
v 87.125488 -1.665346 35.869328
v 93.443642 -1.145308 26.956917
v 93.483574 -1.652348 26.982752
v 74.120613 -0.483237 28.222574
v 73.706009 -0.932478 28.037851
v 78.326622 -0.411420 18.138556
v 77.912025 -0.860661 17.953831
v 80.698174 -1.195542 31.684885
v 80.663361 -1.702829 31.673536
v 86.299515 -1.242904 22.303316
v 86.264694 -1.750190 22.291969
vn 0.2116 0.9721 0.1009
vn 0.3958 0.0044 -0.9183
vn 0.8481 -0.2756 0.4525
vn -0.2097 -0.9726 -0.1000
vn -0.6010 0.7662 -0.2276
vn -0.3925 -0.0069 0.9197
vn 0.3210 0.9372 0.1364
vn 0.3493 0.0589 -0.9352
vn 0.6010 -0.7662 0.2276
vn -0.3209 -0.9373 -0.1363
vn -0.5445 0.8186 -0.1827
vn -0.3491 -0.0591 0.9352
vn 0.3464 0.9272 0.1428
vn 0.3329 0.0750 -0.9400
vn 0.5445 -0.8186 0.1827
vn -0.3464 -0.9272 -0.1428
vn -0.5258 0.8347 -0.1634
vn -0.3329 -0.0750 0.9400
vn 0.3605 0.9214 0.1453
vn 0.3205 0.0860 -0.9434
vn 0.5258 -0.8347 0.1634
vn -0.3605 -0.9214 -0.1453
vn -0.5177 0.8421 -0.1511
vn -0.3204 -0.0860 0.9434
vn 0.3673 0.9187 0.1453
vn 0.3103 0.0940 -0.9460
vn 0.5177 -0.8421 0.1511
vn -0.3673 -0.9187 -0.1453
vn -0.5170 0.8439 -0.1434
vn -0.3103 -0.0940 0.9460
vn 0.3672 0.9191 0.1431
vn 0.3006 0.1015 -0.9483
vn 0.5170 -0.8439 0.1434
vn -0.3672 -0.9191 -0.1431
vn -0.5239 0.8403 -0.1395
vn -0.3006 -0.1016 0.9483
vn 0.3595 0.9228 0.1386
vn 0.2926 0.1063 -0.9503
vn 0.5239 -0.8403 0.1395
vn -0.3595 -0.9228 -0.1386
vn -0.5379 0.8315 -0.1388
vn -0.2925 -0.1063 0.9503
vn 0.3467 0.9285 0.1328
vn 0.2858 0.1088 -0.9521
vn 0.5379 -0.8315 0.1388
vn -0.3467 -0.9285 -0.1328
vn -0.5597 0.8166 -0.1410
vn -0.2857 -0.1088 0.9521
vn 0.3277 0.9364 0.1253
vn 0.2793 0.1103 -0.9538
vn 0.5597 -0.8166 0.1410
vn -0.3278 -0.9364 -0.1253
vn -0.5916 0.7928 -0.1467
vn -0.2793 -0.1103 0.9539
vn 0.3005 0.9467 0.1156
vn 0.2731 0.1107 -0.9556
vn 0.5916 -0.7928 0.1467
vn -0.3006 -0.9467 -0.1156
vn -0.6380 0.7538 -0.1570
vn -0.2731 -0.1107 0.9556
vn 0.2614 0.9598 0.1027
vn 0.2672 0.1097 -0.9574
vn 0.6380 -0.7538 0.1570
vn -0.2614 -0.9597 -0.1028
vn -0.7066 0.6858 -0.1745
vn -0.2672 -0.1097 0.9574
vn 0.2044 0.9752 0.0852
vn 0.2618 0.1068 -0.9592
vn 0.7066 -0.6858 0.1745
vn -0.2045 -0.9751 -0.0852
vn -0.8080 0.5530 -0.2030
vn -0.2618 -0.1068 0.9592
vn 0.1214 0.9907 0.0608
vn 0.2577 0.1012 -0.9609
vn 0.8080 -0.5530 0.2030
vn -0.1215 -0.9907 -0.0609
vn -0.9311 0.2715 -0.2436
vn -0.2577 -0.1012 0.9609
vn 0.0060 0.9997 0.0255
vn 0.2587 0.0830 -0.9624
vn 0.9311 -0.2715 0.2436
vn -0.0061 -0.9997 -0.0255
vn -0.9437 -0.1880 -0.2722
vn -0.2588 -0.0829 0.9624
vn -0.1190 0.9927 -0.0219
vn 0.2826 0.0428 -0.9583
vn 0.9437 0.1880 0.2722
vn 0.1191 -0.9926 0.0220
vn -0.7822 -0.5651 -0.2624
vn -0.2830 -0.0430 0.9582
vn -0.2348 0.9689 -0.0777
vn 0.3334 0.0142 -0.9427
vn 0.7822 0.5651 0.2624
vn 0.2350 -0.9689 0.0778
vn -0.6068 -0.7568 -0.2428
vn -0.3338 -0.0146 0.9425
vn -0.3258 0.9361 -0.1324
vn 0.3889 0.0145 -0.9212
vn 0.6069 0.7568 0.2428
vn 0.3259 -0.9361 0.1325
vn -0.4874 -0.8416 -0.2326
vn -0.3892 -0.0149 0.9211
vn -0.3866 0.9044 -0.1805
vn 0.4412 0.0328 -0.8968
vn 0.4874 0.8416 0.2326
vn 0.3867 -0.9044 0.1805
vn -0.4135 -0.8800 -0.2336
vn -0.4414 -0.0332 0.8967
vn -0.4193 0.8811 -0.2186
vn 0.4884 0.0592 -0.8706
vn 0.4135 0.8800 0.2336
vn 0.4193 -0.8811 0.2186
vn -0.3690 -0.8968 -0.2439
vn -0.4885 -0.0596 0.8705
vn -0.4289 0.8694 -0.2454
vn 0.5310 0.0882 -0.8428
vn 0.3690 0.8968 0.2439
vn 0.4289 -0.8694 0.2454
vn -0.3445 -0.9012 -0.2628
vn -0.5311 -0.0885 0.8427
vn -0.4198 0.8694 -0.2605
vn 0.5701 0.1170 -0.8132
vn 0.3445 0.9012 0.2628
vn 0.4198 -0.8694 0.2605
vn -0.3352 -0.8961 -0.2909
vn -0.5702 -0.1174 0.8131
vn -0.3950 0.8802 -0.2632
vn 0.6070 0.1440 -0.7815
vn 0.3352 0.8961 0.2909
vn 0.3950 -0.8802 0.2632
vn -0.3396 -0.8806 -0.3303
vn -0.6071 -0.1444 0.7814
vn -0.3565 0.8996 -0.2524
vn 0.6427 0.1676 -0.7476
vn 0.3396 0.8806 0.3303
vn 0.3565 -0.8996 0.2523
vn -0.3585 -0.8505 -0.3849
vn -0.6428 -0.1680 0.7474
vn -0.3055 0.9248 -0.2266
vn 0.6778 0.1854 -0.7115
vn 0.3585 0.8505 0.3849
vn 0.3055 -0.9248 0.2266
vn -0.3943 -0.7955 -0.4601
vn -0.6779 -0.1858 0.7113
vn -0.2442 0.9518 -0.1854
vn 0.7125 0.1936 -0.6744
vn 0.3943 0.7955 0.4601
vn 0.2441 -0.9519 0.1853
vn -0.4417 -0.6973 -0.5645
vn -0.7128 -0.1942 0.6739
vn -0.1749 0.9753 -0.1347
vn 0.7551 0.1943 -0.6261
vn 0.4417 0.6973 0.5645
vn 0.1747 -0.9754 0.1344
vn -0.4725 -0.4616 -0.7508
vn -0.7579 -0.1981 0.6216
vn -0.0877 0.9950 -0.0472
vn 0.8557 0.2073 -0.4741
vn 0.4725 0.4616 0.7508
vn 0.0878 -0.9950 0.0474
vn -0.3993 -0.1717 -0.9006
vn -0.8555 -0.2072 0.4745
vn -0.0432 0.9990 -0.0065
vn 0.9204 0.1425 -0.3640
vn 0.3993 0.1717 0.9006
vn 0.0432 -0.9990 0.0065
vn -0.3039 -0.0019 -0.9527
vn -0.9210 -0.1426 0.3626
vn -0.0127 0.9997 0.0186
vn 0.9638 0.0647 -0.2586
vn 0.3039 0.0019 0.9527
vn 0.0127 -0.9997 -0.0186
vn -0.2112 0.0845 -0.9738
vn -0.9639 -0.0647 0.2584
vn 0.0102 0.9995 0.0295
vn 0.9845 -0.0168 -0.1745
vn 0.2112 -0.0845 0.9738
vn -0.0102 -0.9995 -0.0295
vn -0.1163 0.1292 -0.9848
vn -0.9847 0.0170 0.1733
vn 0.0305 0.9989 0.0363
vn 0.9914 -0.0996 -0.0848
vn 0.1163 -0.1292 0.9848
vn -0.0305 -0.9989 -0.0363
vn -0.0143 0.1433 -0.9896
vn -0.9915 0.0999 0.0828
vn 0.0496 0.9979 0.0405
vn 0.9823 -0.1847 0.0325
vn 0.0143 -0.1433 0.9896
vn -0.0496 -0.9979 -0.0405
vn 0.1026 0.1281 -0.9864
vn -0.9822 0.1848 -0.0331
vn 0.0685 0.9968 0.0424
vn 0.9527 -0.2648 0.1490
vn -0.1026 -0.1281 0.9864
vn -0.0685 -0.9968 -0.0424
vn 0.2365 0.0860 -0.9678
vn -0.9525 0.2650 -0.1504
vn 0.0876 0.9952 0.0443
vn 0.8997 -0.3377 0.2766
vn -0.2365 -0.0860 0.9678
vn -0.0876 -0.9952 -0.0443
vn 0.3728 0.0301 -0.9274
vn -0.8993 0.3377 -0.2777
vn 0.0955 0.9943 0.0483
vn 0.8376 -0.3681 0.4036
vn -0.3728 -0.0301 0.9274
vn -0.0955 -0.9943 -0.0483
vn 0.4908 -0.0001 -0.8713
vn -0.8378 0.3681 -0.4032
vn 0.0856 0.9948 0.0553
vn 0.7846 -0.3522 0.5102
vn -0.4908 0.0001 0.8713
vn -0.0856 -0.9948 -0.0553
vn 0.5951 -0.0001 -0.8037
vn -0.7847 0.3522 -0.5101
vn 0.0709 0.9956 0.0608
vn 0.7161 -0.3250 0.6177
vn -0.5951 0.0002 0.8037
vn -0.0709 -0.9956 -0.0608
vn 0.7071 -0.0002 -0.7071
vn -0.7161 0.3251 -0.6177
vn 0.0550 0.9964 0.0641
vn 0.6198 -0.2962 0.7267
vn -0.7071 0.0002 0.7071
vn -0.0550 -0.9964 -0.0641
vn 0.8171 -0.0001 -0.5765
vn -0.6189 0.2962 -0.7275
vn 0.0372 0.9972 0.0655
vn 0.4730 -0.2662 0.8399
vn -0.8171 0.0001 0.5765
vn -0.0372 -0.9972 -0.0655
vn 0.9105 -0.0002 -0.4136
vn -0.4744 0.2662 -0.8391
vn 0.0214 0.9978 0.0627
vn 0.3107 -0.2359 0.9208
vn -0.9105 0.0002 0.4136
vn -0.0214 -0.9978 -0.0627
vn 0.9718 -0.0003 -0.2358
vn -0.3121 0.2359 -0.9203
vn 0.0089 0.9983 0.0568
vn 0.1491 -0.2060 0.9671
vn -0.9718 0.0003 0.2358
vn -0.0089 -0.9983 -0.0568
vn 0.9980 -0.0000 -0.0628
vn -0.1486 0.2060 -0.9672
vn -0.0012 0.9988 0.0493
vn -0.0274 -0.1779 0.9837
vn -0.9980 -0.0000 0.0628
vn 0.0012 -0.9988 -0.0493
vn 0.9946 -0.0002 0.1042
vn 0.0260 0.1779 -0.9837
vn -0.0084 0.9991 0.0412
vn -0.1995 -0.1516 0.9681
vn -0.9946 0.0002 -0.1042
vn 0.0084 -0.9991 -0.0412
vn 0.9531 -0.0002 0.3027
vn 0.2001 0.1516 -0.9680
vn -0.0140 0.9994 0.0317
vn -0.4044 -0.1253 0.9060
vn -0.9531 0.0002 -0.3027
vn 0.0140 -0.9994 -0.0317
vn 0.8633 -0.0002 0.5047
vn 0.4040 0.1253 -0.9061
vn -0.0160 0.9996 0.0217
vn -0.5928 -0.0978 0.7994
vn -0.8633 0.0002 -0.5047
vn 0.0160 -0.9996 -0.0217
vn 0.7424 -0.0001 0.6700
vn 0.5915 0.0979 -0.8003
vn -0.0141 0.9998 0.0132
vn -0.7317 -0.0704 0.6779
vn -0.7424 0.0001 -0.6700
vn 0.0141 -0.9998 -0.0132
vn 0.6218 -0.0000 0.7832
vn 0.7308 0.0704 -0.6789
vn -0.0098 0.9999 0.0068
vn -0.8245 -0.0438 0.5642
vn -0.6218 -0.0000 -0.7832
vn 0.0098 -0.9999 -0.0068
vn 0.5221 -0.0000 0.8529
vn 0.8236 0.0438 -0.5654
vn -0.0044 1.0000 0.0024
vn -0.8786 -0.0182 0.4773
vn -0.5221 -0.0000 -0.8529
vn 0.0044 -1.0000 -0.0024
vn 0.4325 -0.0001 0.9016
vn 0.8785 0.0182 -0.4773
vn -0.0040 1.0000 0.0017
vn -0.9234 -0.0159 0.3834
vn -0.4325 0.0001 -0.9016
vn 0.0040 -1.0000 -0.0017
vn 0.3449 0.0007 0.9386
vn 0.9232 0.0160 -0.3841
vn -0.0116 0.9999 0.0038
vn -0.9487 -0.0450 0.3131
vn -0.3449 -0.0007 -0.9386
vn 0.0116 -0.9999 -0.0038
vn 0.2642 0.0006 0.9645
vn 0.9490 0.0450 -0.3121
vn -0.0218 0.9997 0.0052
vn -0.9684 -0.0821 0.2354
vn -0.2642 -0.0006 -0.9645
vn 0.0218 -0.9997 -0.0052
vn 0.1821 -0.0000 0.9833
vn 0.9688 0.0821 -0.2340
vn -0.0320 0.9995 0.0043
vn -0.9839 -0.1182 0.1337
vn -0.1821 -0.0000 -0.9833
vn 0.0320 -0.9995 -0.0043
vn 0.1171 0.0005 0.9931
vn 0.9838 0.1182 -0.1350
vn -0.0420 0.9991 0.0035
vn -0.9845 -0.1534 0.0849
vn -0.1171 -0.0005 -0.9931
vn 0.0420 -0.9991 -0.0035
vn 0.0593 0.0005 0.9982
vn 0.9845 0.1534 -0.0851
vn -0.0518 0.9987 0.0020
vn -0.9813 -0.1879 0.0406
vn -0.0593 -0.0005 -0.9982
vn 0.0518 -0.9987 -0.0020
vn 0.0081 0.0002 1.0000
vn 0.9814 0.1879 -0.0401
vn -0.0617 0.9981 -0.0011
vn -0.9749 -0.2220 -0.0142
vn -0.0081 -0.0002 -1.0000
vn 0.0617 -0.9981 0.0011
vn -0.0361 0.0002 0.9993
vn 0.9749 0.2220 0.0142
vn -0.0715 0.9974 -0.0044
vn -0.9651 -0.2560 -0.0561
vn 0.0361 -0.0002 -0.9993
vn 0.0715 -0.9974 0.0044
vn -0.0759 0.0003 0.9971
vn 0.9651 0.2560 0.0560
vn -0.0816 0.9966 -0.0077
vn -0.9531 -0.2901 -0.0866
vn 0.0759 -0.0003 -0.9971
vn 0.0816 -0.9966 0.0077
vn -0.1134 0.0002 0.9935
vn 0.9531 0.2901 0.0868
vn -0.0919 0.9957 -0.0119
vn -0.9385 -0.3245 -0.1176
vn 0.1134 -0.0002 -0.9935
vn 0.0919 -0.9957 0.0119
vn -0.1493 0.0001 0.9888
vn 0.9385 0.3245 0.1179
vn -0.1027 0.9946 -0.0174
vn -0.9204 -0.3601 -0.1522
vn 0.1493 -0.0001 -0.9888
vn 0.1027 -0.9946 0.0174
vn -0.1855 0.0001 0.9826
vn 0.9204 0.3601 0.1524
vn -0.1144 0.9931 -0.0241
vn -0.8986 -0.3980 -0.1846
vn 0.1855 -0.0001 -0.9826
vn 0.1144 -0.9931 0.0241
vn -0.2266 0.0001 0.9740
vn 0.8986 0.3980 0.1849
vn -0.1279 0.9912 -0.0330
vn -0.8706 -0.4404 -0.2192
vn 0.2266 -0.0001 -0.9740
vn 0.1279 -0.9912 0.0330
vn -0.2858 0.0001 0.9583
vn 0.8704 0.4404 0.2201
vn -0.1445 0.9880 -0.0543
vn -0.8153 -0.4971 -0.2969
vn 0.2858 -0.0001 -0.9583
vn 0.1445 -0.9880 0.0543
vn -0.4201 0.0001 0.9075
vn 0.8147 0.4971 0.2986
vn -0.1375 0.9893 -0.0495
vn -0.8254 -0.4737 -0.3072
vn 0.4201 -0.0001 -0.9075
vn 0.1375 -0.9893 0.0495
vn -0.2116 0.0001 0.9774
vn 0.8219 0.4736 0.3165
vn -0.1062 0.9943 -0.0132
vn -0.9217 -0.3669 -0.1256
vn 0.2116 -0.0001 -0.9774
vn 0.1062 -0.9943 0.0132
vn -0.0676 0.0008 0.9977
vn 0.9219 0.3669 0.1247
vn -0.0762 0.9971 -0.0011
vn -0.9624 -0.2706 -0.0226
vn 0.0676 -0.0008 -0.9977
vn 0.0762 -0.9971 0.0011
vn 0.0388 0.0004 0.9992
vn 0.9624 0.2706 0.0240
vn -0.0488 0.9988 0.0041
vn -0.9813 -0.1774 0.0743
vn -0.0388 -0.0004 -0.9992
vn 0.0488 -0.9988 -0.0041
vn 0.1328 0.0002 0.9911
vn 0.9814 0.1774 -0.0729
vn -0.0231 0.9997 0.0043
vn -0.9810 -0.0861 0.1741
vn -0.1328 -0.0002 -0.9911
vn 0.0231 -0.9997 -0.0043
vn 0.2275 0.0006 0.9738
vn 0.9811 0.0861 -0.1733
vn 0.0012 1.0000 -0.0003
vn -0.9625 0.0044 0.2711
vn -0.2275 -0.0006 -0.9738
vn -0.0012 -1.0000 0.0003
vn 0.3304 0.0009 0.9439
vn 0.9629 -0.0044 -0.2698
vn 0.0237 0.9997 -0.0099
vn -0.9216 0.0940 0.3766
vn -0.3304 -0.0009 -0.9439
vn -0.0237 -0.9997 0.0099
vn 0.4460 0.0012 0.8951
vn 0.9224 -0.0940 -0.3747
vn 0.0436 0.9987 -0.0255
vn -0.8518 0.1822 0.4911
vn -0.4460 -0.0012 -0.8951
vn -0.0436 -0.9987 0.0255
vn 0.5760 0.0012 0.8175
vn 0.8535 -0.1822 -0.4882
vn 0.0583 0.9971 -0.0484
vn -0.7460 0.2680 0.6097
vn -0.5760 -0.0012 -0.8175
vn -0.0583 -0.9971 0.0484
vn 0.7036 0.0007 0.7106
vn 0.7478 -0.2680 -0.6074
vn 0.0565 0.9960 -0.0685
vn -0.6051 0.3096 0.7335
vn -0.7036 -0.0007 -0.7106
vn -0.0565 -0.9960 0.0685
vn 0.8289 -0.0001 0.5593
vn 0.6046 -0.3096 -0.7339
vn 0.0413 0.9962 -0.0767
vn -0.4507 0.3038 0.8394
vn -0.8289 0.0001 -0.5593
vn -0.0413 -0.9962 0.0767
vn 0.9262 -0.0001 0.3771
vn 0.4514 -0.3038 -0.8390
vn 0.0231 0.9965 -0.0799
vn -0.2647 0.2912 0.9193
vn -0.9262 0.0001 -0.3771
vn -0.0231 -0.9965 0.0799
vn 0.9846 -0.0000 0.1751
vn 0.2644 -0.2912 -0.9194
vn 0.0065 0.9969 -0.0789
vn -0.0779 0.2787 0.9572
vn -0.9846 -0.0000 -0.1751
vn -0.0065 -0.9969 0.0789
vn 1.0000 -0.0000 -0.0078
vn 0.0772 -0.2787 -0.9573
vn -0.0065 0.9972 -0.0749
vn 0.0841 0.2664 0.9602
vn -1.0000 -0.0000 0.0078
vn 0.0065 -0.9972 0.0749
vn 0.9889 -0.0000 -0.1484
vn -0.0860 -0.2664 -0.9600
vn -0.0147 0.9975 -0.0698
vn 0.1994 0.2543 0.9463
vn -0.9889 -0.0000 0.1484
vn 0.0147 -0.9975 0.0698
vn 0.9683 -0.0001 -0.2496
vn -0.2004 -0.2543 -0.9461
vn -0.0194 0.9977 -0.0649
vn 0.2794 0.2425 0.9290
vn -0.9683 0.0001 0.2496
vn 0.0194 -0.9977 0.0649
vn 0.9474 -0.0000 -0.3200
vn -0.2797 -0.2426 -0.9289
vn -0.0225 0.9980 -0.0599
vn 0.3439 0.2298 0.9104
vn -0.9474 -0.0000 0.3200
vn 0.0225 -0.9980 0.0599
vn 0.9208 -0.0000 -0.3900
vn -0.3437 -0.2297 -0.9105
vn -0.0262 0.9982 -0.0539
vn 0.4283 0.2155 0.8775
vn -0.9208 -0.0000 0.3900
vn 0.0262 -0.9982 0.0539
vn 0.8686 -0.0000 -0.4955
vn -0.4275 -0.2155 -0.8779
vn -0.0318 0.9984 -0.0459
vn 0.5594 0.2003 0.8043
vn -0.8686 -0.0000 0.4955
vn 0.0318 -0.9984 0.0459
vn 0.7578 -0.0000 -0.6524
vn -0.5578 -0.2003 -0.8055
vn -0.0388 0.9987 -0.0341
vn 0.7403 0.1835 0.6468
vn -0.7578 -0.0000 0.6524
vn 0.0388 -0.9987 0.0341
vn 0.5334 -0.0001 -0.8459
vn -0.7381 -0.1834 -0.6493
vn -0.0439 0.9989 -0.0176
vn 0.9160 0.1664 0.3651
vn -0.5334 0.0001 0.8459
vn 0.0439 -0.9989 0.0176
vn 0.1950 -0.0002 -0.9808
vn -0.9160 -0.1664 -0.3651
vn -0.0407 0.9992 -0.0051
vn 0.9872 0.1511 -0.0510
vn -0.1950 0.0002 0.9808
vn 0.0407 -0.9992 0.0051
vn -0.3991 -0.1042 -0.9110
vn -0.9875 -0.1545 -0.0325
vn -0.0410 0.9990 -0.0201
vn 0.7804 0.0745 -0.6208
vn 0.3991 0.1042 0.9110
vn 0.0410 -0.9990 0.0201
vn -0.7256 -0.1534 -0.6708
vn -0.7556 -0.0690 0.6514
vn -0.0312 0.9994 -0.0179
vn 0.6214 0.0179 -0.7833
vn 0.7256 0.1534 0.6708
vn 0.0312 -0.9994 0.0178
vn -0.8097 -0.0933 -0.5794
vn -0.6197 -0.0176 0.7847
vn -0.0061 1.0000 -0.0059
vn 0.5454 -0.0092 -0.8381
vn 0.8097 0.0933 0.5794
vn 0.0061 -1.0000 0.0059
vn -0.8563 0.0702 -0.5116
vn -0.5451 0.0092 0.8383
vn 0.0830 0.9956 0.0431
vn 0.4589 -0.0336 -0.8879
vn 0.8563 -0.0702 0.5116
vn -0.0850 -0.9954 -0.0441
vn -0.6512 0.7106 -0.2665
vn -0.4611 0.0349 0.8866
vt -0.036073 0.081559
vt 0.557695 0.081559
vt 0.557695 0.930118
vt -0.036073 0.930118
vt 0.375000 0.750000
vt 0.625000 0.750000
vt 0.625000 1.000000
vt 0.375000 1.000000
vt 0.375000 0.000000
vt 0.625000 0.000000
vt 0.625000 0.250000
vt 0.375000 0.250000
vt 0.582600 0.410613
vt 0.832600 0.410613
vt 0.832600 0.660613
vt 0.582600 0.660613
vt 0.530429 0.587524
vt 0.780429 0.587524
vt 0.780429 0.837524
vt 0.530429 0.837524
vt 0.516914 0.276071
vt 0.766914 0.276071
vt 0.766914 0.526071
vt 0.516914 0.526071
s 0
usemtl Material
f 1/1/1 5/2/1 7/3/1 3/4/1
f 4/5/2 3/6/2 7/7/2 8/8/2
f 8/9/3 7/10/3 5/11/3 6/12/3
f 6/13/4 2/14/4 4/15/4 8/16/4
f 2/17/5 1/18/5 3/19/5 4/20/5
f 6/21/6 5/22/6 1/23/6 2/24/6
f 9/1/7 13/2/7 15/3/7 11/4/7
f 12/5/8 11/6/8 15/7/8 16/8/8
f 16/9/9 15/10/9 13/11/9 14/12/9
f 14/13/10 10/14/10 12/15/10 16/16/10
f 10/17/11 9/18/11 11/19/11 12/20/11
f 14/21/12 13/22/12 9/23/12 10/24/12
f 17/1/13 21/2/13 23/3/13 19/4/13
f 20/5/14 19/6/14 23/7/14 24/8/14
f 24/9/15 23/10/15 21/11/15 22/12/15
f 22/13/16 18/14/16 20/15/16 24/16/16
f 18/17/17 17/18/17 19/19/17 20/20/17
f 22/21/18 21/22/18 17/23/18 18/24/18
f 25/1/19 29/2/19 31/3/19 27/4/19
f 28/5/20 27/6/20 31/7/20 32/8/20
f 32/9/21 31/10/21 29/11/21 30/12/21
f 30/13/22 26/14/22 28/15/22 32/16/22
f 26/17/23 25/18/23 27/19/23 28/20/23
f 30/21/24 29/22/24 25/23/24 26/24/24
f 33/1/25 37/2/25 39/3/25 35/4/25
f 36/5/26 35/6/26 39/7/26 40/8/26
f 40/9/27 39/10/27 37/11/27 38/12/27
f 38/13/28 34/14/28 36/15/28 40/16/28
f 34/17/29 33/18/29 35/19/29 36/20/29
f 38/21/30 37/22/30 33/23/30 34/24/30
f 41/1/31 45/2/31 47/3/31 43/4/31
f 44/5/32 43/6/32 47/7/32 48/8/32
f 48/9/33 47/10/33 45/11/33 46/12/33
f 46/13/34 42/14/34 44/15/34 48/16/34
f 42/17/35 41/18/35 43/19/35 44/20/35
f 46/21/36 45/22/36 41/23/36 42/24/36
f 49/1/37 53/2/37 55/3/37 51/4/37
f 52/5/38 51/6/38 55/7/38 56/8/38
f 56/9/39 55/10/39 53/11/39 54/12/39
f 54/13/40 50/14/40 52/15/40 56/16/40
f 50/17/41 49/18/41 51/19/41 52/20/41
f 54/21/42 53/22/42 49/23/42 50/24/42
f 57/1/43 61/2/43 63/3/43 59/4/43
f 60/5/44 59/6/44 63/7/44 64/8/44
f 64/9/45 63/10/45 61/11/45 62/12/45
f 62/13/46 58/14/46 60/15/46 64/16/46
f 58/17/47 57/18/47 59/19/47 60/20/47
f 62/21/48 61/22/48 57/23/48 58/24/48
f 65/1/49 69/2/49 71/3/49 67/4/49
f 68/5/50 67/6/50 71/7/50 72/8/50
f 72/9/51 71/10/51 69/11/51 70/12/51
f 70/13/52 66/14/52 68/15/52 72/16/52
f 66/17/53 65/18/53 67/19/53 68/20/53
f 70/21/54 69/22/54 65/23/54 66/24/54
f 73/1/55 77/2/55 79/3/55 75/4/55
f 76/5/56 75/6/56 79/7/56 80/8/56
f 80/9/57 79/10/57 77/11/57 78/12/57
f 78/13/58 74/14/58 76/15/58 80/16/58
f 74/17/59 73/18/59 75/19/59 76/20/59
f 78/21/60 77/22/60 73/23/60 74/24/60
f 81/1/61 85/2/61 87/3/61 83/4/61
f 84/5/62 83/6/62 87/7/62 88/8/62
f 88/9/63 87/10/63 85/11/63 86/12/63
f 86/13/64 82/14/64 84/15/64 88/16/64
f 82/17/65 81/18/65 83/19/65 84/20/65
f 86/21/66 85/22/66 81/23/66 82/24/66
f 89/1/67 93/2/67 95/3/67 91/4/67
f 92/5/68 91/6/68 95/7/68 96/8/68
f 96/9/69 95/10/69 93/11/69 94/12/69
f 94/13/70 90/14/70 92/15/70 96/16/70
f 90/17/71 89/18/71 91/19/71 92/20/71
f 94/21/72 93/22/72 89/23/72 90/24/72
f 97/1/73 101/2/73 103/3/73 99/4/73
f 100/5/74 99/6/74 103/7/74 104/8/74
f 104/9/75 103/10/75 101/11/75 102/12/75
f 102/13/76 98/14/76 100/15/76 104/16/76
f 98/17/77 97/18/77 99/19/77 100/20/77
f 102/21/78 101/22/78 97/23/78 98/24/78
f 105/1/79 109/2/79 111/3/79 107/4/79
f 108/5/80 107/6/80 111/7/80 112/8/80
f 112/9/81 111/10/81 109/11/81 110/12/81
f 110/13/82 106/14/82 108/15/82 112/16/82
f 106/17/83 105/18/83 107/19/83 108/20/83
f 110/21/84 109/22/84 105/23/84 106/24/84
f 113/1/85 117/2/85 119/3/85 115/4/85
f 116/5/86 115/6/86 119/7/86 120/8/86
f 120/9/87 119/10/87 117/11/87 118/12/87
f 118/13/88 114/14/88 116/15/88 120/16/88
f 114/17/89 113/18/89 115/19/89 116/20/89
f 118/21/90 117/22/90 113/23/90 114/24/90
f 121/1/91 125/2/91 127/3/91 123/4/91
f 124/5/92 123/6/92 127/7/92 128/8/92
f 128/9/93 127/10/93 125/11/93 126/12/93
f 126/13/94 122/14/94 124/15/94 128/16/94
f 122/17/95 121/18/95 123/19/95 124/20/95
f 126/21/96 125/22/96 121/23/96 122/24/96
f 129/1/97 133/2/97 135/3/97 131/4/97
f 132/5/98 131/6/98 135/7/98 136/8/98
f 136/9/99 135/10/99 133/11/99 134/12/99
f 134/13/100 130/14/100 132/15/100 136/16/100
f 130/17/101 129/18/101 131/19/101 132/20/101
f 134/21/102 133/22/102 129/23/102 130/24/102
f 137/1/103 141/2/103 143/3/103 139/4/103
f 140/5/104 139/6/104 143/7/104 144/8/104
f 144/9/105 143/10/105 141/11/105 142/12/105
f 142/13/106 138/14/106 140/15/106 144/16/106
f 138/17/107 137/18/107 139/19/107 140/20/107
f 142/21/108 141/22/108 137/23/108 138/24/108
f 145/1/109 149/2/109 151/3/109 147/4/109
f 148/5/110 147/6/110 151/7/110 152/8/110
f 152/9/111 151/10/111 149/11/111 150/12/111
f 150/13/112 146/14/112 148/15/112 152/16/112
f 146/17/113 145/18/113 147/19/113 148/20/113
f 150/21/114 149/22/114 145/23/114 146/24/114
f 153/1/115 157/2/115 159/3/115 155/4/115
f 156/5/116 155/6/116 159/7/116 160/8/116
f 160/9/117 159/10/117 157/11/117 158/12/117
f 158/13/118 154/14/118 156/15/118 160/16/118
f 154/17/119 153/18/119 155/19/119 156/20/119
f 158/21/120 157/22/120 153/23/120 154/24/120
f 161/1/121 165/2/121 167/3/121 163/4/121
f 164/5/122 163/6/122 167/7/122 168/8/122
f 168/9/123 167/10/123 165/11/123 166/12/123
f 166/13/124 162/14/124 164/15/124 168/16/124
f 162/17/125 161/18/125 163/19/125 164/20/125
f 166/21/126 165/22/126 161/23/126 162/24/126
f 169/1/127 173/2/127 175/3/127 171/4/127
f 172/5/128 171/6/128 175/7/128 176/8/128
f 176/9/129 175/10/129 173/11/129 174/12/129
f 174/13/130 170/14/130 172/15/130 176/16/130
f 170/17/131 169/18/131 171/19/131 172/20/131
f 174/21/132 173/22/132 169/23/132 170/24/132
f 177/1/133 181/2/133 183/3/133 179/4/133
f 180/5/134 179/6/134 183/7/134 184/8/134
f 184/9/135 183/10/135 181/11/135 182/12/135
f 182/13/136 178/14/136 180/15/136 184/16/136
f 178/17/137 177/18/137 179/19/137 180/20/137
f 182/21/138 181/22/138 177/23/138 178/24/138
f 185/1/139 189/2/139 191/3/139 187/4/139
f 188/5/140 187/6/140 191/7/140 192/8/140
f 192/9/141 191/10/141 189/11/141 190/12/141
f 190/13/142 186/14/142 188/15/142 192/16/142
f 186/17/143 185/18/143 187/19/143 188/20/143
f 190/21/144 189/22/144 185/23/144 186/24/144
f 193/1/145 197/2/145 199/3/145 195/4/145
f 196/5/146 195/6/146 199/7/146 200/8/146
f 200/9/147 199/10/147 197/11/147 198/12/147
f 198/13/148 194/14/148 196/15/148 200/16/148
f 194/17/149 193/18/149 195/19/149 196/20/149
f 198/21/150 197/22/150 193/23/150 194/24/150
f 201/1/151 205/2/151 207/3/151 203/4/151
f 204/5/152 203/6/152 207/7/152 208/8/152
f 208/9/153 207/10/153 205/11/153 206/12/153
f 206/13/154 202/14/154 204/15/154 208/16/154
f 202/17/155 201/18/155 203/19/155 204/20/155
f 206/21/156 205/22/156 201/23/156 202/24/156
f 209/1/157 213/2/157 215/3/157 211/4/157
f 212/5/158 211/6/158 215/7/158 216/8/158
f 216/9/159 215/10/159 213/11/159 214/12/159
f 214/13/160 210/14/160 212/15/160 216/16/160
f 210/17/161 209/18/161 211/19/161 212/20/161
f 214/21/162 213/22/162 209/23/162 210/24/162
f 217/1/163 221/2/163 223/3/163 219/4/163
f 220/5/164 219/6/164 223/7/164 224/8/164
f 224/9/165 223/10/165 221/11/165 222/12/165
f 222/13/166 218/14/166 220/15/166 224/16/166
f 218/17/167 217/18/167 219/19/167 220/20/167
f 222/21/168 221/22/168 217/23/168 218/24/168
f 225/1/169 229/2/169 231/3/169 227/4/169
f 228/5/170 227/6/170 231/7/170 232/8/170
f 232/9/171 231/10/171 229/11/171 230/12/171
f 230/13/172 226/14/172 228/15/172 232/16/172
f 226/17/173 225/18/173 227/19/173 228/20/173
f 230/21/174 229/22/174 225/23/174 226/24/174
f 233/1/175 237/2/175 239/3/175 235/4/175
f 236/5/176 235/6/176 239/7/176 240/8/176
f 240/9/177 239/10/177 237/11/177 238/12/177
f 238/13/178 234/14/178 236/15/178 240/16/178
f 234/17/179 233/18/179 235/19/179 236/20/179
f 238/21/180 237/22/180 233/23/180 234/24/180
f 241/1/181 245/2/181 247/3/181 243/4/181
f 244/5/182 243/6/182 247/7/182 248/8/182
f 248/9/183 247/10/183 245/11/183 246/12/183
f 246/13/184 242/14/184 244/15/184 248/16/184
f 242/17/185 241/18/185 243/19/185 244/20/185
f 246/21/186 245/22/186 241/23/186 242/24/186
f 249/1/187 253/2/187 255/3/187 251/4/187
f 252/5/188 251/6/188 255/7/188 256/8/188
f 256/9/189 255/10/189 253/11/189 254/12/189
f 254/13/190 250/14/190 252/15/190 256/16/190
f 250/17/191 249/18/191 251/19/191 252/20/191
f 254/21/192 253/22/192 249/23/192 250/24/192
f 257/1/193 261/2/193 263/3/193 259/4/193
f 260/5/194 259/6/194 263/7/194 264/8/194
f 264/9/195 263/10/195 261/11/195 262/12/195
f 262/13/196 258/14/196 260/15/196 264/16/196
f 258/17/197 257/18/197 259/19/197 260/20/197
f 262/21/198 261/22/198 257/23/198 258/24/198
f 265/1/199 269/2/199 271/3/199 267/4/199
f 268/5/200 267/6/200 271/7/200 272/8/200
f 272/9/201 271/10/201 269/11/201 270/12/201
f 270/13/202 266/14/202 268/15/202 272/16/202
f 266/17/203 265/18/203 267/19/203 268/20/203
f 270/21/204 269/22/204 265/23/204 266/24/204
f 273/1/205 277/2/205 279/3/205 275/4/205
f 276/5/206 275/6/206 279/7/206 280/8/206
f 280/9/207 279/10/207 277/11/207 278/12/207
f 278/13/208 274/14/208 276/15/208 280/16/208
f 274/17/209 273/18/209 275/19/209 276/20/209
f 278/21/210 277/22/210 273/23/210 274/24/210
f 281/1/211 285/2/211 287/3/211 283/4/211
f 284/5/212 283/6/212 287/7/212 288/8/212
f 288/9/213 287/10/213 285/11/213 286/12/213
f 286/13/214 282/14/214 284/15/214 288/16/214
f 282/17/215 281/18/215 283/19/215 284/20/215
f 286/21/216 285/22/216 281/23/216 282/24/216
f 289/1/217 293/2/217 295/3/217 291/4/217
f 292/5/218 291/6/218 295/7/218 296/8/218
f 296/9/219 295/10/219 293/11/219 294/12/219
f 294/13/220 290/14/220 292/15/220 296/16/220
f 290/17/221 289/18/221 291/19/221 292/20/221
f 294/21/222 293/22/222 289/23/222 290/24/222
f 297/1/223 301/2/223 303/3/223 299/4/223
f 300/5/224 299/6/224 303/7/224 304/8/224
f 304/9/225 303/10/225 301/11/225 302/12/225
f 302/13/226 298/14/226 300/15/226 304/16/226
f 298/17/227 297/18/227 299/19/227 300/20/227
f 302/21/228 301/22/228 297/23/228 298/24/228
f 305/1/229 309/2/229 311/3/229 307/4/229
f 308/5/230 307/6/230 311/7/230 312/8/230
f 312/9/231 311/10/231 309/11/231 310/12/231
f 310/13/232 306/14/232 308/15/232 312/16/232
f 306/17/233 305/18/233 307/19/233 308/20/233
f 310/21/234 309/22/234 305/23/234 306/24/234
f 313/1/235 317/2/235 319/3/235 315/4/235
f 316/5/236 315/6/236 319/7/236 320/8/236
f 320/9/237 319/10/237 317/11/237 318/12/237
f 318/13/238 314/14/238 316/15/238 320/16/238
f 314/17/239 313/18/239 315/19/239 316/20/239
f 318/21/240 317/22/240 313/23/240 314/24/240
f 321/1/241 325/2/241 327/3/241 323/4/241
f 324/5/242 323/6/242 327/7/242 328/8/242
f 328/9/243 327/10/243 325/11/243 326/12/243
f 326/13/244 322/14/244 324/15/244 328/16/244
f 322/17/245 321/18/245 323/19/245 324/20/245
f 326/21/246 325/22/246 321/23/246 322/24/246
f 329/1/247 333/2/247 335/3/247 331/4/247
f 332/5/248 331/6/248 335/7/248 336/8/248
f 336/9/249 335/10/249 333/11/249 334/12/249
f 334/13/250 330/14/250 332/15/250 336/16/250
f 330/17/251 329/18/251 331/19/251 332/20/251
f 334/21/252 333/22/252 329/23/252 330/24/252
f 337/1/253 341/2/253 343/3/253 339/4/253
f 340/5/254 339/6/254 343/7/254 344/8/254
f 344/9/255 343/10/255 341/11/255 342/12/255
f 342/13/256 338/14/256 340/15/256 344/16/256
f 338/17/257 337/18/257 339/19/257 340/20/257
f 342/21/258 341/22/258 337/23/258 338/24/258
f 345/1/259 349/2/259 351/3/259 347/4/259
f 348/5/260 347/6/260 351/7/260 352/8/260
f 352/9/261 351/10/261 349/11/261 350/12/261
f 350/13/262 346/14/262 348/15/262 352/16/262
f 346/17/263 345/18/263 347/19/263 348/20/263
f 350/21/264 349/22/264 345/23/264 346/24/264
f 353/1/265 357/2/265 359/3/265 355/4/265
f 356/5/266 355/6/266 359/7/266 360/8/266
f 360/9/267 359/10/267 357/11/267 358/12/267
f 358/13/268 354/14/268 356/15/268 360/16/268
f 354/17/269 353/18/269 355/19/269 356/20/269
f 358/21/270 357/22/270 353/23/270 354/24/270
f 361/1/271 365/2/271 367/3/271 363/4/271
f 364/5/272 363/6/272 367/7/272 368/8/272
f 368/9/273 367/10/273 365/11/273 366/12/273
f 366/13/274 362/14/274 364/15/274 368/16/274
f 362/17/275 361/18/275 363/19/275 364/20/275
f 366/21/276 365/22/276 361/23/276 362/24/276
f 369/1/277 373/2/277 375/3/277 371/4/277
f 372/5/278 371/6/278 375/7/278 376/8/278
f 376/9/279 375/10/279 373/11/279 374/12/279
f 374/13/280 370/14/280 372/15/280 376/16/280
f 370/17/281 369/18/281 371/19/281 372/20/281
f 374/21/282 373/22/282 369/23/282 370/24/282
f 377/1/283 381/2/283 383/3/283 379/4/283
f 380/5/284 379/6/284 383/7/284 384/8/284
f 384/9/285 383/10/285 381/11/285 382/12/285
f 382/13/286 378/14/286 380/15/286 384/16/286
f 378/17/287 377/18/287 379/19/287 380/20/287
f 382/21/288 381/22/288 377/23/288 378/24/288
f 385/1/289 389/2/289 391/3/289 387/4/289
f 388/5/290 387/6/290 391/7/290 392/8/290
f 392/9/291 391/10/291 389/11/291 390/12/291
f 390/13/292 386/14/292 388/15/292 392/16/292
f 386/17/293 385/18/293 387/19/293 388/20/293
f 390/21/294 389/22/294 385/23/294 386/24/294
f 393/1/295 397/2/295 399/3/295 395/4/295
f 396/5/296 395/6/296 399/7/296 400/8/296
f 400/9/297 399/10/297 397/11/297 398/12/297
f 398/13/298 394/14/298 396/15/298 400/16/298
f 394/17/299 393/18/299 395/19/299 396/20/299
f 398/21/300 397/22/300 393/23/300 394/24/300
f 401/1/301 405/2/301 407/3/301 403/4/301
f 404/5/302 403/6/302 407/7/302 408/8/302
f 408/9/303 407/10/303 405/11/303 406/12/303
f 406/13/304 402/14/304 404/15/304 408/16/304
f 402/17/305 401/18/305 403/19/305 404/20/305
f 406/21/306 405/22/306 401/23/306 402/24/306
f 409/1/307 413/2/307 415/3/307 411/4/307
f 412/5/308 411/6/308 415/7/308 416/8/308
f 416/9/309 415/10/309 413/11/309 414/12/309
f 414/13/310 410/14/310 412/15/310 416/16/310
f 410/17/311 409/18/311 411/19/311 412/20/311
f 414/21/312 413/22/312 409/23/312 410/24/312
f 417/1/313 421/2/313 423/3/313 419/4/313
f 420/5/314 419/6/314 423/7/314 424/8/314
f 424/9/315 423/10/315 421/11/315 422/12/315
f 422/13/316 418/14/316 420/15/316 424/16/316
f 418/17/317 417/18/317 419/19/317 420/20/317
f 422/21/318 421/22/318 417/23/318 418/24/318
f 425/1/319 429/2/319 431/3/319 427/4/319
f 428/5/320 427/6/320 431/7/320 432/8/320
f 432/9/321 431/10/321 429/11/321 430/12/321
f 430/13/322 426/14/322 428/15/322 432/16/322
f 426/17/323 425/18/323 427/19/323 428/20/323
f 430/21/324 429/22/324 425/23/324 426/24/324
f 433/1/325 437/2/325 439/3/325 435/4/325
f 436/5/326 435/6/326 439/7/326 440/8/326
f 440/9/327 439/10/327 437/11/327 438/12/327
f 438/13/328 434/14/328 436/15/328 440/16/328
f 434/17/329 433/18/329 435/19/329 436/20/329
f 438/21/330 437/22/330 433/23/330 434/24/330
f 441/1/331 445/2/331 447/3/331 443/4/331
f 444/5/332 443/6/332 447/7/332 448/8/332
f 448/9/333 447/10/333 445/11/333 446/12/333
f 446/13/334 442/14/334 444/15/334 448/16/334
f 442/17/335 441/18/335 443/19/335 444/20/335
f 446/21/336 445/22/336 441/23/336 442/24/336
f 449/1/337 453/2/337 455/3/337 451/4/337
f 452/5/338 451/6/338 455/7/338 456/8/338
f 456/9/339 455/10/339 453/11/339 454/12/339
f 454/13/340 450/14/340 452/15/340 456/16/340
f 450/17/341 449/18/341 451/19/341 452/20/341
f 454/21/342 453/22/342 449/23/342 450/24/342
f 457/1/343 461/2/343 463/3/343 459/4/343
f 460/5/344 459/6/344 463/7/344 464/8/344
f 464/9/345 463/10/345 461/11/345 462/12/345
f 462/13/346 458/14/346 460/15/346 464/16/346
f 458/17/347 457/18/347 459/19/347 460/20/347
f 462/21/348 461/22/348 457/23/348 458/24/348
f 465/1/349 469/2/349 471/3/349 467/4/349
f 468/5/350 467/6/350 471/7/350 472/8/350
f 472/9/351 471/10/351 469/11/351 470/12/351
f 470/13/352 466/14/352 468/15/352 472/16/352
f 466/17/353 465/18/353 467/19/353 468/20/353
f 470/21/354 469/22/354 465/23/354 466/24/354
f 473/1/355 477/2/355 479/3/355 475/4/355
f 476/5/356 475/6/356 479/7/356 480/8/356
f 480/9/357 479/10/357 477/11/357 478/12/357
f 478/13/358 474/14/358 476/15/358 480/16/358
f 474/17/359 473/18/359 475/19/359 476/20/359
f 478/21/360 477/22/360 473/23/360 474/24/360
f 481/1/361 485/2/361 487/3/361 483/4/361
f 484/5/362 483/6/362 487/7/362 488/8/362
f 488/9/363 487/10/363 485/11/363 486/12/363
f 486/13/364 482/14/364 484/15/364 488/16/364
f 482/17/365 481/18/365 483/19/365 484/20/365
f 486/21/366 485/22/366 481/23/366 482/24/366
f 489/1/367 493/2/367 495/3/367 491/4/367
f 492/5/368 491/6/368 495/7/368 496/8/368
f 496/9/369 495/10/369 493/11/369 494/12/369
f 494/13/370 490/14/370 492/15/370 496/16/370
f 490/17/371 489/18/371 491/19/371 492/20/371
f 494/21/372 493/22/372 489/23/372 490/24/372
f 497/1/373 501/2/373 503/3/373 499/4/373
f 500/5/374 499/6/374 503/7/374 504/8/374
f 504/9/375 503/10/375 501/11/375 502/12/375
f 502/13/376 498/14/376 500/15/376 504/16/376
f 498/17/377 497/18/377 499/19/377 500/20/377
f 502/21/378 501/22/378 497/23/378 498/24/378
f 505/1/379 509/2/379 511/3/379 507/4/379
f 508/5/380 507/6/380 511/7/380 512/8/380
f 512/9/381 511/10/381 509/11/381 510/12/381
f 510/13/382 506/14/382 508/15/382 512/16/382
f 506/17/383 505/18/383 507/19/383 508/20/383
f 510/21/384 509/22/384 505/23/384 506/24/384
f 513/1/385 517/2/385 519/3/385 515/4/385
f 516/5/386 515/6/386 519/7/386 520/8/386
f 520/9/387 519/10/387 517/11/387 518/12/387
f 518/13/388 514/14/388 516/15/388 520/16/388
f 514/17/389 513/18/389 515/19/389 516/20/389
f 518/21/390 517/22/390 513/23/390 514/24/390
f 521/1/391 525/2/391 527/3/391 523/4/391
f 524/5/392 523/6/392 527/7/392 528/8/392
f 528/9/393 527/10/393 525/11/393 526/12/393
f 526/13/394 522/14/394 524/15/394 528/16/394
f 522/17/395 521/18/395 523/19/395 524/20/395
f 526/21/396 525/22/396 521/23/396 522/24/396
f 529/1/397 533/2/397 535/3/397 531/4/397
f 532/5/398 531/6/398 535/7/398 536/8/398
f 536/9/399 535/10/399 533/11/399 534/12/399
f 534/13/400 530/14/400 532/15/400 536/16/400
f 530/17/401 529/18/401 531/19/401 532/20/401
f 534/21/402 533/22/402 529/23/402 530/24/402
f 537/1/403 541/2/403 543/3/403 539/4/403
f 540/5/404 539/6/404 543/7/404 544/8/404
f 544/9/405 543/10/405 541/11/405 542/12/405
f 542/13/406 538/14/406 540/15/406 544/16/406
f 538/17/407 537/18/407 539/19/407 540/20/407
f 542/21/408 541/22/408 537/23/408 538/24/408
f 545/1/409 549/2/409 551/3/409 547/4/409
f 548/5/410 547/6/410 551/7/410 552/8/410
f 552/9/411 551/10/411 549/11/411 550/12/411
f 550/13/412 546/14/412 548/15/412 552/16/412
f 546/17/413 545/18/413 547/19/413 548/20/413
f 550/21/414 549/22/414 545/23/414 546/24/414
f 553/1/415 557/2/415 559/3/415 555/4/415
f 556/5/416 555/6/416 559/7/416 560/8/416
f 560/9/417 559/10/417 557/11/417 558/12/417
f 558/13/418 554/14/418 556/15/418 560/16/418
f 554/17/419 553/18/419 555/19/419 556/20/419
f 558/21/420 557/22/420 553/23/420 554/24/420
f 561/1/421 565/2/421 567/3/421 563/4/421
f 564/5/422 563/6/422 567/7/422 568/8/422
f 568/9/423 567/10/423 565/11/423 566/12/423
f 566/13/424 562/14/424 564/15/424 568/16/424
f 562/17/425 561/18/425 563/19/425 564/20/425
f 566/21/426 565/22/426 561/23/426 562/24/426
f 569/1/427 573/2/427 575/3/427 571/4/427
f 572/5/428 571/6/428 575/7/428 576/8/428
f 576/9/429 575/10/429 573/11/429 574/12/429
f 574/13/430 570/14/430 572/15/430 576/16/430
f 570/17/431 569/18/431 571/19/431 572/20/431
f 574/21/432 573/22/432 569/23/432 570/24/432
f 577/1/433 581/2/433 583/3/433 579/4/433
f 580/5/434 579/6/434 583/7/434 584/8/434
f 584/9/435 583/10/435 581/11/435 582/12/435
f 582/13/436 578/14/436 580/15/436 584/16/436
f 578/17/437 577/18/437 579/19/437 580/20/437
f 582/21/438 581/22/438 577/23/438 578/24/438
f 585/1/439 589/2/439 591/3/439 587/4/439
f 588/5/440 587/6/440 591/7/440 592/8/440
f 592/9/441 591/10/441 589/11/441 590/12/441
f 590/13/442 586/14/442 588/15/442 592/16/442
f 586/17/443 585/18/443 587/19/443 588/20/443
f 590/21/444 589/22/444 585/23/444 586/24/444
f 593/1/445 597/2/445 599/3/445 595/4/445
f 596/5/446 595/6/446 599/7/446 600/8/446
f 600/9/447 599/10/447 597/11/447 598/12/447
f 598/13/448 594/14/448 596/15/448 600/16/448
f 594/17/449 593/18/449 595/19/449 596/20/449
f 598/21/450 597/22/450 593/23/450 594/24/450
f 601/1/451 605/2/451 607/3/451 603/4/451
f 604/5/452 603/6/452 607/7/452 608/8/452
f 608/9/453 607/10/453 605/11/453 606/12/453
f 606/13/454 602/14/454 604/15/454 608/16/454
f 602/17/455 601/18/455 603/19/455 604/20/455
f 606/21/456 605/22/456 601/23/456 602/24/456
f 609/1/457 613/2/457 615/3/457 611/4/457
f 612/5/458 611/6/458 615/7/458 616/8/458
f 616/9/459 615/10/459 613/11/459 614/12/459
f 614/13/460 610/14/460 612/15/460 616/16/460
f 610/17/461 609/18/461 611/19/461 612/20/461
f 614/21/462 613/22/462 609/23/462 610/24/462
f 617/1/463 621/2/463 623/3/463 619/4/463
f 620/5/464 619/6/464 623/7/464 624/8/464
f 624/9/465 623/10/465 621/11/465 622/12/465
f 622/13/466 618/14/466 620/15/466 624/16/466
f 618/17/467 617/18/467 619/19/467 620/20/467
f 622/21/468 621/22/468 617/23/468 618/24/468
f 625/1/469 629/2/469 631/3/469 627/4/469
f 628/5/470 627/6/470 631/7/470 632/8/470
f 632/9/471 631/10/471 629/11/471 630/12/471
f 630/13/472 626/14/472 628/15/472 632/16/472
f 626/17/473 625/18/473 627/19/473 628/20/473
f 630/21/474 629/22/474 625/23/474 626/24/474
f 633/1/475 637/2/475 639/3/475 635/4/475
f 636/5/476 635/6/476 639/7/476 640/8/476
f 640/9/477 639/10/477 637/11/477 638/12/477
f 638/13/478 634/14/478 636/15/478 640/16/478
f 634/17/479 633/18/479 635/19/479 636/20/479
f 638/21/480 637/22/480 633/23/480 634/24/480
f 641/1/481 645/2/481 647/3/481 643/4/481
f 644/5/482 643/6/482 647/7/482 648/8/482
f 648/9/483 647/10/483 645/11/483 646/12/483
f 646/13/484 642/14/484 644/15/484 648/16/484
f 642/17/485 641/18/485 643/19/485 644/20/485
f 646/21/486 645/22/486 641/23/486 642/24/486
f 649/1/487 653/2/487 655/3/487 651/4/487
f 652/5/488 651/6/488 655/7/488 656/8/488
f 656/9/489 655/10/489 653/11/489 654/12/489
f 654/13/490 650/14/490 652/15/490 656/16/490
f 650/17/491 649/18/491 651/19/491 652/20/491
f 654/21/492 653/22/492 649/23/492 650/24/492
f 657/1/493 661/2/493 663/3/493 659/4/493
f 660/5/494 659/6/494 663/7/494 664/8/494
f 664/9/495 663/10/495 661/11/495 662/12/495
f 662/13/496 658/14/496 660/15/496 664/16/496
f 658/17/497 657/18/497 659/19/497 660/20/497
f 662/21/498 661/22/498 657/23/498 658/24/498
f 665/1/499 669/2/499 671/3/499 667/4/499
f 668/5/500 667/6/500 671/7/500 672/8/500
f 672/9/501 671/10/501 669/11/501 670/12/501
f 670/13/502 666/14/502 668/15/502 672/16/502
f 666/17/503 665/18/503 667/19/503 668/20/503
f 670/21/504 669/22/504 665/23/504 666/24/504
f 673/1/505 677/2/505 679/3/505 675/4/505
f 676/5/506 675/6/506 679/7/506 680/8/506
f 680/9/507 679/10/507 677/11/507 678/12/507
f 678/13/508 674/14/508 676/15/508 680/16/508
f 674/17/509 673/18/509 675/19/509 676/20/509
f 678/21/510 677/22/510 673/23/510 674/24/510
f 681/1/511 685/2/511 687/3/511 683/4/511
f 684/5/512 683/6/512 687/7/512 688/8/512
f 688/9/513 687/10/513 685/11/513 686/12/513
f 686/13/514 682/14/514 684/15/514 688/16/514
f 682/17/515 681/18/515 683/19/515 684/20/515
f 686/21/516 685/22/516 681/23/516 682/24/516
f 689/1/517 693/2/517 695/3/517 691/4/517
f 692/5/518 691/6/518 695/7/518 696/8/518
f 696/9/519 695/10/519 693/11/519 694/12/519
f 694/13/520 690/14/520 692/15/520 696/16/520
f 690/17/521 689/18/521 691/19/521 692/20/521
f 694/21/522 693/22/522 689/23/522 690/24/522
f 697/1/523 701/2/523 703/3/523 699/4/523
f 700/5/524 699/6/524 703/7/524 704/8/524
f 704/9/525 703/10/525 701/11/525 702/12/525
f 702/13/526 698/14/526 700/15/526 704/16/526
f 698/17/527 697/18/527 699/19/527 700/20/527
f 702/21/528 701/22/528 697/23/528 698/24/528
o BézierCircle
v -8.181863 28.823139 0.000000
v -15.024893 28.332270 -1.969406
v -21.305347 27.056847 -4.070237
v -27.093901 25.127993 -6.344146
v -32.461231 22.676838 -8.832789
v -37.478016 19.834507 -11.577822
v -42.214931 16.732128 -14.620897
v -46.742649 13.500831 -18.003672
v -51.131851 10.271740 -21.767801
v -55.453213 7.175985 -25.954937
v -59.777409 4.344691 -30.606737
v -64.175117 1.908986 -35.764854
v -68.717026 -0.000001 -41.470940
v -70.928436 -0.642120 -44.720074
v -73.090164 -1.061355 -48.686668
v -75.130295 -1.289546 -53.277515
v -76.976921 -1.358534 -58.399433
v -78.558136 -1.300159 -63.959213
v -79.802040 -1.146263 -69.863670
v -80.636719 -0.928685 -76.019592
v -80.990257 -0.679266 -82.333794
v -80.790764 -0.429847 -88.713081
v -79.966324 -0.212269 -95.064247
v -78.445023 -0.058373 -101.294106
v -76.154945 0.000000 -107.309448
v -73.761063 0.000000 -112.086578
v -71.109215 0.000000 -116.537102
v -68.198341 0.000000 -120.640656
v -65.027374 0.000000 -124.376862
v -61.595238 0.000000 -127.725357
v -57.900871 0.000000 -130.665771
v -53.943203 0.000000 -133.177734
v -49.721169 0.000000 -135.240875
v -45.233700 0.000000 -136.834839
v -40.479729 0.000000 -137.939240
v -35.458187 0.000000 -138.533722
v -30.168009 0.000000 -138.597900
v -25.447990 0.000000 -138.163071
v -21.054615 0.000000 -137.249786
v -16.969297 0.000000 -135.883087
v -13.173451 0.000000 -134.087997
v -9.648490 0.000000 -131.889557
v -6.375827 0.000000 -129.312790
v -3.336876 0.000000 -126.382751
v -0.513052 0.000000 -123.124458
v 2.114233 0.000000 -119.562935
v 4.563563 0.000000 -115.723244
v 6.853525 0.000000 -111.630402
v 9.002706 0.000000 -107.309448
v 12.799172 0.000000 -97.361145
v 15.364403 0.000000 -86.657089
v 16.852669 0.000000 -75.478882
v 17.418242 0.000000 -64.108101
v 17.215395 0.000000 -52.826336
v 16.398401 0.000000 -41.915180
v 15.121534 0.000000 -31.656225
v 13.539066 0.000000 -22.331055
v 11.805268 0.000000 -14.221259
v 10.074413 0.000000 -7.608428
v 8.500775 0.000000 -2.774149
v 7.238624 0.000000 0.000000
v 5.705543 0.000000 3.207199
v 4.511450 0.000000 7.433525
v 3.699258 0.000000 12.508465
v 3.311879 0.000000 18.261505
v 3.392226 0.000000 24.522135
v 3.983211 0.000000 31.119839
v 5.127746 0.000000 37.884106
v 6.868744 0.000000 44.644417
v 9.249118 0.000000 51.230267
v 12.311777 0.000000 57.471142
v 16.099638 0.000000 63.196526
v 20.655609 0.000000 68.235909
v 24.361116 0.000000 71.359200
v 28.173492 0.000000 73.911537
v 32.089581 0.000000 75.923698
v 36.106228 0.000000 77.426476
v 40.220284 0.000000 78.450668
v 44.428589 0.000000 79.027054
v 48.727989 0.000000 79.186424
v 53.115334 0.000000 78.959572
v 57.587463 0.000000 78.377289
v 62.141224 0.000000 77.470360
v 66.773468 0.000000 76.269585
v 71.481033 0.000000 74.805733
v 75.429825 0.000000 73.422104
v 79.305450 0.000000 71.908005
v 83.053841 0.000000 70.241959
v 86.620949 0.000000 68.402481
v 89.952721 0.000000 66.368088
v 92.995094 0.000000 64.117310
v 95.694016 0.000000 61.628643
v 97.995438 0.000000 58.880619
v 99.845299 0.000000 55.851746
v 101.189537 0.000000 52.520546
v 101.974113 0.000000 48.865532
v 102.144958 0.000000 44.865227
v 101.676743 -0.032322 42.892029
v 100.493706 -0.117536 40.780869
v 98.719597 -0.238011 38.582912
v 96.478203 -0.376116 36.349323
v 93.893265 -0.514221 34.131268
v 91.088547 -0.634696 31.979912
v 88.187836 -0.719910 29.946413
v 85.314873 -0.752232 28.081944
v 82.593445 -0.714033 26.437664
v 80.147293 -0.587681 25.064739
v 78.100204 -0.355547 24.014336
v 76.575928 0.000000 23.337612
v 70.407059 2.303747 21.076685
v 63.852322 5.013139 18.897675
v 56.978699 8.011839 16.793251
v 49.853172 11.183507 14.756083
v 42.542721 14.411805 12.778835
v 35.114326 17.580395 10.854177
v 27.634972 20.572941 8.974775
v 20.171635 23.273100 7.133299
v 12.791302 25.564541 5.322415
v 5.560953 27.330915 3.534792
v -1.452432 28.455894 1.763097
l 705 706
l 706 707
l 707 708
l 708 709
l 709 710
l 710 711
l 711 712
l 712 713
l 713 714
l 714 715
l 715 716
l 716 717
l 717 718
l 718 719
l 719 720
l 720 721
l 721 722
l 722 723
l 723 724
l 724 725
l 725 726
l 726 727
l 727 728
l 728 729
l 729 730
l 730 731
l 731 732
l 732 733
l 733 734
l 734 735
l 735 736
l 736 737
l 737 738
l 738 739
l 739 740
l 740 741
l 741 742
l 742 743
l 743 744
l 744 745
l 745 746
l 746 747
l 747 748
l 748 749
l 749 750
l 750 751
l 751 752
l 752 753
l 753 754
l 754 755
l 755 756
l 756 757
l 757 758
l 758 759
l 759 760
l 760 761
l 761 762
l 762 763
l 763 764
l 764 765
l 765 766
l 766 767
l 767 768
l 768 769
l 769 770
l 770 771
l 771 772
l 772 773
l 773 774
l 774 775
l 775 776
l 776 777
l 777 778
l 778 779
l 779 780
l 780 781
l 781 782
l 782 783
l 783 784
l 784 785
l 785 786
l 786 787
l 787 788
l 788 789
l 789 790
l 790 791
l 791 792
l 792 793
l 793 794
l 794 795
l 795 796
l 796 797
l 797 798
l 798 799
l 799 800
l 800 801
l 801 802
l 802 803
l 803 804
l 804 805
l 805 806
l 806 807
l 807 808
l 808 809
l 809 810
l 810 811
l 811 812
l 812 813
l 813 814
l 814 815
l 815 816
l 816 817
l 817 818
l 818 819
l 819 820
l 820 821
l 821 822
l 822 823
l 823 824
l 824 705
