# Blender 5.0.1
# www.blender.org
mtllib tTest.mtl
o Curve
v -30.344879 21.000000 -232.216827
v -51.621162 20.975454 -231.246262
v -70.349533 20.893227 -228.459747
v -86.662415 20.740143 -224.026993
v -100.692245 20.503027 -218.117691
v -112.571457 20.168705 -210.901520
v -122.432480 19.724003 -202.548187
v -130.407745 19.155745 -193.227386
v -136.629669 18.450756 -183.108810
v -141.230698 17.595861 -172.362152
v -144.343262 16.577888 -161.157089
v -146.099792 15.383660 -149.663330
v -146.632721 14.000000 -138.050568
v -144.837250 12.087986 -123.392975
v -139.813797 10.336893 -110.580986
v -131.966736 8.743646 -99.505653
v -121.700417 7.305168 -90.058029
v -109.419205 6.018385 -82.129150
v -95.527458 4.880220 -75.610069
v -80.429535 3.887599 -70.391830
v -64.529808 3.037446 -66.365486
v -48.232628 2.326686 -63.422085
v -31.942362 1.752242 -61.452671
v -16.063370 1.311040 -60.348289
v -1.000000 1.000000 -60.000000
v -0.594116 0.000000 -58.100124
v 88.970161 0.000000 -58.100124
v 88.970161 0.000000 45.811451
v -88.492744 0.000000 45.811451
v -303.492737 0.000000 260.811462
v -352.520203 0.000000 260.811462
v -352.520203 0.000000 21.132721
v -172.520203 0.000000 -158.867279
v -172.520203 0.000000 -348.182007
v -7.488113 0.000000 -348.182007
v 192.511887 0.000000 -148.182007
v 192.511887 0.000000 -12.528885
v 343.154266 0.000000 -12.528885
v 343.154266 0.000000 234.045013
v 232.608231 0.000000 234.045013
v 127.608231 0.000000 129.045013
v 24.310593 0.000000 129.045013
v -240.668228 20.000000 274.629150
v -240.668228 20.000000 171.320724
v 105.584518 20.000000 171.320724
v 105.584518 20.000000 63.847450
v 171.687317 20.000000 63.847450
v 346.687317 20.000000 -111.152550
v 346.687317 20.000000 -231.216827
v -28.344879 20.000000 -231.216827
v -240.668243 20.000002 274.629150
v -239.067612 19.916365 297.218842
v -234.589325 19.683241 316.741089
v -227.718796 19.327311 333.406036
v -218.941452 18.875256 347.423798
v -208.742722 18.353756 359.004517
v -197.608032 17.789492 368.358307
v -186.022797 17.209145 375.695312
v -174.472443 16.639397 381.225647
v -163.442383 16.106928 385.159454
v -153.418045 15.638418 387.706848
v -144.884857 15.260550 389.077972
v -138.328232 15.000002 389.483093
v -132.064850 14.806853 389.228485
v -124.336777 14.606672 388.381744
v -115.517578 14.389376 386.794342
v -105.980804 14.144882 384.317749
v -96.100021 13.863110 380.803436
v -86.248779 13.533977 376.102844
v -76.800644 13.147400 370.067444
v -68.129166 12.693298 362.548706
v -60.607910 12.161590 353.398071
v -54.610435 11.542192 342.467041
v -50.510296 10.825022 329.607056
v -48.681057 10.000000 314.669617
v -49.449417 9.302736 301.527039
v -52.459263 8.744989 290.095459
v -57.265942 8.300210 280.091827
v -63.424805 7.941848 271.233032
v -70.491196 7.643353 263.236053
v -78.020462 7.378176 255.817780
v -85.567947 7.119767 248.695145
v -92.689003 6.841577 241.585083
v -98.938980 6.517055 234.204514
v -103.873215 6.119651 226.270370
v -107.047066 5.622816 217.499573
v -108.015877 5.000000 207.608994
v -107.764664 4.683010 202.744705
v -106.944206 4.268289 196.304367
v -105.137497 3.779721 188.669006
v -101.927521 3.241188 180.219666
v -96.897278 2.676571 171.337357
v -89.629761 2.109752 162.403122
v -79.707954 1.564614 153.798004
v -66.714859 1.065038 145.903015
v -50.233459 0.634907 139.099197
v -29.846752 0.298102 133.767578
v -5.137730 0.078506 130.289185
v 24.310595 0.000000 129.045029
l 1 2
l 2 3
l 3 4
l 4 5
l 5 6
l 6 7
l 7 8
l 8 9
l 9 10
l 10 11
l 11 12
l 12 13
l 13 14
l 14 15
l 15 16
l 16 17
l 17 18
l 18 19
l 19 20
l 20 21
l 21 22
l 22 23
l 23 24
l 24 25
l 26 27
l 27 28
l 28 29
l 29 30
l 30 31
l 31 32
l 32 33
l 33 34
l 34 35
l 35 36
l 36 37
l 37 38
l 38 39
l 39 40
l 40 41
l 41 42
l 43 44
l 44 45
l 45 46
l 46 47
l 47 48
l 48 49
l 49 50
l 51 52
l 52 53
l 53 54
l 54 55
l 55 56
l 56 57
l 57 58
l 58 59
l 59 60
l 60 61
l 61 62
l 62 63
l 63 64
l 64 65
l 65 66
l 66 67
l 67 68
l 68 69
l 69 70
l 70 71
l 71 72
l 72 73
l 73 74
l 74 75
l 75 76
l 76 77
l 77 78
l 78 79
l 79 80
l 80 81
l 81 82
l 82 83
l 83 84
l 84 85
l 85 86
l 86 87
l 87 88
l 88 89
l 89 90
l 90 91
l 91 92
l 92 93
l 93 94
l 94 95
l 95 96
l 96 97
l 97 98
l 98 99
o Cube
v -31.000000 20.000000 -252.000000
v -31.000000 22.000000 -252.000000
v -31.000000 20.000000 -212.000000
v -31.000000 22.000000 -212.000000
v -41.243946 20.125732 -251.746841
v -41.245556 22.125685 -251.733032
v -39.423412 19.851267 -211.789246
v -39.425022 21.851219 -211.775436
v -52.136211 20.250359 -251.235016
v -52.138802 22.250164 -251.207336
v -48.509377 19.703739 -211.403534
v -48.511967 21.703545 -211.375854
v -63.160114 20.363512 -249.766525
v -63.162521 22.363039 -249.723145
v -57.293304 19.512297 -210.208252
v -57.295712 21.511824 -210.164871
v -74.194870 20.472837 -248.095322
v -74.196114 22.471958 -248.036011
v -66.041756 19.316521 -208.952118
v -66.042999 21.315641 -208.892807
v -85.286499 20.556898 -245.148514
v -85.284515 22.555391 -245.070908
v -74.263962 19.054174 -206.726578
v -74.261978 21.052668 -206.648972
v -96.321983 20.625229 -241.669403
v -96.314857 22.622889 -241.572906
v -82.284050 18.768259 -204.259674
v -82.276924 20.765919 -204.163177
v -107.235069 20.660620 -237.060928
v -107.219704 22.657141 -236.944031
v -89.808723 18.422533 -201.126099
v -89.793358 20.419054 -201.009201
v -117.788063 20.647415 -231.158417
v -117.760109 22.642403 -231.019684
v -96.673698 17.996399 -197.288727
v -96.645744 19.991386 -197.149994
v -127.864609 20.583475 -224.167770
v -127.819405 22.576492 -224.007050
v -103.017082 17.504158 -192.972931
v -102.971878 19.497175 -192.812210
v -137.235474 20.453337 -215.954926
v -137.167419 22.443859 -215.772736
v -108.739143 16.929928 -188.106323
v -108.671082 18.920450 -187.924133
v -145.417007 20.227827 -206.389908
v -145.319305 22.215183 -206.187729
v -113.575996 16.233124 -182.511215
v -113.478287 18.220480 -182.309036
v -152.236725 19.898714 -195.861069
v -152.103683 21.882231 -195.642059
v -117.623367 15.419513 -176.320038
v -117.490326 17.403028 -176.101028
v -157.674423 19.461239 -184.688416
v -157.501923 21.440252 -184.456558
v -120.956329 14.495273 -169.617905
v -120.783829 16.474285 -169.386047
v -161.725464 18.907393 -173.116562
v -161.510818 20.881222 -172.875885
v -123.564011 13.455776 -162.440247
v -123.349365 15.429606 -162.199570
v -164.466293 18.231047 -161.362244
v -164.208069 20.198990 -161.116226
v -125.448364 12.297352 -154.851273
v -125.190140 14.265295 -154.605255
v -166.024521 17.426716 -149.493790
v -165.720825 19.388111 -149.247437
v -126.618828 11.015491 -147.026611
v -126.315140 12.976888 -146.780258
v -166.471436 16.485138 -137.195877
v -166.115997 18.439735 -136.965210
v -127.134125 9.600060 -139.469940
v -126.778687 11.554658 -139.239273
v -164.979462 15.018271 -124.592361
v -164.611969 16.975098 -124.403206
v -126.282501 8.500023 -132.342056
v -125.915009 10.456849 -132.152908
v -161.762909 13.539814 -112.014610
v -161.389618 15.500053 -111.879997
v -124.706291 7.428482 -125.779015
v -124.333008 9.388721 -125.644402
v -156.459152 12.082937 -99.733498
v -156.090759 14.047522 -99.665047
v -122.309662 6.377098 -119.764854
v -121.941261 8.341682 -119.696404
v -148.873215 10.705706 -88.936981
v -148.525818 12.675291 -88.930107
v -118.391083 5.417745 -114.292000
v -118.043686 7.387331 -114.285126
v -140.029709 9.435493 -79.783432
v -139.713455 11.409908 -79.824242
v -113.384132 4.559098 -109.215279
v -113.067871 6.533514 -109.256088
v -130.448074 8.261586 -71.939896
v -130.167648 10.240382 -72.015556
v -107.582245 3.777867 -104.452202
v -107.301811 5.756663 -104.527863
v -120.356972 7.190429 -65.428543
v -120.112625 9.173068 -65.525711
v -100.899490 3.091456 -100.135956
v -100.655144 5.074096 -100.233124
v -109.989891 6.241879 -60.297562
v -109.777496 8.227715 -60.404053
v -93.349884 2.521834 -96.481415
v -93.137489 4.507671 -96.587906
v -99.521439 5.358117 -55.825661
v -99.338638 7.346706 -55.935661
v -85.464249 2.002691 -93.123604
v -85.281448 3.991281 -93.233604
v -88.978226 4.556863 -52.174042
v -88.820946 6.547765 -52.281651
v -77.115517 1.561248 -90.256882
v -76.958237 3.552150 -90.364487
v -78.408752 3.833182 -49.226254
v -78.273300 5.826022 -49.327465
v -68.434494 1.192513 -87.872604
v -68.299042 3.185353 -87.973816
v -67.825645 3.148094 -46.622055
v -67.710098 5.142602 -46.714722
v -59.608994 0.856382 -85.701904
v -59.493450 2.850889 -85.794571
v -57.244408 2.542827 -44.701263
v -57.145294 4.538712 -44.782646
v -50.510315 0.602698 -84.082573
v -50.411201 2.598583 -84.163956
v -46.662731 1.972167 -43.064873
v -46.578678 3.969213 -43.133709
v -41.335987 0.382638 -82.676727
v -41.251934 2.379685 -82.745567
v -36.084301 1.445320 -41.789459
v -36.013622 3.443314 -41.844410
v -32.057796 0.208804 -81.567062
v -31.987118 2.206798 -81.622017
v -25.505529 0.970808 -40.939598
v -25.446815 2.969555 -40.979218
v -22.701748 0.097694 -80.831657
v -22.643034 2.096441 -80.871277
v -14.921063 0.523282 -40.308739
v -14.873525 2.522579 -40.332100
v -13.321797 0.018320 -80.273567
v -13.274259 2.017617 -80.296928
v -4.317539 0.123592 -40.070000
v -4.280406 2.123239 -40.075569
v -3.924505 0.004884 -80.067894
v -3.887372 2.004531 -80.073463
v -1.000000 0.000000 -40.000000
v -1.000000 2.000000 -40.000000
v -1.000000 0.000000 -80.000000
v -1.000000 2.000000 -80.000000
v -30.000000 20.000000 -212.000000
v -30.000000 22.000000 -212.000000
v -30.000000 20.000000 -252.000000
v -30.000000 22.000000 -252.000000
v 326.000000 20.000000 -212.000000
v 326.000000 22.000000 -212.000000
v 366.000000 20.000000 -252.000000
v 366.000000 22.000000 -252.000000
v 366.000000 22.000000 -92.000000
v 366.000000 20.000000 -92.000000
v 326.000000 20.000000 -112.000000
v 326.000000 22.000000 -112.000000
v 186.000000 22.000000 88.000000
v 186.000000 20.000000 88.000000
v 166.000000 20.000000 48.000000
v 166.000000 22.000000 48.000000
v 126.000000 22.000000 88.000000
v 126.000000 20.000000 88.000000
v 86.000000 20.000000 48.000000
v 86.000000 22.000000 48.000000
v 126.000000 22.000000 193.000000
v 126.000000 20.000000 193.000000
v 86.000000 20.000000 153.000000
v 86.000000 22.000000 153.000000
v -224.000000 22.000000 193.000000
v -224.000000 20.000000 193.000000
v -264.000000 20.000000 153.000000
v -264.000000 22.000000 153.000000
v -224.000000 22.000000 283.000000
v -224.000000 20.000000 283.000000
v -264.000000 20.000000 283.000000
v -264.000000 22.000000 283.000000
v -30.000000 20.000000 -212.000000
v -30.000000 22.000000 -212.000000
v -30.000000 20.000000 -252.000000
v -30.000000 22.000000 -252.000000
v -31.000000 20.000000 -212.000000
v -31.000000 20.000000 -252.000000
v -31.000000 22.000000 -212.000000
v -31.000000 22.000000 -252.000000
v -30.000000 20.000000 -232.000000
v -30.000000 22.000000 -232.000000
v -31.000000 20.000000 -232.000000
v -31.000000 22.000000 -232.000000
v -30.000000 21.000000 -212.000000
v -30.000000 21.000000 -252.000000
v -31.000000 21.000000 -212.000000
v -31.000000 21.000000 -252.000000
v -31.000000 21.000000 -232.000000
v 0.000000 0.000000 -40.000000
v 0.000000 2.000000 -40.000000
v 0.000000 0.000000 -80.000000
v 0.000000 2.000000 -80.000000
v 71.000000 0.000000 -40.000000
v 71.000000 2.000000 -40.000000
v 111.000000 0.000000 -80.000000
v 111.000000 2.000000 -80.000000
v 111.000000 2.000000 65.000000
v 111.000000 0.000000 65.000000
v 71.000000 0.000000 25.000000
v 71.000000 2.000000 25.000000
v -79.000000 2.000000 65.000000
v -79.000000 0.000000 65.000000
v -99.000000 0.000000 25.000000
v -99.000000 2.000000 25.000000
v -294.000000 2.000000 279.999969
v -294.000000 0.000000 279.999969
v -314.000000 0.000000 239.999969
v -314.000000 2.000000 239.999969
v -374.000000 2.000000 279.999969
v -374.000000 0.000000 279.999969
v -334.000000 0.000000 239.999969
v -334.000000 2.000000 239.999969
v -374.000000 2.000000 19.999985
v -374.000000 0.000000 19.999985
v -334.000000 0.000000 40.000000
v -334.000000 2.000000 40.000000
v -189.000000 2.000000 -165.000000
v -189.000000 0.000000 -165.000000
v -149.000000 0.000000 -145.000000
v -149.000000 2.000000 -145.000000
v -189.000000 2.000000 -364.999969
v -189.000000 0.000000 -364.999969
v -149.000000 0.000000 -324.999969
v -149.000000 2.000000 -324.999969
v 1.000000 2.000000 -364.999969
v 1.000000 0.000000 -364.999969
v -19.000000 0.000000 -324.999969
v -19.000000 2.000000 -324.999969
v 211.000000 2.000000 -155.000000
v 211.000000 0.000000 -155.000000
v 171.000000 0.000000 -135.000000
v 171.000000 2.000000 -135.000000
v 211.000000 2.000000 -35.000000
v 211.000000 0.000000 -35.000000
v 171.000000 0.000000 5.000000
v 171.000000 2.000000 5.000000
v 361.000000 2.000000 -35.000000
v 361.000000 0.000000 -35.000000
v 321.000000 0.000000 5.000000
v 321.000000 2.000000 5.000000
v 361.000000 2.000000 254.999969
v 361.000000 0.000000 254.999969
v 321.000000 0.000000 214.999969
v 321.000000 2.000000 214.999969
v 221.000000 2.000000 254.999969
v 221.000000 0.000000 254.999969
v 241.000000 0.000000 214.999969
v 241.000000 2.000000 214.999969
v 116.000000 2.000000 149.999969
v 116.000000 0.000000 149.999969
v 136.000000 0.000000 109.999969
v 136.000000 2.000000 109.999969
v 6.000000 2.000000 149.999969
v 6.000000 0.000000 149.999969
v 6.000000 0.000000 109.999969
v 6.000000 2.000000 109.999969
v -1.000000 0.000000 -40.000000
v -1.000000 2.000000 -40.000000
v -1.000000 0.000000 -80.000000
v 0.000000 2.000000 -40.000000
v 0.000000 0.000000 -80.000000
v 0.000000 2.000000 -80.000000
v -1.000000 0.000000 -40.000000
v -1.000000 2.000000 -40.000000
v -1.000000 0.000000 -80.000000
v -1.000000 2.000000 -80.000000
v 0.000000 2.000000 -60.000000
v -1.000000 0.000000 -60.000000
v -1.000000 2.000000 -60.000000
v 0.000000 1.000000 -80.000000
v -1.000000 1.000000 -40.000000
v -1.000000 1.000000 -80.000000
v -1.000000 1.000000 -60.000000
vn 1.0000 -0.0000 -0.0000
vn 0.0259 -0.0034 0.9997
vn -0.9990 -0.0011 0.0455
vn -0.0253 0.0034 -0.9997
vn 0.0011 -1.0000 -0.0035
vn -0.0011 1.0000 0.0035
vn 0.0433 -0.0103 0.9990
vn -0.9959 -0.0025 0.0906
vn -0.0475 0.0103 -0.9988
vn 0.0007 -0.9999 -0.0103
vn -0.0007 0.9999 0.0103
vn 0.1361 -0.0174 0.9905
vn -0.9892 -0.0044 0.1466
vn -0.1325 0.0174 -0.9910
vn 0.0016 -0.9998 -0.0178
vn -0.0016 0.9998 0.0178
vn 0.1435 -0.0253 0.9893
vn -0.9790 -0.0067 0.2037
vn -0.1502 0.0252 -0.9883
vn 0.0006 -0.9997 -0.0256
vn -0.0006 0.9997 0.0256
vn 0.2632 -0.0331 0.9642
vn -0.9613 -0.0097 0.2754
vn -0.2572 0.0331 -0.9658
vn -0.0000 -0.9994 -0.0343
vn -0.0000 0.9994 0.0343
vn 0.2962 -0.0423 0.9542
vn -0.9364 -0.0136 0.3507
vn -0.3010 0.0422 -0.9527
vn -0.0022 -0.9990 -0.0435
vn 0.0022 0.9990 0.0435
vn 0.3872 -0.0514 0.9206
vn -0.9001 -0.0186 0.4353
vn -0.3892 0.0513 -0.9197
vn -0.0056 -0.9986 -0.0534
vn 0.0056 0.9986 0.0534
vn 0.4913 -0.0610 0.8689
vn -0.8492 -0.0248 0.5275
vn -0.4882 0.0611 -0.8706
vn -0.0106 -0.9979 -0.0640
vn 0.0106 0.9979 0.0640
vn 0.5664 -0.0720 0.8210
vn -0.7833 -0.0323 0.6208
vn -0.5698 0.0719 -0.8186
vn -0.0180 -0.9970 -0.0751
vn 0.0180 0.9970 0.0751
vn 0.6520 -0.0834 0.7536
vn -0.7009 -0.0412 0.7120
vn -0.6584 0.0831 -0.7480
vn -0.0281 -0.9959 -0.0860
vn 0.0281 0.9959 0.0860
vn 0.7605 -0.0938 0.6426
vn -0.6033 -0.0513 0.7959
vn -0.7586 0.0939 -0.6448
vn -0.0415 -0.9945 -0.0961
vn 0.0415 0.9945 0.0961
vn 0.8401 -0.1053 0.5322
vn -0.4968 -0.0623 0.8657
vn -0.8370 0.1056 -0.5370
vn -0.0577 -0.9928 -0.1054
vn 0.0577 0.9928 0.1054
vn 0.8967 -0.1177 0.4266
vn -0.3872 -0.0739 0.9190
vn -0.8954 0.1179 -0.4293
vn -0.0764 -0.9907 -0.1129
vn 0.0764 0.9907 0.1129
vn 0.9387 -0.1301 0.3192
vn -0.2798 -0.0862 0.9562
vn -0.9383 0.1302 -0.3204
vn -0.0968 -0.9882 -0.1184
vn 0.0968 0.9882 0.1184
vn 0.9661 -0.1425 0.2152
vn -0.1784 -0.0990 0.9790
vn -0.9661 0.1425 -0.2152
vn -0.1183 -0.9855 -0.1218
vn 0.1183 0.9855 0.1218
vn 0.9808 -0.1551 0.1184
vn -0.0802 -0.1120 0.9905
vn -0.9811 0.1549 -0.1164
vn -0.1405 -0.9823 -0.1235
vn 0.1405 0.9823 0.1235
vn 0.9850 -0.1697 0.0320
vn 0.0357 -0.1235 0.9917
vn -0.9855 0.1684 -0.0208
vn -0.1649 -0.9785 -0.1241
vn 0.1649 0.9785 0.1242
vn 0.9758 -0.1650 -0.1433
vn 0.1741 -0.1271 0.9765
vn -0.9768 0.1660 0.1356
vn -0.1815 -0.9777 -0.1056
vn 0.1815 0.9777 0.1056
vn 0.9534 -0.1591 -0.2564
vn 0.3270 -0.1266 0.9365
vn -0.9518 0.1583 0.2628
vn -0.1869 -0.9788 -0.0836
vn 0.1869 0.9788 0.0836
vn 0.9082 -0.1514 -0.3901
vn 0.4870 -0.1215 0.8649
vn -0.9009 0.1492 0.4076
vn -0.1888 -0.9805 -0.0550
vn 0.1888 0.9805 0.0550
vn 0.7938 -0.1331 -0.5934
vn 0.6238 -0.1127 0.7734
vn -0.8022 0.1348 0.5817
vn -0.1781 -0.9839 -0.0153
vn 0.1781 0.9839 0.0153
vn 0.6955 -0.1231 -0.7079
vn 0.7289 -0.1028 0.6769
vn -0.7046 0.1246 0.6986
vn -0.1640 -0.9864 0.0120
vn 0.1640 0.9864 -0.0120
vn 0.6206 -0.1165 -0.7755
vn 0.8084 -0.0923 0.5813
vn -0.6204 0.1165 0.7756
vn -0.1498 -0.9883 0.0296
vn 0.1498 0.9883 -0.0296
vn 0.5317 -0.1071 -0.8401
vn 0.8651 -0.0824 0.4947
vn -0.5311 0.1070 0.8405
vn -0.1318 -0.9903 0.0435
vn 0.1318 0.9903 -0.0435
vn 0.4282 -0.0954 -0.8986
vn 0.9031 -0.0739 0.4229
vn -0.4347 0.0960 0.8955
vn -0.1102 -0.9925 0.0533
vn 0.1102 0.9925 -0.0533
vn 0.3858 -0.0884 -0.9184
vn 0.9317 -0.0659 0.3571
vn -0.3853 0.0883 0.9185
vn -0.0991 -0.9936 0.0543
vn 0.0991 0.9936 -0.0543
vn 0.3206 -0.0790 -0.9439
vn 0.9518 -0.0589 0.3011
vn -0.3213 0.0791 0.9437
vn -0.0844 -0.9949 0.0548
vn 0.0844 0.9949 -0.0548
vn 0.2621 -0.0697 -0.9625
vn 0.9660 -0.0528 0.2529
vn -0.2641 0.0698 0.9620
vn -0.0712 -0.9961 0.0529
vn 0.0712 0.9961 -0.0529
vn 0.2369 -0.0621 -0.9696
vn 0.9770 -0.0469 0.2082
vn -0.2353 0.0620 0.9699
vn -0.0643 -0.9968 0.0482
vn 0.0643 0.9968 -0.0482
vn 0.1743 -0.0523 -0.9833
vn 0.9845 -0.0419 0.1704
vn -0.1761 0.0523 0.9830
vn -0.0515 -0.9977 0.0440
vn 0.0515 0.9977 -0.0440
vn 0.1511 -0.0441 -0.9875
vn 0.9902 -0.0370 0.1346
vn -0.1510 0.0441 0.9875
vn -0.0457 -0.9982 0.0376
vn 0.0457 0.9982 -0.0376
vn 0.1188 -0.0354 -0.9923
vn 0.9943 -0.0324 0.1017
vn -0.1186 0.0353 0.9923
vn -0.0390 -0.9988 0.0310
vn 0.0390 0.9988 -0.0310
vn 0.0789 -0.0261 -0.9965
vn 0.9971 -0.0279 0.0707
vn -0.0796 0.0262 0.9965
vn -0.0312 -0.9992 0.0238
vn 0.0312 0.9992 -0.0238
vn 0.0601 -0.0173 -0.9980
vn 0.9989 -0.0233 0.0403
vn -0.0596 0.0173 0.9981
vn -0.0273 -0.9995 0.0157
vn 0.0273 0.9995 -0.0157
vn 0.0228 -0.0077 -0.9997
vn 0.9998 -0.0185 0.0099
vn -0.0231 0.0077 0.9997
vn -0.0208 -0.9998 0.0073
vn 0.0208 0.9998 -0.0073
vn 0.0243 -0.0016 -0.9997
vn -0.0220 0.0016 0.9998
vn -0.0206 -0.9998 0.0014
vn 0.0207 0.9998 -0.0014
vn -0.0000 -0.0000 -1.0000
vn -0.0000 1.0000 -0.0000
vn -0.0000 -0.0000 1.0000
vn -0.0000 -1.0000 -0.0000
vn -0.7071 -0.0000 -0.7071
vn -1.0000 -0.0000 -0.0000
vn 0.7071 -0.0000 0.7071
vn 0.7071 -0.0000 -0.7071
vn -0.7071 -0.0000 0.7071
vt 0.375000 0.000000
vt 0.625000 0.000000
vt 0.625000 0.250000
vt 0.375000 0.250000
vt 0.625000 0.500000
vt 0.375000 0.500000
vt 0.625000 0.750000
vt 0.375000 0.750000
vt 0.625000 1.000000
vt 0.375000 1.000000
vt 0.125000 0.500000
vt 0.125000 0.750000
vt 0.875000 0.500000
vt 0.875000 0.750000
vt 0.500000 0.250000
vt 0.500000 0.125000
vt 0.625000 0.125000
vt 0.500000 1.000000
vt 0.875000 0.625000
vt 0.125000 0.625000
vt 0.500000 0.000000
vt 0.375000 0.125000
s 0
usemtl 
f 100/1/1 101/2/1 103/3/1 102/4/1
f 102/4/2 103/3/2 107/5/2 106/6/2
f 106/6/3 107/5/3 105/7/3 104/8/3
f 104/8/4 105/7/4 101/9/4 100/10/4
f 102/11/5 106/6/5 104/8/5 100/12/5
f 107/5/6 103/13/6 101/14/6 105/7/6
f 106/4/7 107/3/7 111/5/7 110/6/7
f 110/6/8 111/5/8 109/7/8 108/8/8
f 108/8/9 109/7/9 105/9/9 104/10/9
f 106/11/10 110/6/10 108/8/10 104/12/10
f 111/5/11 107/13/11 105/14/11 109/7/11
f 110/4/12 111/3/12 115/5/12 114/6/12
f 114/6/13 115/5/13 113/7/13 112/8/13
f 112/8/14 113/7/14 109/9/14 108/10/14
f 110/11/15 114/6/15 112/8/15 108/12/15
f 115/5/16 111/13/16 109/14/16 113/7/16
f 114/4/17 115/3/17 119/5/17 118/6/17
f 118/6/18 119/5/18 117/7/18 116/8/18
f 116/8/19 117/7/19 113/9/19 112/10/19
f 114/11/20 118/6/20 116/8/20 112/12/20
f 119/5/21 115/13/21 113/14/21 117/7/21
f 118/4/22 119/3/22 123/5/22 122/6/22
f 122/6/23 123/5/23 121/7/23 120/8/23
f 120/8/24 121/7/24 117/9/24 116/10/24
f 118/11/25 122/6/25 120/8/25 116/12/25
f 123/5/26 119/13/26 117/14/26 121/7/26
f 122/4/27 123/3/27 127/5/27 126/6/27
f 126/6/28 127/5/28 125/7/28 124/8/28
f 124/8/29 125/7/29 121/9/29 120/10/29
f 122/11/30 126/6/30 124/8/30 120/12/30
f 127/5/31 123/13/31 121/14/31 125/7/31
f 126/4/32 127/3/32 131/5/32 130/6/32
f 130/6/33 131/5/33 129/7/33 128/8/33
f 128/8/34 129/7/34 125/9/34 124/10/34
f 126/11/35 130/6/35 128/8/35 124/12/35
f 131/5/36 127/13/36 125/14/36 129/7/36
f 130/4/37 131/3/37 135/5/37 134/6/37
f 134/6/38 135/5/38 133/7/38 132/8/38
f 132/8/39 133/7/39 129/9/39 128/10/39
f 130/11/40 134/6/40 132/8/40 128/12/40
f 135/5/41 131/13/41 129/14/41 133/7/41
f 134/4/42 135/3/42 139/5/42 138/6/42
f 138/6/43 139/5/43 137/7/43 136/8/43
f 136/8/44 137/7/44 133/9/44 132/10/44
f 134/11/45 138/6/45 136/8/45 132/12/45
f 139/5/46 135/13/46 133/14/46 137/7/46
f 138/4/47 139/3/47 143/5/47 142/6/47
f 142/6/48 143/5/48 141/7/48 140/8/48
f 140/8/49 141/7/49 137/9/49 136/10/49
f 138/11/50 142/6/50 140/8/50 136/12/50
f 143/5/51 139/13/51 137/14/51 141/7/51
f 142/4/52 143/3/52 147/5/52 146/6/52
f 146/6/53 147/5/53 145/7/53 144/8/53
f 144/8/54 145/7/54 141/9/54 140/10/54
f 142/11/55 146/6/55 144/8/55 140/12/55
f 147/5/56 143/13/56 141/14/56 145/7/56
f 146/4/57 147/3/57 151/5/57 150/6/57
f 150/6/58 151/5/58 149/7/58 148/8/58
f 148/8/59 149/7/59 145/9/59 144/10/59
f 146/11/60 150/6/60 148/8/60 144/12/60
f 151/5/61 147/13/61 145/14/61 149/7/61
f 150/4/62 151/3/62 155/5/62 154/6/62
f 154/6/63 155/5/63 153/7/63 152/8/63
f 152/8/64 153/7/64 149/9/64 148/10/64
f 150/11/65 154/6/65 152/8/65 148/12/65
f 155/5/66 151/13/66 149/14/66 153/7/66
f 154/4/67 155/3/67 159/5/67 158/6/67
f 158/6/68 159/5/68 157/7/68 156/8/68
f 156/8/69 157/7/69 153/9/69 152/10/69
f 154/11/70 158/6/70 156/8/70 152/12/70
f 159/5/71 155/13/71 153/14/71 157/7/71
f 158/4/72 159/3/72 163/5/72 162/6/72
f 162/6/73 163/5/73 161/7/73 160/8/73
f 160/8/74 161/7/74 157/9/74 156/10/74
f 158/11/75 162/6/75 160/8/75 156/12/75
f 163/5/76 159/13/76 157/14/76 161/7/76
f 162/4/77 163/3/77 167/5/77 166/6/77
f 166/6/78 167/5/78 165/7/78 164/8/78
f 164/8/79 165/7/79 161/9/79 160/10/79
f 162/11/80 166/6/80 164/8/80 160/12/80
f 167/5/81 163/13/81 161/14/81 165/7/81
f 166/4/82 167/3/82 171/5/82 170/6/82
f 170/6/83 171/5/83 169/7/83 168/8/83
f 168/8/84 169/7/84 165/9/84 164/10/84
f 166/11/85 170/6/85 168/8/85 164/12/85
f 171/5/86 167/13/86 165/14/86 169/7/86
f 170/4/87 171/3/87 175/5/87 174/6/87
f 174/6/88 175/5/88 173/7/88 172/8/88
f 172/8/89 173/7/89 169/9/89 168/10/89
f 170/11/90 174/6/90 172/8/90 168/12/90
f 175/5/91 171/13/91 169/14/91 173/7/91
f 174/4/92 175/3/92 179/5/92 178/6/92
f 178/6/93 179/5/93 177/7/93 176/8/93
f 176/8/94 177/7/94 173/9/94 172/10/94
f 174/11/95 178/6/95 176/8/95 172/12/95
f 179/5/96 175/13/96 173/14/96 177/7/96
f 178/4/97 179/3/97 183/5/97 182/6/97
f 182/6/98 183/5/98 181/7/98 180/8/98
f 180/8/99 181/7/99 177/9/99 176/10/99
f 178/11/100 182/6/100 180/8/100 176/12/100
f 183/5/101 179/13/101 177/14/101 181/7/101
f 182/4/102 183/3/102 187/5/102 186/6/102
f 186/6/103 187/5/103 185/7/103 184/8/103
f 184/8/104 185/7/104 181/9/104 180/10/104
f 182/11/105 186/6/105 184/8/105 180/12/105
f 187/5/106 183/13/106 181/14/106 185/7/106
f 186/4/107 187/3/107 191/5/107 190/6/107
f 190/6/108 191/5/108 189/7/108 188/8/108
f 188/8/109 189/7/109 185/9/109 184/10/109
f 186/11/110 190/6/110 188/8/110 184/12/110
f 191/5/111 187/13/111 185/14/111 189/7/111
f 190/4/112 191/3/112 195/5/112 194/6/112
f 194/6/113 195/5/113 193/7/113 192/8/113
f 192/8/114 193/7/114 189/9/114 188/10/114
f 190/11/115 194/6/115 192/8/115 188/12/115
f 195/5/116 191/13/116 189/14/116 193/7/116
f 194/4/117 195/3/117 199/5/117 198/6/117
f 198/6/118 199/5/118 197/7/118 196/8/118
f 196/8/119 197/7/119 193/9/119 192/10/119
f 194/11/120 198/6/120 196/8/120 192/12/120
f 199/5/121 195/13/121 193/14/121 197/7/121
f 198/4/122 199/3/122 203/5/122 202/6/122
f 202/6/123 203/5/123 201/7/123 200/8/123
f 200/8/124 201/7/124 197/9/124 196/10/124
f 198/11/125 202/6/125 200/8/125 196/12/125
f 203/5/126 199/13/126 197/14/126 201/7/126
f 202/4/127 203/3/127 207/5/127 206/6/127
f 206/6/128 207/5/128 205/7/128 204/8/128
f 204/8/129 205/7/129 201/9/129 200/10/129
f 202/11/130 206/6/130 204/8/130 200/12/130
f 207/5/131 203/13/131 201/14/131 205/7/131
f 206/4/132 207/3/132 211/5/132 210/6/132
f 210/6/133 211/5/133 209/7/133 208/8/133
f 208/8/134 209/7/134 205/9/134 204/10/134
f 206/11/135 210/6/135 208/8/135 204/12/135
f 211/5/136 207/13/136 205/14/136 209/7/136
f 210/4/137 211/3/137 215/5/137 214/6/137
f 214/6/138 215/5/138 213/7/138 212/8/138
f 212/8/139 213/7/139 209/9/139 208/10/139
f 210/11/140 214/6/140 212/8/140 208/12/140
f 215/5/141 211/13/141 209/14/141 213/7/141
f 214/4/142 215/3/142 219/5/142 218/6/142
f 218/6/143 219/5/143 217/7/143 216/8/143
f 216/8/144 217/7/144 213/9/144 212/10/144
f 214/11/145 218/6/145 216/8/145 212/12/145
f 219/5/146 215/13/146 213/14/146 217/7/146
f 218/4/147 219/3/147 223/5/147 222/6/147
f 222/6/148 223/5/148 221/7/148 220/8/148
f 220/8/149 221/7/149 217/9/149 216/10/149
f 218/11/150 222/6/150 220/8/150 216/12/150
f 223/5/151 219/13/151 217/14/151 221/7/151
f 222/4/152 223/3/152 227/5/152 226/6/152
f 226/6/153 227/5/153 225/7/153 224/8/153
f 224/8/154 225/7/154 221/9/154 220/10/154
f 222/11/155 226/6/155 224/8/155 220/12/155
f 227/5/156 223/13/156 221/14/156 225/7/156
f 226/4/157 227/3/157 231/5/157 230/6/157
f 230/6/158 231/5/158 229/7/158 228/8/158
f 228/8/159 229/7/159 225/9/159 224/10/159
f 226/11/160 230/6/160 228/8/160 224/12/160
f 231/5/161 227/13/161 225/14/161 229/7/161
f 230/4/162 231/3/162 235/5/162 234/6/162
f 234/6/163 235/5/163 233/7/163 232/8/163
f 232/8/164 233/7/164 229/9/164 228/10/164
f 230/11/165 234/6/165 232/8/165 228/12/165
f 235/5/166 231/13/166 229/14/166 233/7/166
f 234/4/167 235/3/167 239/5/167 238/6/167
f 238/6/168 239/5/168 237/7/168 236/8/168
f 236/8/169 237/7/169 233/9/169 232/10/169
f 234/11/170 238/6/170 236/8/170 232/12/170
f 239/5/171 235/13/171 233/14/171 237/7/171
f 238/4/172 239/3/172 243/5/172 242/6/172
f 242/6/173 243/5/173 241/7/173 240/8/173
f 240/8/174 241/7/174 237/9/174 236/10/174
f 238/11/175 242/6/175 240/8/175 236/12/175
f 243/5/176 239/13/176 237/14/176 241/7/176
f 242/4/177 243/3/177 247/5/177 246/6/177
f 246/6/1 247/5/1 245/7/1 244/8/1
f 244/8/178 245/7/178 241/9/178 240/10/178
f 242/11/179 246/6/179 244/8/179 240/12/179
f 247/5/180 243/13/180 241/14/180 245/7/180
usemtl Material.001
f 250/4/181 251/3/181 255/5/181 254/6/181
f 255/5/182 253/7/182 259/7/182 256/5/182
f 252/8/183 253/7/183 249/9/183 248/10/183
f 250/11/184 254/6/184 252/8/184 248/12/184
f 255/5/182 251/13/182 249/14/182 253/7/182
f 259/7/185 258/8/185 262/8/185 263/7/185
f 254/6/1 255/5/1 256/5/1 257/6/1
f 253/7/186 252/8/186 258/8/186 259/7/186
f 252/8/184 254/6/184 257/6/184 258/8/184
f 260/5/182 263/7/182 267/7/182 264/5/182
f 258/8/184 257/6/184 261/6/184 262/8/184
f 256/5/182 259/7/182 263/7/182 260/5/182
f 257/6/187 256/5/187 260/5/187 261/6/187
f 261/6/183 260/5/183 264/5/183 265/6/183
f 263/7/181 262/8/181 266/8/181 267/7/181
f 262/8/184 261/6/184 265/6/184 266/8/184
f 267/7/186 266/8/186 270/8/186 271/7/186
f 266/8/184 265/6/184 269/6/184 270/8/184
f 264/5/182 267/7/182 271/7/182 268/5/182
f 265/6/1 264/5/1 268/5/1 269/6/1
f 269/6/183 268/5/183 272/5/183 273/6/183
f 275/7/186 274/8/186 278/8/186 279/7/186
f 271/7/181 270/8/181 274/8/181 275/7/181
f 270/8/184 269/6/184 273/6/184 274/8/184
f 268/5/182 271/7/182 275/7/182 272/5/182
f 277/6/183 276/5/183 279/7/183 278/8/183
f 274/8/184 273/6/184 277/6/184 278/8/184
f 272/5/182 275/7/182 279/7/182 276/5/182
f 273/6/1 272/5/1 276/5/1 277/6/1
f 293/15/181 282/4/181 285/4/181 295/15/181
f 296/16/186 291/17/186 287/3/186 295/15/186
f 292/18/183 281/9/183 286/9/183 294/18/183
f 289/19/182 283/13/182 287/13/182 291/19/182
f 288/20/184 280/12/184 284/12/184 290/20/184
f 282/11/184 288/20/184 290/20/184 285/11/184
f 281/14/182 289/19/182 291/19/182 286/14/182
f 294/21/186 286/2/186 291/17/186 296/16/186
f 284/1/186 294/21/186 296/16/186 290/22/186
f 280/10/183 292/18/183 294/18/183 284/10/183
f 290/22/186 296/16/186 295/15/186 285/4/186
f 283/3/181 293/15/181 295/15/181 287/3/181
f 299/4/181 300/3/181 304/5/181 303/6/181
f 302/7/186 301/8/186 307/8/186 308/7/186
f 301/8/183 302/7/183 298/9/183 297/10/183
f 299/11/184 303/6/184 301/8/184 297/12/184
f 304/5/182 300/13/182 298/14/182 302/7/182
f 305/5/182 308/7/182 312/7/182 309/5/182
f 301/8/184 303/6/184 306/6/184 307/8/184
f 304/5/182 302/7/182 308/7/182 305/5/182
f 303/6/1 304/5/1 305/5/1 306/6/1
f 311/8/184 310/6/184 314/6/184 315/8/184
f 306/6/183 305/5/183 309/5/183 310/6/183
f 308/7/181 307/8/181 311/8/181 312/7/181
f 307/8/184 306/6/184 310/6/184 311/8/184
f 313/5/182 316/7/182 320/7/182 317/5/182
f 309/5/182 312/7/182 316/7/182 313/5/182
f 310/6/187 309/5/187 313/5/187 314/6/187
f 312/7/185 311/8/185 315/8/185 316/7/185
f 320/7/1 319/8/1 323/8/1 324/7/1
f 314/6/183 313/5/183 317/5/183 318/6/183
f 316/7/181 315/8/181 319/8/181 320/7/181
f 315/8/184 314/6/184 318/6/184 319/8/184
f 321/5/182 324/7/182 328/7/182 325/5/182
f 319/8/184 318/6/184 322/6/184 323/8/184
f 317/5/182 320/7/182 324/7/182 321/5/182
f 318/6/186 317/5/186 321/5/186 322/6/186
f 328/7/1 327/8/1 331/8/1 332/7/1
f 322/6/185 321/5/185 325/5/185 326/6/185
f 324/7/187 323/8/187 327/8/187 328/7/187
f 323/8/184 322/6/184 326/6/184 327/8/184
f 327/8/184 326/6/184 330/6/184 331/8/184
f 325/5/182 328/7/182 332/7/182 329/5/182
f 326/6/186 325/5/186 329/5/186 330/6/186
f 329/5/182 332/7/182 336/7/182 333/5/182
f 330/6/181 329/5/181 333/5/181 334/6/181
f 332/7/183 331/8/183 335/8/183 336/7/183
f 331/8/184 330/6/184 334/6/184 335/8/184
f 333/5/182 336/7/182 340/7/182 337/5/182
f 338/6/1 337/5/1 341/5/1 342/6/1
f 334/6/188 333/5/188 337/5/188 338/6/188
f 336/7/189 335/8/189 339/8/189 340/7/189
f 335/8/184 334/6/184 338/6/184 339/8/184
f 344/7/183 343/8/183 347/8/183 348/7/183
f 340/7/186 339/8/186 343/8/186 344/7/186
f 339/8/184 338/6/184 342/6/184 343/8/184
f 337/5/182 340/7/182 344/7/182 341/5/182
f 345/5/182 348/7/182 352/7/182 349/5/182
f 343/8/184 342/6/184 346/6/184 347/8/184
f 341/5/182 344/7/182 348/7/182 345/5/182
f 342/6/181 341/5/181 345/5/181 346/6/181
f 352/7/181 351/8/181 355/8/181 356/7/181
f 346/6/1 345/5/1 349/5/1 350/6/1
f 348/7/186 347/8/186 351/8/186 352/7/186
f 347/8/184 346/6/184 350/6/184 351/8/184
f 355/8/184 354/6/184 358/6/184 359/8/184
f 351/8/184 350/6/184 354/6/184 355/8/184
f 349/5/182 352/7/182 356/7/182 353/5/182
f 350/6/183 349/5/183 353/5/183 354/6/183
f 360/7/181 359/8/181 363/8/181 364/7/181
f 353/5/182 356/7/182 360/7/182 357/5/182
f 354/6/189 353/5/189 357/5/189 358/6/189
f 356/7/188 355/8/188 359/8/188 360/7/188
f 362/6/186 361/5/186 364/7/186 363/8/186
f 359/8/184 358/6/184 362/6/184 363/8/184
f 357/5/182 360/7/182 364/7/182 361/5/182
f 358/6/183 357/5/183 361/5/183 362/6/183
f 299/11/184 297/12/184 365/12/184 367/11/184
f 297/10/183 298/9/183 366/9/183 365/10/183
f 375/19/182 370/13/182 374/13/182 377/19/182
f 381/16/186 377/17/186 374/3/186 380/15/186
f 378/15/181 369/4/181 373/4/181 380/15/181
f 379/21/186 372/2/186 377/17/186 381/16/186
f 368/14/182 375/19/182 377/19/182 372/14/182
f 371/1/186 379/21/186 381/16/186 376/22/186
f 370/3/181 378/15/181 380/15/181 374/3/181
f 376/22/186 381/16/186 380/15/186 373/4/186
