# Blender 4.3.2
# www.blender.org
mtllib baby.mtl
o BézierCircle
v -74.086075 -1.634537 34.948032
v -73.797867 -1.703857 31.508221
v -73.400764 -1.763781 28.058151
v -72.894936 -1.814803 24.607445
v -72.280556 -1.857417 21.165720
v -71.557816 -1.892119 17.742598
v -70.726868 -1.919402 14.347696
v -69.787895 -1.939761 10.990635
v -68.741081 -1.953691 7.681034
v -67.586594 -1.961687 4.428513
v -66.324608 -1.964242 1.242691
v -64.955299 -1.961851 -1.866810
v -63.478840 -1.955010 -4.890373
v -61.895420 -1.944212 -7.818378
v -60.205200 -1.929952 -10.641209
v -58.408363 -1.912725 -13.349239
v -56.505081 -1.893025 -15.932858
v -54.495529 -1.871347 -18.382439
v -52.379883 -1.848186 -20.688366
v -50.158318 -1.824035 -22.841011
v -47.831009 -1.799389 -24.830769
v -45.398136 -1.774744 -26.648014
v -42.859867 -1.750593 -28.283123
v -40.216385 -1.727431 -29.726475
v -37.467857 -1.705753 -30.968456
v -34.614464 -1.686053 -31.999454
v -31.656380 -1.668826 -32.809834
v -28.593781 -1.654566 -33.389980
v -25.426842 -1.643768 -33.730274
v -22.155739 -1.636927 -33.821110
v -18.780643 -1.634537 -33.652851
v -15.811742 -1.636571 -33.277782
v -12.993948 -1.642394 -32.693150
v -10.323704 -1.651585 -31.907276
v -7.797454 -1.663721 -30.928501
v -5.411644 -1.678384 -29.765148
v -3.162720 -1.695151 -28.425549
v -1.047125 -1.713602 -26.918018
v 0.938696 -1.733315 -25.250896
v 2.798298 -1.753871 -23.432507
v 4.535235 -1.774847 -21.471172
v 6.153064 -1.795824 -19.375229
v 7.655338 -1.816379 -17.153004
v 9.045614 -1.836093 -14.812813
v 10.327447 -1.854543 -12.363003
v 11.504391 -1.871311 -9.811886
v 12.580002 -1.885973 -7.167797
v 13.557836 -1.898110 -4.439064
v 14.441445 -1.907300 -1.634010
v 15.234388 -1.913123 1.239033
v 15.940219 -1.915158 4.171736
v 16.562492 -1.912983 7.155771
v 17.104763 -1.906178 10.182814
v 17.570587 -1.894322 13.244535
v 17.963516 -1.876993 16.332607
v 18.287113 -1.853772 19.438702
v 18.544930 -1.824237 22.554489
v 18.740517 -1.787966 25.671646
v 18.877434 -1.744540 28.781841
v 18.959232 -1.693537 31.876749
v 18.989452 -1.634537 34.948032
v 18.967636 -1.554199 38.576275
v 18.885990 -1.462682 42.247223
v 18.740204 -1.360953 45.949432
v 18.525948 -1.249981 49.671455
v 18.238903 -1.130734 53.401848
v 17.874752 -1.004180 57.129173
v 17.429165 -0.871288 60.841972
v 16.897831 -0.733025 64.528809
v 16.276423 -0.590359 68.178238
v 15.560619 -0.444259 71.778816
v 14.746100 -0.295693 75.319092
v 13.828545 -0.145628 78.787621
v 12.803630 0.004966 82.172966
v 11.667036 0.155123 85.463669
v 10.414441 0.303873 88.648300
v 9.041524 0.450249 91.715408
v 7.543963 0.593282 94.653549
v 5.917438 0.732005 97.451271
v 4.157625 0.865449 100.097137
v 2.260205 0.992646 102.579697
v 0.220856 1.112628 104.887497
v -1.964743 1.224426 107.009125
v -4.300914 1.327074 108.933105
v -6.791978 1.419602 110.648010
v -9.442255 1.501042 112.142380
v -12.256068 1.570427 113.404770
v -15.237739 1.626788 114.423737
v -18.391586 1.669158 115.187851
v -21.721935 1.696566 115.685654
v -25.233086 1.708046 115.905701
v -28.851311 1.702778 115.834656
v -32.320782 1.681076 115.470901
v -35.642735 1.643916 114.826385
v -38.818409 1.592275 113.913040
v -41.849037 1.527129 112.742828
v -44.735851 1.449456 111.327682
v -47.480087 1.360230 109.679565
v -50.082981 1.260430 107.810410
v -52.545765 1.151030 105.732178
v -54.869675 1.033008 103.456802
v -57.055950 0.907339 100.996231
v -59.105820 0.775001 98.362411
v -61.020515 0.636969 95.567307
v -62.801285 0.494220 92.622841
v -64.449356 0.347730 89.540970
v -65.965958 0.198476 86.333649
v -67.352333 0.047435 83.012802
v -68.609703 -0.104418 79.590393
v -69.739319 -0.256106 76.078369
v -70.742409 -0.406653 72.488678
v -71.620209 -0.555082 68.833252
v -72.373955 -0.700417 65.124054
v -73.004875 -0.841681 61.373024
v -73.514221 -0.977898 57.592106
v -73.903206 -1.108092 53.793251
v -74.173080 -1.231286 49.988403
v -74.325066 -1.346504 46.189507
v -74.360397 -1.452770 42.408516
v -74.280327 -1.549106 38.657372
l 1 2
l 2 3
l 3 4
l 4 5
l 5 6
l 6 7
l 7 8
l 8 9
l 9 10
l 10 11
l 11 12
l 12 13
l 13 14
l 14 15
l 15 16
l 16 17
l 17 18
l 18 19
l 19 20
l 20 21
l 21 22
l 22 23
l 23 24
l 24 25
l 25 26
l 26 27
l 27 28
l 28 29
l 29 30
l 30 31
l 31 32
l 32 33
l 33 34
l 34 35
l 35 36
l 36 37
l 37 38
l 38 39
l 39 40
l 40 41
l 41 42
l 42 43
l 43 44
l 44 45
l 45 46
l 46 47
l 47 48
l 48 49
l 49 50
l 50 51
l 51 52
l 52 53
l 53 54
l 54 55
l 55 56
l 56 57
l 57 58
l 58 59
l 59 60
l 60 61
l 61 62
l 62 63
l 63 64
l 64 65
l 65 66
l 66 67
l 67 68
l 68 69
l 69 70
l 70 71
l 71 72
l 72 73
l 73 74
l 74 75
l 75 76
l 76 77
l 77 78
l 78 79
l 79 80
l 80 81
l 81 82
l 82 83
l 83 84
l 84 85
l 85 86
l 86 87
l 87 88
l 88 89
l 89 90
l 90 91
l 91 92
l 92 93
l 93 94
l 94 95
l 95 96
l 96 97
l 97 98
l 98 99
l 99 100
l 100 101
l 101 102
l 102 103
l 103 104
l 104 105
l 105 106
l 106 107
l 107 108
l 108 109
l 109 110
l 110 111
l 111 112
l 112 113
l 113 114
l 114 115
l 115 116
l 116 117
l 117 118
l 118 119
l 119 120
l 120 1
o Plane
v 2.994838 -9.671009 75.715790
v 39.804367 -9.861805 79.438988
v 3.420906 -9.644741 46.718826
v 33.569649 -9.710649 45.843697
v -14.487360 -8.682261 98.031059
v 1.287933 -8.729511 136.659393
v -41.350105 -7.756755 98.956779
v -49.045914 -7.746195 134.277176
v -55.924862 -8.962383 69.655670
v -86.506226 -8.872628 79.683884
v -60.387341 -10.731873 25.275723
v -93.172409 -11.159353 22.401833
v -45.960499 -12.115997 -12.638573
v -71.946030 -12.597666 -39.589905
v -23.621845 -12.230761 -19.555397
v -27.230431 -12.861880 -52.077248
v -6.314672 -12.384748 -12.717918
v 12.923326 -12.673443 -39.644470
v 2.582273 -11.141751 21.908066
v 37.014214 -11.241901 20.274033
v 2.989739 -2.287186 75.442764
v 39.799271 -2.477983 79.165962
v 3.415810 -2.260918 46.445801
v 33.564552 -2.326826 45.570675
v -14.492458 -1.298439 97.758034
v 1.282835 -1.345688 136.386368
v -41.355202 -0.372932 98.683762
v -49.051010 -0.362371 134.004150
v -55.929958 -1.578560 69.382645
v -86.511322 -1.488805 79.410858
v -60.392437 -3.348050 25.002697
v -93.177521 -3.775530 22.128811
v -45.965595 -4.732174 -12.911598
v -71.951126 -5.213843 -39.862938
v -23.626945 -4.846938 -19.828423
v -27.235523 -5.478057 -52.350273
v -6.319771 -5.000926 -12.990936
v 12.918229 -5.289620 -39.917503
v 2.577174 -3.757928 21.635044
v 37.009117 -3.858078 20.001007
v -10.926453 -11.134211 22.364223
v -10.087816 -9.637199 47.174984
v -10.931551 -3.750387 22.091202
v -10.092913 -2.253377 46.901958
v 2.549279 -2.990380 20.496857
v 3.387915 -1.493368 45.307613
v -10.959444 -2.982839 20.953014
v -10.120810 -1.485827 45.763771
v -44.427639 -8.997144 68.500992
v -48.890118 -10.766633 24.121040
v -44.432732 -1.613321 68.227966
v -48.895214 -3.382811 23.848022
v -58.613796 -2.642770 42.691582
v -46.826420 -2.562479 44.422451
v -58.647289 31.850479 41.319656
v -60.425930 31.145199 23.630772
v -46.859913 31.930771 43.050529
v -48.928707 31.110439 22.476097
vn -0.0037 -1.0000 -0.0025
vn -0.0166 -0.9998 0.0150
vn -0.0248 -0.9997 0.0022
vn 0.0175 -0.9997 0.0170
vn 0.0097 -0.9992 0.0388
vn 0.0010 -0.9996 0.0286
vn -0.0002 -0.9998 0.0188
vn -0.0042 -0.9999 0.0144
vn 0.0066 -0.9996 0.0260
vn -0.0002 -0.9982 0.0600
vn 0.0037 1.0000 0.0025
vn 0.0166 0.9998 -0.0150
vn 0.0248 0.9997 -0.0022
vn -0.0175 0.9997 -0.0170
vn -0.0097 0.9992 -0.0388
vn -0.0010 0.9996 -0.0286
vn 0.0002 0.9998 -0.0188
vn 0.0042 0.9999 -0.0144
vn -0.0066 0.9996 -0.0260
vn 0.0002 0.9982 -0.0600
vn -0.0357 -0.0370 -0.9987
vn -0.3670 0.0341 0.9296
vn 0.9832 -0.0061 -0.1825
vn -0.9461 -0.0126 -0.3237
vn 0.9911 0.0056 0.1332
vn 0.9347 0.0138 0.3552
vn -0.8246 0.0203 0.5654
vn 0.9278 -0.0131 -0.3727
vn 0.8955 -0.0158 -0.4448
vn -0.9686 0.0085 0.2486
vn 0.8296 0.0212 0.5580
vn -0.2690 -0.0358 -0.9625
vn -0.7875 -0.0233 -0.6159
vn 0.2958 0.0355 0.9546
vn -0.9933 0.0036 0.1155
vn 0.0015 -0.9982 0.0602
vn -0.9999 -0.0012 -0.0147
vn -0.9950 0.0030 0.0999
vn -0.0465 0.0369 0.9982
vn 0.2957 -0.0351 -0.9546
vn -0.9994 0.0006 0.0337
vn 0.9994 -0.0126 -0.0330
vn 0.0337 0.0370 0.9987
vn -0.0337 -0.0370 -0.9987
vn -0.0015 0.9982 -0.0602
vn 0.0193 0.8292 0.5587
vn -0.9994 0.0126 0.0330
vn -0.0193 -0.8292 -0.5587
vn 0.9950 -0.0030 -0.0999
vn 0.1000 0.0368 0.9943
vn 0.0010 -0.9992 0.0397
vn -0.1000 -0.0368 -0.9943
vn -0.0010 0.9992 -0.0397
vn -0.1000 -0.0396 -0.9942
vn -0.1454 0.0392 0.9886
vt 0.000000 0.000000
vt 0.000000 1.000000
vt 1.000000 1.000000
vt 1.000000 0.000000
s 0
usemtl Material.002
f 121/1/1 123/2/1 124/3/1 122/4/1
f 122/4/2 126/4/2 125/1/2 121/1/2
f 126/4/3 128/4/3 127/1/3 125/1/3
f 128/4/4 130/4/4 129/1/4 127/1/4
f 130/4/5 132/4/5 131/1/5 129/1/5
f 132/4/6 134/4/6 133/1/6 131/1/6
f 134/4/7 136/4/7 135/1/7 133/1/7
f 136/4/8 138/4/8 137/1/8 135/1/8
f 138/4/9 140/4/9 139/1/9 137/1/9
f 140/4/10 124/4/10 123/1/10 139/1/10
f 141/1/11 142/4/11 144/3/11 143/2/11
f 142/4/12 141/1/12 145/1/12 146/4/12
f 146/4/13 145/1/13 147/1/13 148/4/13
f 148/4/14 147/1/14 149/1/14 150/4/14
f 150/4/15 149/1/15 173/1/15 151/1/15 152/4/15
f 152/4/16 151/1/16 153/1/16 154/4/16
f 154/4/17 153/1/17 155/1/17 156/4/17
f 156/4/18 155/1/18 157/1/18 158/4/18
f 158/4/19 157/1/19 159/1/19 160/4/19
f 160/4/20 159/1/20 143/1/20 144/4/20
f 125/1/21 127/1/21 147/1/21 145/1/21
f 135/1/22 137/1/22 157/1/22 155/1/22
f 122/4/23 124/3/23 144/3/23 142/4/23
f 134/4/24 132/4/24 152/4/24 154/4/24
f 124/4/25 140/4/25 160/4/25 144/4/25
f 131/1/26 133/1/26 153/1/26 151/1/26
f 130/4/27 128/4/27 148/4/27 150/4/27
f 140/4/28 138/4/28 158/4/28 160/4/28
f 127/1/29 129/1/29 149/1/29 147/1/29
f 137/1/30 139/1/30 159/1/30 157/1/30
f 126/4/31 122/4/31 142/4/31 146/4/31
f 136/4/32 134/4/32 154/4/32 156/4/32
f 121/1/33 125/1/33 145/1/33 141/1/33
f 133/1/34 135/1/34 155/1/34 153/1/34
f 132/4/35 130/4/35 150/4/35 152/4/35
f 139/1/36 123/1/36 162/1/36 161/1/36
f 123/2/37 121/1/37 141/1/37 143/2/37
f 151/1/38 173/1/38 175/1/38 176/1/38
f 128/4/39 126/4/39 146/4/39 148/4/39
f 138/4/40 136/4/40 156/4/40 158/4/40
f 161/1/41 162/1/41 164/1/41 163/1/41
f 143/1/42 159/1/42 165/1/42 166/1/42
f 123/2/43 143/2/43 164/2/43 162/2/43
f 159/1/44 139/1/44 161/1/44 163/1/44
f 166/1/45 165/1/45 167/1/45 168/1/45
f 164/2/46 143/2/46 166/2/46 168/2/46
f 163/1/47 164/1/47 168/1/47 167/1/47
f 159/1/48 163/1/48 167/1/48 165/1/48
f 169/1/49 170/1/49 172/1/49 174/1/49 171/1/49
f 149/1/50 129/1/50 169/1/50 171/1/50
f 129/1/51 131/1/51 170/1/51 169/1/51
f 131/1/52 151/1/52 172/1/52 170/1/52
f 174/1/53 173/1/53 149/1/53 171/1/53
f 176/1/53 175/1/53 177/1/53 178/1/53
f 172/1/54 151/1/54 176/1/54 178/1/54
f 174/1/49 172/1/49 178/1/49 177/1/49
f 173/1/55 174/1/55 177/1/55 175/1/55
